<svg width="24" height="24" viewBox="0 0 24 24" fill="none" xmlns="http://www.w3.org/2000/svg">
<path d="M4.75 19C4.5375 19 4.35938 18.9277 4.21563 18.7831C4.07187 18.6385 4 18.4594 4 18.2456C4 18.0319 4.07187 17.8542 4.21563 17.7125C4.35938 17.5708 4.5375 17.5 4.75 17.5H6.1V9.85C6.1 8.48333 6.5125 7.24583 7.3375 6.1375C8.1625 5.02917 9.25 4.33333 10.6 4.05V3.325C10.6 2.94167 10.7355 2.625 11.0066 2.375C11.2777 2.125 11.6069 2 11.9941 2C12.3814 2 12.7125 2.125 12.9875 2.375C13.2625 2.625 13.4 2.94167 13.4 3.325V4.05C14.75 4.33333 15.8417 5.02917 16.675 6.1375C17.5083 7.24583 17.925 8.48333 17.925 9.85V17.5H19.25C19.4625 17.5 19.6406 17.5723 19.7844 17.7169C19.9281 17.8615 20 18.0406 20 18.2544C20 18.4681 19.9281 18.6458 19.7844 18.7875C19.6406 18.9292 19.4625 19 19.25 19H4.75ZM12 22C11.4667 22 11 21.8042 10.6 21.4125C10.2 21.0208 10 20.55 10 20H14C14 20.55 13.8042 21.0208 13.4125 21.4125C13.0208 21.8042 12.55 22 12 22ZM7.6 17.5H16.425V9.85C16.425 8.6 16.0042 7.54583 15.1625 6.6875C14.3208 5.82917 13.2792 5.4 12.0375 5.4C10.7958 5.4 9.74583 5.82917 8.8875 6.6875C8.02917 7.54583 7.6 8.6 7.6 9.85V17.5Z" fill="#616161"/>
</svg>
