<svg width="12" height="13" viewBox="0 0 12 13" fill="none" xmlns="http://www.w3.org/2000/svg">
<path d="M4.99967 11L1.73301 12.4C1.39967 12.5445 1.08301 12.518 0.783008 12.3208C0.483008 12.1235 0.333008 11.8443 0.333008 11.4834V1.91669C0.333008 1.65002 0.433008 1.41669 0.633008 1.21669C0.833008 1.01669 1.06634 0.916687 1.33301 0.916687H6.16634V1.91669H1.33301V11.4834L4.99967 9.93335L8.66634 11.4834V5.91669H9.66634V11.4834C9.66634 11.8443 9.51634 12.1235 9.21634 12.3208C8.91634 12.518 8.59967 12.5445 8.26634 12.4L4.99967 11ZM4.99967 1.91669H1.33301H6.16634H4.99967ZM8.66634 3.41669H7.66634C7.52467 3.41669 7.40592 3.36849 7.31009 3.2721C7.21426 3.1757 7.16634 3.05626 7.16634 2.91377C7.16634 2.77127 7.21426 2.6528 7.31009 2.55835C7.40592 2.46391 7.52467 2.41669 7.66634 2.41669H8.66634V1.41669C8.66634 1.27502 8.71453 1.15627 8.81092 1.06044C8.90732 0.964604 9.02677 0.916687 9.16926 0.916687C9.31176 0.916687 9.43023 0.964604 9.52467 1.06044C9.61912 1.15627 9.66634 1.27502 9.66634 1.41669V2.41669H10.6663C10.808 2.41669 10.9268 2.46488 11.0226 2.56127C11.1184 2.65767 11.1663 2.77711 11.1663 2.9196C11.1663 3.0621 11.1184 3.18058 11.0226 3.27502C10.9268 3.36946 10.808 3.41669 10.6663 3.41669H9.66634V4.41669C9.66634 4.55835 9.61815 4.6771 9.52176 4.77294C9.42536 4.86877 9.30591 4.91669 9.16342 4.91669C9.02092 4.91669 8.90245 4.86877 8.80801 4.77294C8.71356 4.6771 8.66634 4.55835 8.66634 4.41669V3.41669Z" fill="#9E9E9E"/>
</svg>
