<svg width="24" height="24" viewBox="0 0 24 24" fill="none" xmlns="http://www.w3.org/2000/svg">
<path d="M10.125 8.84475V5.625H9.375V9.37012C9.51492 9.37168 9.64975 9.31774 9.75 9.22012L10.125 8.84475Z" fill="#313131"/>
<path d="M10.0351 13.1674C9.94234 13.1409 9.84654 13.1267 9.7501 13.125C9.56926 13.1218 9.39039 13.163 9.22918 13.245C9.06797 13.3271 8.92935 13.4474 8.82548 13.5955C8.7216 13.7435 8.65565 13.9148 8.6334 14.0943C8.61115 14.2738 8.63328 14.456 8.69785 14.625H16.7731C16.8396 14.5112 16.8748 14.3819 16.8752 14.2501C16.8757 14.1183 16.8412 13.9887 16.7754 13.8745C16.7097 13.7603 16.6149 13.6655 16.5007 13.5998C16.3865 13.534 16.2569 13.4996 16.1251 13.5C16.1277 13.5019 16.1082 13.5041 16.0876 13.5052C16.0288 13.5075 15.9702 13.4961 15.9165 13.4721C15.8628 13.448 15.8153 13.4119 15.7779 13.3665C15.7408 13.3206 15.715 13.2667 15.7027 13.209C15.6904 13.1514 15.6919 13.0916 15.707 13.0346C15.7336 12.942 15.7481 12.8463 15.7501 12.75C15.7501 12.4516 15.6316 12.1655 15.4206 11.9545C15.2096 11.7435 14.9235 11.625 14.6251 11.625C14.3267 11.625 14.0406 11.7435 13.8296 11.9545C13.6186 12.1655 13.5001 12.4516 13.5001 12.75C13.5001 12.8495 13.4606 12.9448 13.3903 13.0152C13.3199 13.0855 13.2246 13.125 13.1251 13.125C13.0256 13.125 12.9303 13.0855 12.8599 13.0152C12.7896 12.9448 12.7501 12.8495 12.7501 12.75C12.7501 12.4516 12.6316 12.1655 12.4206 11.9545C12.2096 11.7435 11.9235 11.625 11.6251 11.625C11.3267 11.625 11.0406 11.7435 10.8296 11.9545C10.6186 12.1655 10.5001 12.4516 10.5001 12.75C10.5038 12.7629 10.5054 12.7763 10.505 12.7897C10.5073 12.8484 10.4959 12.9067 10.4716 12.9601C10.4473 13.0135 10.4108 13.0604 10.3651 13.0971C10.3193 13.1339 10.2656 13.1594 10.2083 13.1716C10.1509 13.1838 10.0918 13.1823 10.0351 13.1674Z" fill="#313131"/>
<path d="M8.625 1.125H7.875V4.875H8.625V1.125Z" fill="#313131"/>
<path d="M22.7198 9.001L22.1251 8.40625L19.5901 10.9416C19.8783 11.0152 20.1447 11.1567 20.3671 11.3541L22.7198 9.001Z" fill="#313131"/>
<path d="M16.5001 12.7978C16.692 12.8447 16.8726 12.9297 17.0311 13.0477C17.1896 13.1657 17.3228 13.3144 17.4227 13.4849C17.5226 13.6553 17.5873 13.8441 17.6128 14.0401C17.6384 14.236 17.6243 14.4351 17.5715 14.6255H22.0523C22.1169 14.4566 22.139 14.2744 22.1168 14.0949C22.0945 13.9154 22.0286 13.7441 21.9247 13.596C21.8208 13.4479 21.6822 13.3276 21.521 13.2456C21.3598 13.1635 21.1809 13.1223 21.0001 13.1255C20.9036 13.1272 20.8078 13.1415 20.7151 13.1679C20.6584 13.1828 20.599 13.1843 20.5416 13.1721C20.4843 13.1599 20.4306 13.1345 20.3849 13.0978C20.3392 13.0611 20.3027 13.0142 20.2783 12.9609C20.254 12.9075 20.2425 12.8492 20.2448 12.7907C20.2448 12.7779 20.2493 12.7397 20.2512 12.7273C20.2497 12.5795 20.2191 12.4334 20.1611 12.2974C20.1031 12.1615 20.0189 12.0382 19.9133 11.9348C19.7001 11.7259 19.4125 11.6103 19.114 11.6133C18.8155 11.6164 18.5304 11.738 18.3215 11.9512C18.1126 12.1645 17.997 12.452 18.0001 12.7505C18.0001 12.85 17.9606 12.9454 17.8902 13.0157C17.8199 13.086 17.7245 13.1255 17.6251 13.1255C17.5256 13.1255 17.4302 13.086 17.3599 13.0157C17.2896 12.9454 17.2501 12.85 17.2501 12.7505C17.2501 12.4522 17.1316 12.166 16.9206 11.955C16.7096 11.7441 16.4234 11.6255 16.1251 11.6255C16.1221 11.6255 16.1195 11.6255 16.1165 11.6255C16.3641 11.9484 16.4989 12.3436 16.5001 12.7505C16.5001 12.7663 16.5001 12.782 16.5001 12.7978Z" fill="#313131"/>
<path d="M2.78025 9L3 9.21975C3.10097 9.3163 3.2353 9.37018 3.375 9.37018C3.5147 9.37018 3.64903 9.3163 3.75 9.21975L3.96975 9C4.21381 8.76753 4.53794 8.63786 4.875 8.63786C5.21206 8.63786 5.53619 8.76753 5.78025 9L6 9.21975C6.10097 9.3163 6.2353 9.37018 6.375 9.37018C6.5147 9.37018 6.64903 9.3163 6.75 9.21975L6.96975 9C7.01786 8.95393 7.0698 8.91203 7.125 8.87475V5.625H1.125V8.87475C1.37308 8.7017 1.67332 8.61964 1.97494 8.64246C2.27656 8.66529 2.56103 8.79159 2.78025 9Z" fill="#313131"/>
<path d="M8.625 5.625H7.875V8.63738C8.14354 8.63701 8.40558 8.71994 8.625 8.87475V5.625Z" fill="#313131"/>
<path d="M15.3749 22.875C17.1033 22.8731 18.7781 22.2752 20.1171 21.1823C21.456 20.0893 22.377 18.568 22.7249 16.875H8.0249C8.37279 18.568 9.29384 20.0893 10.6328 21.1823C11.9717 22.2752 13.6465 22.8731 15.3749 22.875Z" fill="#313131"/>
<path d="M22.3043 15.375H22.2986H22.293H16.9721C16.9684 15.375 16.965 15.3773 16.9613 15.3773C16.9575 15.3773 16.9534 15.375 16.95 15.375H7.875C7.875 15.6281 7.8885 15.8783 7.9125 16.125H22.8375C22.8619 15.8783 22.875 15.6281 22.875 15.375H22.3043Z" fill="#313131"/>
<path d="M1.125 22.5C1.125 22.5995 1.16451 22.6948 1.23483 22.7652C1.30516 22.8355 1.40054 22.875 1.5 22.875H9.75C9.84946 22.875 9.94484 22.8355 10.0152 22.7652C10.0855 22.6948 10.125 22.5995 10.125 22.5V22.125H1.125V22.5Z" fill="#313131"/>
<path d="M7.125 15.3741V14.9991C7.125 14.8996 7.16451 14.8042 7.23483 14.7339C7.30516 14.6636 7.40054 14.6241 7.5 14.6241H7.917C7.85799 14.3516 7.86108 14.0694 7.92603 13.7983C7.99098 13.5272 8.11613 13.2742 8.2922 13.0581C8.46827 12.842 8.69074 12.6683 8.9431 12.5499C9.19547 12.4314 9.47125 12.3714 9.75 12.3741H9.7875C9.84418 12.1061 9.95943 11.8539 10.125 11.6357V9.87659C9.94536 10.0097 9.73349 10.0926 9.51118 10.1168C9.28887 10.1409 9.06415 10.1054 8.86013 10.0138C8.85263 10.0108 8.84663 10.0063 8.8395 10.003C8.70227 9.94075 8.5771 9.85481 8.46975 9.74909L8.25 9.52934C8.14903 9.43279 8.0147 9.37891 7.875 9.37891C7.7353 9.37891 7.60097 9.43279 7.5 9.52934L7.28025 9.74909C7.03619 9.98156 6.71206 10.1112 6.375 10.1112C6.03794 10.1112 5.71381 9.98156 5.46975 9.74909L5.25 9.52934C5.14903 9.43279 5.0147 9.37891 4.875 9.37891C4.7353 9.37891 4.60097 9.43279 4.5 9.52934L4.28025 9.74909C4.03619 9.98156 3.71206 10.1112 3.375 10.1112C3.03794 10.1112 2.71381 9.98156 2.46975 9.74909L2.25 9.52934C2.14903 9.43279 2.0147 9.37891 1.875 9.37891C1.7353 9.37891 1.60097 9.43279 1.5 9.52934L1.125 9.90434V21.3741H9.7215C8.90158 20.6046 8.24814 19.6751 7.80155 18.6431C7.35496 17.6111 7.1247 16.4986 7.125 15.3741Z" fill="#313131"/>
<path d="M18.375 7.125C17.981 7.13552 17.6062 7.29734 17.3284 7.57687C17.0501 7.8563 16.8881 8.23085 16.875 8.625C17.269 8.61448 17.6438 8.45266 17.9216 8.17313C18.1999 7.8937 18.3619 7.51915 18.375 7.125Z" fill="#313131"/>
<path d="M13.875 6.375C13.8625 5.98184 13.7017 5.60796 13.425 5.32837C13.1466 5.04749 12.7704 4.88506 12.375 4.875C12.3875 5.26816 12.5483 5.64204 12.825 5.92163C13.1034 6.20251 13.4796 6.36494 13.875 6.375Z" fill="#313131"/>
</svg>
