<svg width="20" height="20" viewBox="0 0 20 20" fill="none" xmlns="http://www.w3.org/2000/svg">
<mask id="mask0_9812_6669" style="mask-type:alpha" maskUnits="userSpaceOnUse" x="0" y="0" width="20" height="20">
<rect width="20" height="20" fill="#D9D9D9"/>
</mask>
<g mask="url(#mask0_9812_6669)">
<path d="M12.0833 15.0052C11.5 15.0052 11.0069 14.8038 10.6042 14.401C10.2014 13.9983 10 13.5052 10 12.9219C10 12.3385 10.2014 11.8455 10.6042 11.4427C11.0069 11.0399 11.5 10.8385 12.0833 10.8385C12.6667 10.8385 13.1597 11.0399 13.5625 11.4427C13.9653 11.8455 14.1667 12.3385 14.1667 12.9219C14.1667 13.5052 13.9653 13.9983 13.5625 14.401C13.1597 14.8038 12.6667 15.0052 12.0833 15.0052ZM4.16667 18.3385C3.70833 18.3385 3.31597 18.1753 2.98958 17.849C2.66319 17.5226 2.5 17.1302 2.5 16.6719V5.00521C2.5 4.54687 2.66319 4.15451 2.98958 3.82812C3.31597 3.50174 3.70833 3.33854 4.16667 3.33854H5V1.67188H6.66667V3.33854H13.3333V1.67188H15V3.33854H15.8333C16.2917 3.33854 16.684 3.50174 17.0104 3.82812C17.3368 4.15451 17.5 4.54687 17.5 5.00521V16.6719C17.5 17.1302 17.3368 17.5226 17.0104 17.849C16.684 18.1753 16.2917 18.3385 15.8333 18.3385H4.16667ZM4.16667 16.6719H15.8333V8.33854H4.16667V16.6719Z" fill="#313131"/>
</g>
</svg>
