<svg width="17" height="19" viewBox="0 0 17 19" fill="none" xmlns="http://www.w3.org/2000/svg">
<path d="M0 16.6C0 17.0554 0.180898 17.4921 0.502898 17.8141C0.824898 18.1361 1.26162 18.317 1.717 18.317H14.307C14.7624 18.317 15.1991 18.1361 15.5211 17.8141C15.8431 17.4921 16.024 17.0554 16.024 16.6V6.867H0V16.6ZM2.289 9.729C2.28953 9.57746 2.34996 9.43227 2.45712 9.32512C2.56427 9.21796 2.70946 9.15753 2.861 9.157H6.3C6.45154 9.15753 6.59673 9.21796 6.70388 9.32512C6.81104 9.43227 6.87147 9.57746 6.872 9.729V13.163C6.87147 13.3145 6.81104 13.4597 6.70388 13.5669C6.59673 13.674 6.45154 13.7345 6.3 13.735H2.861C2.70946 13.7345 2.56427 13.674 2.45712 13.5669C2.34996 13.4597 2.28953 13.3145 2.289 13.163V9.729ZM14.307 2.289H12.59V0.572C12.5895 0.420458 12.529 0.275274 12.4219 0.168117C12.3147 0.0609605 12.1695 0.000527106 12.018 0L10.873 0C10.7213 0.000263392 10.5758 0.0605803 10.4685 0.167766C10.3611 0.274951 10.3005 0.420286 10.3 0.572V2.289H5.723V0.572C5.72247 0.420458 5.66204 0.275274 5.55488 0.168117C5.44773 0.0609605 5.30254 0.000527106 5.151 0L4.006 0C3.85446 0.000527106 3.70927 0.0609605 3.60212 0.168117C3.49496 0.275274 3.43453 0.420458 3.434 0.572V2.289H1.717C1.26162 2.289 0.824898 2.4699 0.502898 2.7919C0.180898 3.1139 0 3.55062 0 4.006L0 5.723H16.024V4.006C16.024 3.55062 15.8431 3.1139 15.5211 2.7919C15.1991 2.4699 14.7624 2.289 14.307 2.289Z" fill="#1B053C"/>
</svg>
