<svg width="20" height="20" viewBox="0 0 20 20" fill="none" xmlns="http://www.w3.org/2000/svg">
<path d="M16.5625 17.5C14.8681 17.5 13.184 17.0833 11.5104 16.25C9.83681 15.4167 8.33333 14.3333 7 13C5.66667 11.6667 4.58333 10.1632 3.75 8.48958C2.91667 6.81597 2.5 5.13194 2.5 3.4375C2.5 3.16964 2.58928 2.94642 2.76785 2.76785C2.94642 2.58928 3.16964 2.5 3.4375 2.5H6.35417C6.54321 2.5 6.712 2.56597 6.86054 2.69792C7.00907 2.82986 7.10417 3.00694 7.14583 3.22917L7.70833 5.85417C7.73611 6.04861 7.73264 6.22569 7.69792 6.38542C7.66319 6.54514 7.59028 6.68056 7.47917 6.79167L5.39583 8.89583C6.17361 10.1875 7.04514 11.3125 8.01042 12.2708C8.97569 13.2292 10.0694 14.0417 11.2917 14.7083L13.2708 12.6667C13.4097 12.5139 13.5694 12.4062 13.75 12.3438C13.9306 12.2812 14.1111 12.2708 14.2917 12.3125L16.7708 12.8542C16.9835 12.901 17.1582 13.0065 17.2949 13.1706C17.4316 13.3346 17.5 13.5278 17.5 13.75V16.5625C17.5 16.8304 17.4107 17.0536 17.2321 17.2321C17.0536 17.4107 16.8304 17.5 16.5625 17.5ZM4.77083 7.75L6.45833 6.04167L5.97917 3.75H3.75C3.75 4.29167 3.83333 4.88542 4 5.53125C4.16667 6.17708 4.42361 6.91667 4.77083 7.75ZM12.4583 15.3125C13.0278 15.5764 13.6458 15.7917 14.3125 15.9583C14.9792 16.125 15.625 16.2222 16.25 16.25V14.0208L14.1042 13.5833L12.4583 15.3125Z" fill="#616161"/>
</svg>
