<svg width="22" height="20" viewBox="0 0 22 20" fill="none" xmlns="http://www.w3.org/2000/svg">
<path d="M2.3077 19.5C1.80257 19.5 1.375 19.325 1.025 18.975C0.675 18.625 0.5 18.1974 0.5 17.6923V6.3077C0.5 5.80257 0.675 5.375 1.025 5.025C1.375 4.675 1.80257 4.5 2.3077 4.5H5.36153L7.21153 2.5H12.8077V3.99998H7.86535L6.03075 5.99998H2.3077C2.21795 5.99998 2.14423 6.02883 2.08653 6.08653C2.02883 6.14423 1.99998 6.21795 1.99998 6.3077V17.6923C1.99998 17.782 2.02883 17.8557 2.08653 17.9134C2.14423 17.9711 2.21795 18 2.3077 18H17.6923C17.782 18 17.8557 17.9711 17.9134 17.9134C17.9711 17.8557 18 17.782 18 17.6923V9.1923H19.5V17.6923C19.5 18.1974 19.325 18.625 18.975 18.975C18.625 19.325 18.1974 19.5 17.6923 19.5H2.3077ZM18 5.99998V3.99998H16V2.5H18V0.5H19.5V2.5H21.5V3.99998H19.5V5.99998H18ZM9.99998 16.1153C11.1474 16.1153 12.1202 15.7163 12.9182 14.9182C13.7163 14.1202 14.1153 13.1474 14.1153 12C14.1153 10.8525 13.7163 9.87979 12.9182 9.08173C12.1202 8.28366 11.1474 7.88463 9.99998 7.88463C8.85254 7.88463 7.87979 8.28366 7.08173 9.08173C6.28366 9.87979 5.88462 10.8525 5.88462 12C5.88462 13.1474 6.28366 14.1202 7.08173 14.9182C7.87979 15.7163 8.85254 16.1153 9.99998 16.1153ZM9.99998 14.6154C9.26151 14.6154 8.64099 14.3641 8.13843 13.8615C7.63586 13.359 7.38458 12.7384 7.38458 12C7.38458 11.2615 7.63586 10.641 8.13843 10.1384C8.64099 9.63586 9.26151 9.38458 9.99998 9.38458C10.7384 9.38458 11.359 9.63586 11.8615 10.1384C12.3641 10.641 12.6154 11.2615 12.6154 12C12.6154 12.7384 12.3641 13.359 11.8615 13.8615C11.359 14.3641 10.7384 14.6154 9.99998 14.6154Z" fill="#313131"/>
</svg>
