<svg width="22" height="13" viewBox="0 0 22 13" fill="none" xmlns="http://www.w3.org/2000/svg">
<path d="M19.4614 12.6426L17.0922 11.6772L19.0038 6.61951L21.0999 10.7926C21.3589 11.2938 21.2781 11.7826 20.8576 12.2589C20.4371 12.7352 19.9717 12.8631 19.4614 12.6426ZM13.523 11.7118L14.4538 2.91953C14.4871 2.61825 14.6252 2.42016 14.8682 2.32528C15.1111 2.23041 15.382 2.23747 15.6807 2.34646L17.9884 3.22336C18.2602 3.33619 18.44 3.50702 18.5278 3.73586C18.6156 3.96471 18.5986 4.23747 18.4768 4.55416L15.7961 11.7118H13.523ZM6.21917 11.7118L3.57689 4.59261C3.46791 4.29517 3.44611 4.01985 3.51149 3.76663C3.57687 3.51343 3.74867 3.33234 4.02689 3.22336L6.33457 2.34646C6.62558 2.22722 6.89449 2.21825 7.14129 2.31953C7.38809 2.42081 7.52816 2.60799 7.56149 2.88106L8.47686 11.7118H6.21917ZM2.39996 12.6426C1.90895 12.84 1.47081 12.7144 1.08554 12.2657C0.70029 11.8169 0.643556 11.3387 0.91534 10.831L3.04611 6.61951L4.92304 11.6772L2.39996 12.6426ZM9.66917 11.7118L8.62301 1.57723C8.58968 1.27466 8.68166 1.02274 8.89896 0.821457C9.11628 0.620174 9.36661 0.519531 9.64994 0.519531H12.3499C12.6717 0.519531 12.9317 0.624981 13.1298 0.835881C13.3278 1.04678 13.4102 1.30671 13.3769 1.61568L12.3307 11.7118H9.66917Z" fill="#313131"/>
</svg>
