<svg width="68" height="55" viewBox="0 0 68 55" fill="none" xmlns="http://www.w3.org/2000/svg">
<g clip-path="url(#clip0_2930_6783)">
<path d="M66.9373 44.5857C66.9373 45.9725 65.8136 47.0961 64.4197 47.0961H41.2991C39.9123 47.0961 38.7815 45.9725 38.7815 44.5857V7.3054C38.7815 5.91859 39.9052 4.79492 41.2991 4.79492H64.4197C65.8136 4.79492 66.9373 5.91859 66.9373 7.3054V44.5857Z" fill="#AABDE5"/>
<path d="M64.9255 46.1014C64.9255 47.4028 63.9227 48.4625 62.6782 48.4625H42.0112C40.7666 48.4625 39.7638 47.4099 39.7638 46.1014V11.0613C39.7638 9.75986 40.7666 8.7002 42.0112 8.7002H62.6782C63.9227 8.7002 64.9255 9.75275 64.9255 11.0613V46.1014Z" fill="#DEE0FF"/>
<path d="M58.63 6.23938H44.5344C43.617 4.73167 42.6213 3.64355 41.647 3.64355H29.3791C28.0776 3.64355 27.0179 4.69611 27.0179 6.00469V51.1578C27.0179 52.4592 28.0705 53.5189 29.3791 53.5189H58.63C59.9315 53.5189 60.9912 52.4592 60.9912 51.1578V8.60051C60.9912 7.29904 59.9386 6.23938 58.63 6.23938Z" fill="#74CCF6"/>
<path d="M30.3407 6.00386V51.1569C30.3407 52.4086 31.315 53.4185 32.5454 53.4967V3.66406C31.315 3.7494 30.3407 4.75929 30.3407 6.00386Z" fill="#556DE0"/>
<path d="M38.7919 52.5067L57.5102 51.9591L64.9492 51.3474L64.11 15.0344C64.0745 13.7543 63.0077 12.7515 61.7276 12.7871L37.6469 13.4911C36.3667 13.5267 35.3569 14.5935 35.3995 15.8736L36.4023 50.2664C36.4379 51.5466 37.5046 52.5493 38.7848 52.5138L38.7919 52.5067Z" fill="#EDEDED"/>
<path d="M59.7217 28.1238L39.8872 28.8857L39.9486 30.4847L59.7831 29.7228L59.7217 28.1238Z" fill="#AABDE5"/>
<path d="M59.397 24.8025L39.5624 25.5645L39.6239 27.1634L59.4584 26.4015L59.397 24.8025Z" fill="#AABDE5"/>
<path d="M59.779 22.9286L39.9512 23.6895L39.8872 22.0823L59.7221 21.3213L59.779 22.9286Z" fill="#AABDE5"/>
<path d="M59.399 18.0105L39.5645 18.7725L39.6262 20.3786L59.4607 19.6166L59.399 18.0105Z" fill="#AABDE5"/>
<path d="M59.8504 31.4871L40.0158 32.249L40.0775 33.8551L59.9121 33.0932L59.8504 31.4871Z" fill="#AABDE5"/>
<path d="M59.9872 34.8367L40.1527 35.5986L40.2141 37.1976L60.0486 36.4357L59.9872 34.8367Z" fill="#AABDE5"/>
<path d="M60.1077 38.1999L40.2732 38.9619L40.3346 40.5609L60.1691 39.7989L60.1077 38.1999Z" fill="#AABDE5"/>
<path d="M60.2364 41.5554L40.4018 42.3174L40.4635 43.9235L60.2981 43.1615L60.2364 41.5554Z" fill="#AABDE5"/>
<path d="M60.3669 44.9094L40.5325 45.6748L40.5945 47.2809L60.4289 46.5155L60.3669 44.9094Z" fill="#AABDE5"/>
<path d="M1.19664 17.3782C1.19664 17.3782 17.5183 1.38368 37.4244 17.3782C37.4244 17.3782 40.0344 43.7347 19.3176 52.276C19.3176 52.276 -0.759113 46.3732 1.19664 17.3782Z" fill="#74CCF6"/>
<path d="M3.41623 19.0771C3.41623 19.0771 17.7324 5.04545 35.2062 19.0771C35.2062 19.0771 37.4962 42.2048 19.3183 49.7007C19.3183 49.7007 1.70227 44.5162 3.41623 19.0771Z" fill="#74CCF6"/>
<path d="M22.5182 18.9697H15.9896V40.4546H22.5182V18.9697Z" fill="white"/>
<path d="M29.7004 26.9365H8.81298V32.7753H29.7004V26.9365Z" fill="white"/>
<path d="M34.5011 45.5881C33.9464 48.2194 33.2921 53.8378 34.3589 53.8662C35.4257 53.8947 36.0231 53.5035 35.4114 53.2973C34.7927 53.0839 34.7714 53.0057 34.7927 52.7995C35.0559 50.0898 38.5691 45.8583 38.8678 42.6295C38.9674 41.5272 39.0385 40.5173 39.0883 39.6354C39.4865 41.9966 39.1949 44.5071 39.2305 45.332C39.3443 48.2834 39.8635 53.852 41.0369 53.8662C42.2815 53.8805 42.8931 53.4609 42.0966 53.2617C41.4067 53.0839 41.4352 53.0484 41.4494 52.8421C41.6201 49.8623 42.8149 44.3648 43.0424 40.8231C43.3056 36.7409 34.999 43.2838 34.5082 45.5881H34.5011Z" fill="#CC7D60"/>
<path d="M41.9117 34.2734C39.7782 35.9874 37.0472 35.454 35.888 35.1838C35.5751 38.2418 33.7402 49.7061 33.5268 51.285C34.4656 51.6619 34.7714 51.7401 35.0417 51.7401C39.5577 44.7065 39.0385 41.6911 39.0883 40.8092C39.259 41.8262 38.6972 46.8329 39.6715 51.7401C39.9986 51.9961 40.9872 52.3233 41.6983 51.7401C41.7339 51.4272 43.5545 43.9455 43.2772 40.8306C43.0069 37.8365 42.3953 35.4113 41.9117 34.2734Z" fill="#1A7667"/>
<path d="M40.3694 53.1973C40.3694 53.1973 41.301 53.6453 41.87 53.1973C41.87 53.1973 42.9154 53.3679 42.2611 53.6738C41.5997 53.9796 40.3267 54.2356 40.3694 53.1973Z" fill="#1F100B"/>
<path d="M33.9103 53.2979C33.9103 53.2979 34.842 53.7388 35.4109 53.2979C35.4109 53.2979 36.4563 53.4685 35.7949 53.7743C35.1335 54.0802 33.8676 54.3362 33.9032 53.2979H33.9103Z" fill="#1F100B"/>
<path d="M41.6854 30.7815C41.4364 30.6037 40.9244 29.8498 41.3084 29.0889C41.8205 28.0576 43.7336 26.7206 43.6269 25.1347C43.5202 23.5487 42.5601 23.0651 41.9556 22.6598C41.3511 22.2544 40.9244 22.3753 40.5972 22.0979C40.2701 21.8277 40.6115 21.4507 41.7351 21.8703C42.2685 22.0695 45.035 22.738 45.5044 24.6084C46.1231 27.062 43.1291 31.834 41.6782 30.7815H41.6854Z" fill="#EE9D7F"/>
<path d="M41.9121 30.7523C41.9121 30.7523 43.0144 31.5133 44.2021 29.906C45.3827 28.2987 45.6814 27.4311 45.6814 27.4311C45.6814 27.4311 44.8991 26.3785 42.922 25.8594C42.922 25.8594 40.2124 29.8918 41.9192 30.7523H41.9121Z" fill="#F5A4B7"/>
<path d="M42.4819 35.0051C42.6526 32.0608 42.4676 30.738 42.1903 29.2374C41.8631 27.4595 38.7979 27.8862 37.6956 28.3413C36.5933 28.7965 34.7726 29.4935 36.067 31.7906C36.9702 33.3908 34.5522 35.3536 36.3728 36.2782C36.3728 36.2782 42.297 38.1059 42.4748 35.0123L42.4819 35.0051Z" fill="#EDEDED"/>
<path d="M37.6932 28.3346C37.6932 28.3346 40.481 30.7171 38.6249 37.3311C36.7687 43.938 35.6165 46.2209 35.6165 46.2209C35.6165 46.2209 33.0634 45.6946 32.1602 44.9407C31.257 44.1798 35.7446 35.482 35.709 33.6258C35.6734 31.7696 35.197 29.6716 36.342 28.8182C37.487 27.9648 37.6932 28.3417 37.6932 28.3417V28.3346Z" fill="#F5A4B7"/>
<path d="M36.9408 31.5723C37.019 31.2807 36.9266 30.3704 36.1371 30.0361C35.0775 29.581 32.7306 29.7801 31.7847 28.4929C30.8388 27.2127 31.2727 26.2242 31.4789 25.5272C31.6851 24.8303 32.0905 24.6454 32.1616 24.2258C32.2327 23.8062 31.7349 23.7421 31.1375 24.7805C30.8531 25.2783 29.1462 27.5683 29.9925 29.3036C31.102 31.5794 36.4927 33.3218 36.9408 31.5723Z" fill="#EE9D7F"/>
<path d="M37.2119 31.8069C37.2119 31.8069 37.7239 30.6406 36.0028 29.8298C34.2818 29.0191 33.4212 28.9053 33.4212 28.9053C33.4212 28.9053 32.582 29.8227 32.4611 31.7713C32.4611 31.7713 36.7282 33.5564 37.2119 31.8069Z" fill="#F5A4B7"/>
<path d="M39.7844 27.8644C39.7844 27.8644 42.7856 30.4531 41.285 43.8447C41.285 43.8447 43.3759 44.2927 44.6134 43.169C45.8508 42.0383 43.3972 30.4531 41.9891 28.4262C41.7686 28.1062 41.2423 27.8359 39.7844 27.8644Z" fill="#F5A4B7"/>
<path d="M37.9586 26.7617C37.9586 26.7617 38.5916 27.5796 38.0582 28.2125C37.5106 28.8597 40.3766 29.6491 40.1917 29.13C39.957 28.4614 39.5161 28.1272 39.6726 27.2595L37.9586 26.7617Z" fill="#CC7D60"/>
<path d="M39.0249 24.707C39.7361 25.1266 40.9096 27.4166 40.4117 28.0922C40.1984 28.3838 39.032 28.3696 38.0933 27.4593C37.7092 27.0823 37.1687 26.3427 37.4319 25.4182C37.5457 24.9986 38.2 24.2234 39.0249 24.7141V24.707Z" fill="#EE9D7F"/>
<path d="M39.6865 24.8635C39.8856 25.1408 39.8643 25.2191 38.9753 25.5604C38.0934 25.9018 37.9227 25.8805 38.065 26.0796C38.4775 26.6628 37.8018 26.677 38.3068 27.374C38.8188 28.0638 37.9441 27.7722 37.4676 27.2246C37.368 27.1108 36.8489 26.5845 37.0836 25.532C37.3538 24.3016 38.9682 23.8607 39.6936 24.8706L39.6865 24.8635Z" fill="#1F100B"/>
<path d="M37.0696 25.5243C36.7993 26.5057 37.3611 27.1102 37.4536 27.2169C37.8092 27.6294 38.3852 27.9068 38.4421 27.7147C38.5061 27.4943 37.9087 27.544 37.9514 26.968C37.9941 26.3919 37.6101 26.3564 37.5887 25.8657C37.5674 25.3749 37.9372 25.3892 38.94 24.998C39.3453 24.8415 39.388 24.6566 39.3027 24.5002C38.499 23.9952 37.354 24.4788 37.0696 25.5172V25.5243Z" fill="#1F100B"/>
<path d="M43.4837 17.6383C43.4837 21.4431 39.9206 24.5225 35.5326 24.5225C31.1446 24.5225 27.5816 21.4431 27.5816 17.6383C27.5816 13.8334 35.5255 1.4375 35.5255 1.4375C35.5255 1.4375 43.4766 13.8334 43.4766 17.6383H43.4837Z" fill="#F76275"/>
<path d="M35.5251 24.5232C39.9203 24.5232 43.4762 21.4438 43.4762 17.639C43.4762 16.0175 42.0254 12.8314 40.3683 9.70215C39.3513 13.6848 36.5493 19.3743 28.8827 21.4153C30.3051 23.2858 32.7444 24.5232 35.5251 24.5232Z" fill="#E84360"/>
</g>
<defs>
<clipPath id="clip0_2930_6783">
<rect width="68" height="54.309" fill="white" transform="translate(0 0.375)"/>
</clipPath>
</defs>
</svg>
