<svg width="20" height="20" viewBox="0 0 20 20" fill="none" xmlns="http://www.w3.org/2000/svg">
<path d="M6.16972 19.975C5.67326 19.975 5.25002 19.7982 4.90002 19.4447C4.55002 19.0912 4.37502 18.6661 4.37502 18.1697C4.37502 17.6732 4.55179 17.25 4.90532 16.9C5.25887 16.55 5.68387 16.375 6.18032 16.375C6.67679 16.375 7.10002 16.5518 7.45002 16.9053C7.80002 17.2589 7.97502 17.6839 7.97502 18.1803C7.97502 18.6768 7.79826 19.1 7.44472 19.45C7.09117 19.8 6.66617 19.975 6.16972 19.975ZM16.1697 19.975C15.6733 19.975 15.25 19.7982 14.9 19.4447C14.55 19.0912 14.375 18.6661 14.375 18.1697C14.375 17.6732 14.5518 17.25 14.9053 16.9C15.2589 16.55 15.6839 16.375 16.1803 16.375C16.6768 16.375 17.1 16.5518 17.45 16.9053C17.8 17.2589 17.975 17.6839 17.975 18.1803C17.975 18.6768 17.7983 19.1 17.4447 19.45C17.0912 19.8 16.6662 19.975 16.1697 19.975ZM4.87502 3.475L7.62502 9.175H14.825L17.95 3.475H4.87502ZM4.12502 1.975H18.8519C19.2346 1.975 19.5258 2.15 19.7255 2.5C19.9252 2.85 19.925 3.2 19.725 3.55L16.35 9.625C16.1667 9.94167 15.9287 10.1958 15.636 10.3875C15.3434 10.5792 15.023 10.675 14.675 10.675H7.10002L5.70002 13.275H17.975V14.775H5.92502C5.22502 14.775 4.72086 14.5417 4.41252 14.075C4.10419 13.6083 4.10836 13.0833 4.42502 12.5L6.02502 9.55L2.22502 1.5H0.275024V0H3.20002L4.12502 1.975Z" fill="#616161"/>
</svg>
