<svg width="32" height="32" viewBox="0 0 32 32" fill="none" xmlns="http://www.w3.org/2000/svg">
<circle cx="16" cy="16" r="16" fill="#760FB2"/>
<path d="M16.1005 24.4234C15.0884 23.245 14.8711 21.2818 14.8711 21.2818V15.3426C14.8711 15.3426 15.0734 14.3366 15.6016 13.5179C16.1298 12.7 16.9848 12.0703 16.9848 12.0703L17.0592 20.5693C17.0592 20.5693 17.0149 21.6929 17.416 22.4689C17.818 23.2441 18.6664 23.6709 18.6664 23.6709C18.8252 23.7737 18.9689 23.8991 19.0943 24.0437C19.2004 24.1821 19.2823 24.3398 19.3366 24.5079V25.9973C18.9188 25.9973 17.1126 25.6018 16.1005 24.4234Z" fill="white"/>
<path d="M11.804 12.8738C10.5094 12.2789 9 12.2458 9 12.2458V10.0187H10.7894C11.4956 10.1345 12.1868 10.3349 12.8496 10.6171C13.4639 10.9106 14.0372 11.2868 14.5562 11.738L14.8195 11.8695V6H16.3189C16.3189 6 16.629 6.02003 16.7836 6.17245C16.9382 6.32487 16.9374 6.60794 16.9374 6.60794V8.25409C16.9374 8.25409 17.8057 7.67576 18.5295 7.41882C18.9474 7.26553 19.3912 7.20108 19.8333 7.22808L19.8275 9.76786C19.4422 9.75044 19.0577 9.80705 18.6917 9.93334C17.9796 10.2086 17.2717 10.7817 16.5003 11.4523C15.0861 12.6813 14.1776 14.6253 14.1776 14.6253C14.1776 14.6253 13.0986 13.4686 11.804 12.8738Z" fill="white"/>
</svg>
