<svg width="20" height="20" viewBox="0 0 20 20" fill="none" xmlns="http://www.w3.org/2000/svg">
<mask id="mask0_3796_2848" style="mask-type:alpha" maskUnits="userSpaceOnUse" x="0" y="0" width="20" height="20">
<rect width="20" height="20" fill="#D9D9D9"/>
</mask>
<g mask="url(#mask0_3796_2848)">
<path d="M5.95898 17.5868C5.75065 17.3784 5.64648 17.1319 5.64648 16.8472C5.64648 16.5625 5.75065 16.3159 5.95898 16.1076L12.0632 10.0034L5.93815 3.87843C5.74371 3.68398 5.64648 3.44093 5.64648 3.14926C5.64648 2.85759 5.75065 2.60759 5.95898 2.39926C6.16732 2.19093 6.41385 2.08676 6.69857 2.08676C6.98329 2.08676 7.22982 2.19093 7.43815 2.39926L14.4382 9.4201C14.5215 9.50343 14.5805 9.59371 14.6152 9.69093C14.65 9.78815 14.6673 9.89232 14.6673 10.0034C14.6673 10.1145 14.65 10.2187 14.6152 10.3159C14.5805 10.4132 14.5215 10.5034 14.4382 10.5868L7.41732 17.6076C7.22287 17.802 6.98329 17.8993 6.69857 17.8993C6.41385 17.8993 6.16732 17.7951 5.95898 17.5868Z" fill="#919191"/>
</g>
</svg>
