<svg width="20" height="20" viewBox="0 0 20 20" fill="none" xmlns="http://www.w3.org/2000/svg">
<mask id="mask0_9812_6670" style="mask-type:alpha" maskUnits="userSpaceOnUse" x="0" y="0" width="20" height="20">
<rect width="20" height="20" fill="#D9D9D9"/>
</mask>
<g mask="url(#mask0_9812_6670)">
<path d="M12.7509 13.9219L13.9176 12.7552L10.8343 9.67187V5.83854H9.1676V10.3385L12.7509 13.9219ZM10.0009 18.3385C8.84816 18.3385 7.76482 18.1198 6.75094 17.6823C5.73705 17.2448 4.8551 16.651 4.1051 15.901C3.3551 15.151 2.76135 14.2691 2.32385 13.2552C1.88635 12.2413 1.6676 11.158 1.6676 10.0052C1.6676 8.85243 1.88635 7.7691 2.32385 6.75521C2.76135 5.74132 3.3551 4.85937 4.1051 4.10937C4.8551 3.35937 5.73705 2.76562 6.75094 2.32812C7.76482 1.89062 8.84816 1.67188 10.0009 1.67188C11.1537 1.67188 12.237 1.89062 13.2509 2.32812C14.2648 2.76562 15.1468 3.35937 15.8968 4.10937C16.6468 4.85937 17.2405 5.74132 17.678 6.75521C18.1155 7.7691 18.3343 8.85243 18.3343 10.0052C18.3343 11.158 18.1155 12.2413 17.678 13.2552C17.2405 14.2691 16.6468 15.151 15.8968 15.901C15.1468 16.651 14.2648 17.2448 13.2509 17.6823C12.237 18.1198 11.1537 18.3385 10.0009 18.3385Z" fill="#313131"/>
</g>
</svg>
