<svg width="80" height="80" viewBox="0 0 80 80" fill="none" xmlns="http://www.w3.org/2000/svg">
<path d="M35.0833 55.168L58.6666 31.5846L54.8333 27.8346L35.0833 47.5846L25.0833 37.5846L21.3333 41.3346L35.0833 55.168ZM40 73.3346C35.4444 73.3346 31.1388 72.4596 27.0833 70.7096C23.0277 68.9596 19.4861 66.5707 16.4583 63.543C13.4305 60.5152 11.0416 56.9735 9.29163 52.918C7.54163 48.8624 6.66663 44.5569 6.66663 40.0013C6.66663 35.3902 7.54163 31.0569 9.29163 27.0013C11.0416 22.9457 13.4305 19.418 16.4583 16.418C19.4861 13.418 23.0277 11.043 27.0833 9.29297C31.1388 7.54297 35.4444 6.66797 40 6.66797C44.6111 6.66797 48.9444 7.54297 53 9.29297C57.0555 11.043 60.5833 13.418 63.5833 16.418C66.5833 19.418 68.9583 22.9457 70.7083 27.0013C72.4583 31.0569 73.3333 35.3902 73.3333 40.0013C73.3333 44.5569 72.4583 48.8624 70.7083 52.918C68.9583 56.9735 66.5833 60.5152 63.5833 63.543C60.5833 66.5707 57.0555 68.9596 53 70.7096C48.9444 72.4596 44.6111 73.3346 40 73.3346Z" fill="#10B010"/>
</svg>
