<svg version="1.1" id="Layer_1" xmlns="http://www.w3.org/2000/svg" xmlns:xlink="http://www.w3.org/1999/xlink" x="0px" y="0px"
	 width="100%" viewBox="0 0 512 512" enable-background="new 0 0 512 512" xml:space="preserve">
<path fill="#4BAE4F" opacity="1.000000" stroke="none" 
	d="
M225.000000,1.000000 
	C246.020889,1.000000 267.041779,1.000000 288.413422,1.409991 
	C289.272247,2.186978 289.738464,2.785484 290.294739,2.886074 
	C298.031677,4.285154 305.817352,5.436485 313.520844,6.995415 
	C343.144470,12.990240 370.314545,24.973484 395.678284,41.196434 
	C416.395630,54.447491 434.556549,70.599380 450.776367,89.121094 
	C464.180328,104.427292 475.579254,121.050781 484.894684,139.011703 
	C498.588135,165.413773 507.687317,193.374161 511.094849,223.055832 
	C511.176514,223.767426 512.340698,224.354736 513.000000,225.000000 
	C513.000000,246.020889 513.000000,267.041779 512.585938,288.420044 
	C511.792023,289.452667 511.216705,290.085907 511.061279,290.809387 
	C508.073547,304.715454 505.932312,318.860565 502.023346,332.499817 
	C493.428894,362.487427 478.714081,389.401764 459.612610,414.115631 
	C445.437225,432.455963 429.160797,448.582245 410.774139,462.439575 
	C392.782379,475.999298 373.261902,487.188934 352.149506,495.365814 
	C332.526917,502.965668 312.430450,508.718658 291.444946,511.083405 
	C290.569092,511.182129 289.812286,512.337097 289.000000,513.000000 
	C267.979095,513.000000 246.958206,513.000000 225.585052,512.590332 
	C222.288666,511.465302 219.381058,510.476624 216.394638,510.077484 
	C191.120331,506.699829 167.231796,498.751770 144.447220,487.608551 
	C124.612923,477.908203 106.291908,465.812653 89.581131,451.225891 
	C75.423309,438.867584 62.408554,425.457153 51.281548,410.395599 
	C40.355904,395.606598 30.904793,379.862274 23.377378,362.959778 
	C13.174702,340.050049 5.812201,316.417084 2.917002,291.449707 
	C2.815088,290.570862 1.662763,289.813812 1.000005,289.000000 
	C1.000000,267.979095 1.000000,246.958206 1.413966,225.580902 
	C2.541434,221.945511 3.450510,218.695297 3.937263,215.382996 
	C7.590498,190.523163 15.400864,166.955551 26.349388,144.438995 
	C36.020744,124.549065 48.246960,106.325180 62.785900,89.584679 
	C75.000015,75.521042 88.348885,62.696491 103.200462,51.553585 
	C121.254929,38.007607 140.769638,26.856682 161.845825,18.619301 
	C181.443893,10.959631 201.563766,5.264395 222.552094,2.916312 
	C223.428558,2.818257 224.186722,1.662825 225.000000,1.000000 
M382.217407,172.383774 
	C374.324768,163.784637 365.206940,163.683777 356.675293,172.210617 
	C312.351379,216.509659 268.038727,260.819977 223.781219,305.185333 
	C222.422638,306.547211 221.711716,308.555206 220.187134,311.124237 
	C217.546249,307.902161 216.493866,306.373840 215.204636,305.081848 
	C195.780106,285.616058 176.354034,266.151550 156.860794,246.754654 
	C149.568024,239.497925 139.847626,239.136948 133.265244,245.660492 
	C126.778389,252.089462 127.082802,262.149597 134.195038,269.283722 
	C158.552429,293.715942 182.942764,318.115570 207.386246,342.461670 
	C214.961044,350.006287 224.039307,350.044556 231.655518,342.441986 
	C281.078735,293.107269 330.449799,243.720230 379.798920,194.311356 
	C386.254974,187.847504 387.029358,181.180405 382.217407,172.383774 
z"/>
<path fill="#FCFEFC" opacity="1.000000" stroke="none" 
	d="
M382.444916,172.672394 
	C387.029358,181.180405 386.254974,187.847504 379.798920,194.311356 
	C330.449799,243.720230 281.078735,293.107269 231.655518,342.441986 
	C224.039307,350.044556 214.961044,350.006287 207.386246,342.461670 
	C182.942764,318.115570 158.552429,293.715942 134.195038,269.283722 
	C127.082802,262.149597 126.778389,252.089462 133.265244,245.660492 
	C139.847626,239.136948 149.568024,239.497925 156.860794,246.754654 
	C176.354034,266.151550 195.780106,285.616058 215.204636,305.081848 
	C216.493866,306.373840 217.546249,307.902161 220.187134,311.124237 
	C221.711716,308.555206 222.422638,306.547211 223.781219,305.185333 
	C268.038727,260.819977 312.351379,216.509659 356.675293,172.210617 
	C365.206940,163.683777 374.324768,163.784637 382.444916,172.672394 
z"/>
</svg>