<svg width="20" height="18" viewBox="0 0 20 18" fill="none" xmlns="http://www.w3.org/2000/svg">
<path d="M6.1 10.34L8.93 7.51002L2.74 1.33002C2.26 0.850018 1.43 0.980018 1.13 1.60002C0.420002 3.09002 0.680002 4.92002 1.91 6.16002L6.1 10.34ZM12.88 8.53002C14.41 9.24002 16.56 8.74002 18.15 7.15002C20.06 5.24002 20.43 2.50002 18.96 1.03002C17.5 -0.429982 14.76 -0.0699815 12.84 1.84002C11.25 3.43002 10.75 5.58002 11.46 7.11002L2.4 16.17C2.01 16.56 2.01 17.19 2.4 17.58C2.79 17.97 3.42 17.97 3.81 17.58L10 11.41L16.18 17.59C16.57 17.98 17.2 17.98 17.59 17.59C17.98 17.2 17.98 16.57 17.59 16.18L11.41 10L12.88 8.53002Z" fill="#FAB000"/>
</svg>
