<svg width="20" height="18" viewBox="0 0 20 18" fill="none" xmlns="http://www.w3.org/2000/svg">
<path d="M6.1 10.34L8.93 7.50999L2.74 1.32999C2.26 0.849988 1.43 0.979988 1.13 1.59999C0.420002 3.08999 0.680002 4.91999 1.91 6.15999L6.1 10.34ZM12.88 8.52999C14.41 9.23999 16.56 8.73999 18.15 7.14999C20.06 5.23999 20.43 2.49999 18.96 1.02999C17.5 -0.430012 14.76 -0.070012 12.84 1.83999C11.25 3.42999 10.75 5.57999 11.46 7.10999L2.4 16.17C2.01 16.56 2.01 17.19 2.4 17.58C2.79 17.97 3.42 17.97 3.81 17.58L10 11.41L16.18 17.59C16.57 17.98 17.2 17.98 17.59 17.59C17.98 17.2 17.98 16.57 17.59 16.18L11.41 9.99999L12.88 8.52999Z" fill="#1BB333"/>
</svg>
