<svg width="36" height="36" viewBox="0 0 36 36" fill="none" xmlns="http://www.w3.org/2000/svg">
<circle cx="18" cy="18" r="18" fill="#1BB333" fill-opacity="0.1"/>
<g clip-path="url(#clip0_3747_10162)">
<path d="M14.1 19.34L16.93 16.51L10.74 10.33C10.26 9.84999 9.43 9.97999 9.13 10.6C8.42 12.09 8.68 13.92 9.91 15.16L14.1 19.34ZM20.88 17.53C22.41 18.24 24.56 17.74 26.15 16.15C28.06 14.24 28.43 11.5 26.96 10.03C25.5 8.56999 22.76 8.92999 20.84 10.84C19.25 12.43 18.75 14.58 19.46 16.11L10.4 25.17C10.01 25.56 10.01 26.19 10.4 26.58C10.79 26.97 11.42 26.97 11.81 26.58L18 20.41L24.18 26.59C24.57 26.98 25.2 26.98 25.59 26.59C25.98 26.2 25.98 25.57 25.59 25.18L19.41 19L20.88 17.53Z" fill="#1BB333"/>
</g>
<path d="M36 18C36 27.9411 27.9411 36 18 36C8.05887 36 0 27.9411 0 18C0 8.05887 8.05887 0 18 0C27.9411 0 36 8.05887 36 18ZM1.8 18C1.8 26.947 9.05299 34.2 18 34.2C26.947 34.2 34.2 26.947 34.2 18C34.2 9.05299 26.947 1.8 18 1.8C9.05299 1.8 1.8 9.05299 1.8 18Z" fill="#9EDBA7"/>
<path d="M18 0.900001C18 0.402944 18.4032 -0.0023473 18.8997 0.022492C22.144 0.18482 25.2901 1.22266 28.0003 3.03355C30.9604 5.01141 33.2675 7.82263 34.6298 11.1117C35.9922 14.4008 36.3487 18.02 35.6541 21.5116C34.9596 25.0033 33.2453 28.2106 30.7279 30.7279C28.2106 33.2453 25.0033 34.9596 21.5116 35.6541C18.02 36.3487 14.4008 35.9922 11.1117 34.6298C7.82263 33.2675 5.01141 30.9603 3.03355 28.0003C1.22266 25.2901 0.18482 22.144 0.0224919 18.8997C-0.00234732 18.4032 0.402944 18 0.900001 18C1.39706 18 1.79739 18.4033 1.82499 18.8996C1.98558 21.7876 2.91711 24.5861 4.53019 27.0002C6.31027 29.6643 8.84037 31.7407 11.8005 32.9668C14.7607 34.193 18.018 34.5138 21.1605 33.8887C24.303 33.2636 27.1895 31.7207 29.4551 29.4551C31.7207 27.1895 33.2636 24.303 33.8887 21.1605C34.5138 18.018 34.193 14.7607 32.9668 11.8005C31.7407 8.84037 29.6643 6.31027 27.0002 4.53019C24.5861 2.91711 21.7876 1.98558 18.8996 1.82499C18.4033 1.79739 18 1.39706 18 0.900001Z" fill="#1BBB33"/>
<defs>
<clipPath id="clip0_3747_10162">
<rect width="24" height="24" fill="white" transform="translate(6 6)"/>
</clipPath>
</defs>
</svg>
