<svg width="24" height="24" viewBox="0 0 24 24" fill="none" xmlns="http://www.w3.org/2000/svg">
<path d="M17.8275 22.3566C17.9062 22.6003 17.8762 22.8666 17.745 23.0878C17.6137 23.3091 17.4075 23.4553 17.16 23.5003C13.7212 24.1603 10.2375 24.1641 6.80248 23.5003C6.55498 23.4553 6.34498 23.3053 6.21748 23.0878C6.08623 22.8666 6.05998 22.6003 6.13498 22.3566L6.55498 21.0703C8.17873 21.9216 10.02 22.4053 11.9775 22.4053C13.935 22.4053 15.7762 21.9216 17.4 21.0703L17.8275 22.3566Z" fill="#313131"/>
<path d="M10.98 4.92335L10.2675 6.1196C10.1962 6.23585 10.0725 6.2996 9.94495 6.2996C9.87745 6.2996 9.8137 6.28085 9.74995 6.2471C9.5737 6.1421 9.5137 5.9096 9.6187 5.73335L10.335 4.5371C10.5375 4.20335 10.455 3.76835 10.1512 3.52085C9.57745 3.06335 9.41245 2.26085 9.7537 1.6121L10.4925 0.205853C10.59 0.0183535 10.8187 -0.0491465 10.9987 0.0483535C11.1825 0.145853 11.2537 0.370853 11.1562 0.554603L10.4175 1.96085C10.245 2.2946 10.3275 2.70335 10.6237 2.9396C11.22 3.4121 11.3737 4.2671 10.98 4.92335Z" fill="#313131"/>
<path d="M14.4375 4.92335L13.725 6.1196C13.6537 6.23585 13.5262 6.2996 13.3987 6.2996C13.3312 6.2996 13.2675 6.28085 13.2075 6.2471C13.0312 6.1421 12.9712 5.9096 13.0762 5.73335L13.7925 4.5371C13.9912 4.20335 13.9125 3.76835 13.6087 3.52085C13.035 3.06335 12.87 2.26085 13.2112 1.6121L13.95 0.205853C14.0475 0.0183535 14.2762 -0.0491465 14.4562 0.0483535C14.6362 0.145853 14.7112 0.370853 14.6137 0.554603L13.875 1.9571C13.7025 2.29085 13.785 2.6996 14.0812 2.93585C14.6737 3.4121 14.8275 4.2671 14.4375 4.92335Z" fill="#313131"/>
<path d="M17.895 4.92335L17.1825 6.1196C17.1075 6.23585 16.9837 6.2996 16.8562 6.2996C16.7887 6.2996 16.725 6.28085 16.665 6.2471C16.4887 6.1421 16.4287 5.9096 16.5337 5.73335L17.2462 4.5371C17.4487 4.20335 17.37 3.76835 17.0662 3.52085C16.4925 3.06335 16.3275 2.26085 16.6687 1.6121L17.4075 0.205853C17.505 0.0183535 17.73 -0.0491465 17.9137 0.0483535C18.0937 0.145853 18.1687 0.370853 18.0712 0.554603L17.3325 1.96085C17.1562 2.2946 17.2425 2.70335 17.535 2.9396C18.1312 3.4121 18.285 4.2671 17.895 4.92335Z" fill="#313131"/>
<path d="M11.0098 5.13794L10.3198 6.2967C10.2523 6.4092 10.1323 6.47295 10.0086 6.47295C9.94484 6.47295 9.88109 6.4542 9.82109 6.42045C9.64859 6.3192 9.59234 6.09419 9.69359 5.92169L10.3873 4.76294C10.5823 4.44044 10.5036 4.01669 10.2073 3.77669C9.65234 3.33419 9.49109 2.55419 9.82109 1.92419L10.5373 0.559195C10.6311 0.379195 10.8523 0.311695 11.0286 0.405445C11.2086 0.499195 11.2761 0.716695 11.1823 0.896695L10.4661 2.26169C10.2973 2.58419 10.3798 2.98169 10.6648 3.21044C11.2423 3.67169 11.3923 4.50044 11.0098 5.13794Z" fill="#313131"/>
<path d="M14.4375 4.92335L13.725 6.1196C13.6537 6.23585 13.5262 6.2996 13.3987 6.2996C13.3312 6.2996 13.2675 6.28085 13.2075 6.2471C13.0312 6.1421 12.9712 5.9096 13.0762 5.73335L13.7925 4.5371C13.9912 4.20335 13.9125 3.76835 13.6087 3.52085C13.035 3.06335 12.87 2.26085 13.2112 1.6121L13.95 0.205853C14.0475 0.0183535 14.2762 -0.0491465 14.4562 0.0483535C14.6362 0.145853 14.7112 0.370853 14.6137 0.554603L13.875 1.9571C13.7025 2.29085 13.785 2.6996 14.0812 2.93585C14.6737 3.4121 14.8275 4.2671 14.4375 4.92335Z" fill="#313131"/>
<path d="M17.895 4.92335L17.1825 6.1196C17.1075 6.23585 16.9837 6.2996 16.8562 6.2996C16.7887 6.2996 16.725 6.28085 16.665 6.2471C16.4887 6.1421 16.4287 5.9096 16.5337 5.73335L17.2462 4.5371C17.4487 4.20335 17.37 3.76835 17.0662 3.52085C16.4925 3.06335 16.3275 2.26085 16.6687 1.6121L17.4075 0.205853C17.505 0.0183535 17.73 -0.0491465 17.9137 0.0483535C18.0937 0.145853 18.1687 0.370853 18.0712 0.554603L17.3325 1.96085C17.1562 2.2946 17.2425 2.70335 17.535 2.9396C18.1312 3.4121 18.285 4.2671 17.895 4.92335Z" fill="#313131"/>
<path d="M1.33862 10.5111C1.33862 10.5073 1.33862 10.5036 1.33862 10.5036C1.33862 10.3986 1.52612 10.1736 2.11487 9.91109C2.70737 9.64484 3.69737 9.34484 5.30987 9.08984L7.07612 12.1461C2.82737 11.7111 1.35362 10.8598 1.33862 10.5111Z" fill="#313131"/>
<path d="M2.49741 2.76391C2.36991 2.53891 2.33616 2.27641 2.40366 2.02516C2.47116 1.77766 2.62866 1.57141 2.85366 1.44391C2.99991 1.35766 3.16491 1.31641 3.33741 1.31641C3.68241 1.31641 4.00116 1.50016 4.17366 1.79641L8.06991 8.54641C8.07366 8.55016 8.07741 8.55391 8.07741 8.55766L10.2712 12.3564C9.46866 12.3302 8.69616 12.2852 7.96116 12.2252L2.49741 2.76391Z" fill="#313131"/>
<path d="M14.4299 13.0872C17.5612 12.9447 21.3299 12.5059 22.9349 11.5234C22.4962 17.1822 17.7524 21.6522 11.9849 21.6522C6.21741 21.6522 1.47366 17.1822 1.03491 11.5234C2.08116 12.1647 4.04991 12.5697 6.16116 12.8172C6.69366 12.8847 7.18116 12.9297 7.57116 12.9597C8.47866 13.0422 9.44991 13.0947 10.4587 13.1172C10.5899 13.1209 10.7174 13.1247 10.8449 13.1284H10.8712C11.2612 13.1359 11.6324 13.1434 11.9774 13.1434C12.0899 13.1434 12.2099 13.1397 12.3262 13.1397H12.4574C12.5699 13.1397 12.6824 13.1359 12.7987 13.1359C12.8924 13.1322 12.9787 13.1322 13.0724 13.1284C13.2112 13.1247 13.3462 13.1247 13.4887 13.1172C13.6162 13.1134 13.7474 13.1097 13.8787 13.1059C14.0024 13.1022 14.1224 13.0984 14.2462 13.0909C14.3137 13.0947 14.3699 13.0909 14.4299 13.0872Z" fill="#313131"/>
<path d="M22.965 10.4544V10.4581C22.965 10.8481 21.7162 11.4294 19.29 11.8531C17.49 12.1681 15.0525 12.3969 11.985 12.3969C11.6887 12.3969 11.3887 12.3894 11.0962 12.3856L8.91748 8.60938C9.91498 8.55313 10.9387 8.51562 11.985 8.51562C19.185 8.51938 22.9537 9.77563 22.965 10.4544Z" fill="#313131"/>
</svg>
