<svg width="20" height="20" viewBox="0 0 20 20" fill="none" xmlns="http://www.w3.org/2000/svg">
<path d="M9.99723 13.2279C9.91574 13.2279 9.84028 13.214 9.77083 13.1862C9.70139 13.1584 9.63194 13.1098 9.5625 13.0404L6.41667 9.89453C6.29167 9.76953 6.23264 9.62023 6.23958 9.44661C6.24653 9.273 6.3125 9.1237 6.4375 8.9987C6.5625 8.8737 6.71181 8.8112 6.88542 8.8112C7.05903 8.8112 7.20833 8.8737 7.33333 8.9987L9.375 11.0612V3.95703C9.375 3.77995 9.43524 3.63151 9.55573 3.51172C9.67623 3.39193 9.82553 3.33203 10.0036 3.33203C10.1818 3.33203 10.3299 3.39193 10.4479 3.51172C10.566 3.63151 10.625 3.77995 10.625 3.95703V11.0612L12.6875 8.9987C12.8125 8.8737 12.9618 8.8112 13.1354 8.8112C13.309 8.8112 13.4583 8.8737 13.5833 8.9987C13.7083 9.1237 13.7708 9.273 13.7708 9.44661C13.7708 9.62023 13.7083 9.76953 13.5833 9.89453L10.4375 13.0404C10.3681 13.1098 10.2977 13.1584 10.2264 13.1862C10.1551 13.214 10.0787 13.2279 9.99723 13.2279ZM4.58333 16.6654C4.25 16.6654 3.95833 16.5404 3.70833 16.2904C3.45833 16.0404 3.33333 15.7487 3.33333 15.4154V13.0612C3.33333 12.8841 3.39358 12.7357 3.51406 12.6159C3.63456 12.4961 3.78387 12.4362 3.96198 12.4362C4.1401 12.4362 4.2882 12.4961 4.40625 12.6159C4.52431 12.7357 4.58333 12.8841 4.58333 13.0612V15.4154H15.4167V13.0612C15.4167 12.8841 15.4769 12.7357 15.5974 12.6159C15.7179 12.4961 15.8672 12.4362 16.0453 12.4362C16.2234 12.4362 16.3715 12.4961 16.4896 12.6159C16.6076 12.7357 16.6667 12.8841 16.6667 13.0612V15.4154C16.6667 15.7487 16.5417 16.0404 16.2917 16.2904C16.0417 16.5404 15.75 16.6654 15.4167 16.6654H4.58333Z" fill="#666666"/>
</svg>
