<svg width="28" height="28" viewBox="0 0 28 28" fill="none" xmlns="http://www.w3.org/2000/svg">
<circle cx="14" cy="14" r="14" fill="#F3F3F3"/>
<mask id="mask0_3796_2921" style="mask-type:alpha" maskUnits="userSpaceOnUse" x="6" y="6" width="16" height="16">
<rect x="6" y="6.00002" width="16" height="16" fill="#D9D9D9"/>
</mask>
<g mask="url(#mask0_3796_2921)">
<path d="M9.33378 20C8.76712 20 8.36434 19.7472 8.12545 19.2417C7.88656 18.7361 7.94489 18.2667 8.30045 17.8334L12.0004 13.3334V9.33336H11.3338C11.1449 9.33336 10.9866 9.26947 10.8588 9.14169C10.731 9.01391 10.6671 8.85558 10.6671 8.66669C10.6671 8.4778 10.731 8.31947 10.8588 8.19169C10.9866 8.06391 11.1449 8.00002 11.3338 8.00002H16.6671C16.856 8.00002 17.0143 8.06391 17.1421 8.19169C17.2699 8.31947 17.3338 8.4778 17.3338 8.66669C17.3338 8.85558 17.2699 9.01391 17.1421 9.14169C17.0143 9.26947 16.856 9.33336 16.6671 9.33336H16.0004V13.3334L19.7004 17.8334C20.056 18.2667 20.1143 18.7361 19.8754 19.2417C19.6366 19.7472 19.2338 20 18.6671 20H9.33378Z" fill="#919191"/>
</g>
</svg>
