<svg width="66" height="56" viewBox="0 0 66 56" fill="none" xmlns="http://www.w3.org/2000/svg">
<path d="M55.0544 21.4823C56.1532 11.8156 49.2076 3.0884 39.5409 1.98958C29.8742 0.890766 21.147 7.8364 20.0482 17.5031C18.9494 27.1698 25.895 35.897 35.5617 36.9958C45.2284 38.0946 53.9556 31.149 55.0544 21.4823Z" fill="#F2E2FD"/>
<path d="M58.8597 39.8894C62.795 39.8894 65.9851 36.6992 65.9851 32.764C65.9851 28.8287 62.795 25.6386 58.8597 25.6386C54.9245 25.6386 51.7344 28.8287 51.7344 32.764C51.7344 36.6992 54.9245 39.8894 58.8597 39.8894Z" fill="#E7EDF4"/>
<path d="M24.315 38.277L19.0832 29.2022L10.4834 34.582L15.8131 43.8526C15.9322 44.0864 16.0782 44.3055 16.2482 44.5053C17.7197 46.235 20.6547 46.1552 22.8036 44.3269C24.7972 42.6313 25.4137 40.0263 24.315 38.277Z" fill="#500B78"/>
<path d="M21.0943 40.9038C21.5667 40.5034 21.9816 40.0397 22.3272 39.5259C22.3025 39.4816 22.2808 39.4359 22.2547 39.3931L20.224 35.8685C19.9079 36.3037 19.541 36.6995 19.1311 37.0478C16.801 39.0298 13.6194 39.119 12.0195 37.2494L14.531 41.6174C16.2353 42.9315 19.0035 42.6821 21.0943 40.9038Z" fill="#760FB2"/>
<path style="mix-blend-mode:multiply" d="M19.3268 45.5206C19.1326 45.2916 18.9659 45.0407 18.8301 44.7729L12.7309 34.1635L19.5016 29.9282L19.0832 29.203L10.4834 34.5827L15.8131 43.8533C15.9322 44.0871 16.0782 44.3062 16.2482 44.506C16.6563 44.9576 17.1668 45.3047 17.7368 45.5181C18.3069 45.7315 18.9198 45.805 19.5241 45.7324C19.4559 45.6649 19.3899 45.5946 19.3268 45.5206Z" fill="url(#paint0_linear_6663_2853)"/>
<path d="M17.5491 35.2159C19.699 33.3876 20.249 30.5029 18.7776 28.7727C17.3063 27.0425 14.3707 27.122 12.2208 28.9502C10.0709 30.7784 9.5209 33.6631 10.9923 35.3934C12.4636 37.1236 15.3992 37.0441 17.5491 35.2159Z" fill="#3A1251"/>
<path style="mix-blend-mode:multiply" d="M17.299 34.9218C19.2471 33.2651 19.7456 30.6511 18.4123 29.0833C17.079 27.5155 14.4189 27.5875 12.4708 29.2442C10.5226 30.9008 10.0242 33.5148 11.3575 35.0827C12.6908 36.6505 15.3509 36.5785 17.299 34.9218Z" fill="url(#paint1_linear_6663_2853)"/>
<path d="M20.4029 34.099L20.3942 33.2533H20.1962C20.035 32.9318 19.7866 32.6619 19.4795 32.4746C19.1723 32.2873 18.8187 32.19 18.459 32.1939C18.0993 32.1978 17.7478 32.3026 17.4448 32.4964C17.1417 32.6903 16.8992 32.9654 16.7449 33.2903H16.5469L16.5556 34.1352C16.5486 34.3938 16.5939 34.651 16.6887 34.8917C16.7835 35.1323 16.9258 35.3513 17.1072 35.5357C17.2886 35.72 17.5053 35.8659 17.7443 35.9646C17.9834 36.0633 18.2399 36.1127 18.4985 36.11C18.7571 36.1072 19.0125 36.0524 19.2494 35.9487C19.4864 35.845 19.6999 35.6946 19.8774 35.5064C20.0548 35.3183 20.1925 35.0963 20.2822 34.8537C20.3719 34.6111 20.4117 34.3529 20.3993 34.0946L20.4029 34.099Z" fill="#D1DDE8"/>
<path d="M19.8309 34.6336C20.582 33.8825 20.582 32.6648 19.8309 31.9137C19.0798 31.1626 17.8621 31.1626 17.111 31.9137C16.3599 32.6648 16.3599 33.8825 17.111 34.6336C17.8621 35.3847 19.0798 35.3847 19.8309 34.6336Z" fill="#E7EDF4"/>
<path d="M16.5912 32.8603C16.5265 33.1456 16.5297 33.4423 16.6006 33.7262L20.3457 33.6863C20.4103 33.4009 20.4071 33.1043 20.3363 32.8204L16.5912 32.8603Z" fill="white"/>
<path d="M17.2459 30.1922L16.4699 29.8564L16.3916 30.0377C16.0322 30.0543 15.6848 30.1714 15.3888 30.3758C15.0928 30.5802 14.8601 30.8636 14.7173 31.1938C14.5746 31.524 14.5274 31.8876 14.5812 32.2433C14.635 32.5989 14.7876 32.9323 15.0216 33.2055L14.9433 33.3868L15.7193 33.7226C16.1874 33.9251 16.7169 33.9334 17.1911 33.7456C17.6654 33.5577 18.0456 33.1892 18.2481 32.721C18.4507 32.2529 18.4589 31.7234 18.2711 31.2492C18.0833 30.7749 17.7148 30.3947 17.2466 30.1922H17.2459Z" fill="#D1DDE8"/>
<path d="M17.4717 32.3853C17.3207 32.7344 17.0695 33.0309 16.75 33.2373C16.4304 33.4436 16.0568 33.5506 15.6765 33.5446C15.2962 33.5387 14.9261 33.4201 14.6132 33.2039C14.3002 32.9876 14.0584 32.6835 13.9183 32.3298C13.7783 31.9761 13.7462 31.5889 13.8262 31.217C13.9063 30.8451 14.0948 30.5053 14.3679 30.2405C14.6411 29.9758 14.9866 29.798 15.3608 29.7296C15.735 29.6612 16.1211 29.7053 16.4702 29.8564C16.702 29.9567 16.9118 30.1016 17.0876 30.283C17.2633 30.4644 17.4017 30.6786 17.4947 30.9134C17.5877 31.1482 17.6335 31.3991 17.6296 31.6516C17.6257 31.9042 17.572 32.1534 17.4717 32.3853Z" fill="#E7EDF4"/>
<path d="M14.5654 33.1685C14.8008 33.344 15.074 33.4617 15.3632 33.5123L16.8499 30.0747C16.6146 29.8991 16.3413 29.7814 16.0522 29.7309L14.5654 33.1685Z" fill="white"/>
<path d="M15.6697 35.6336L15.4746 34.8111L15.2824 34.8568C15.0541 34.5789 14.7524 34.3706 14.4115 34.2557C14.0706 34.1409 13.7044 34.1241 13.3544 34.2072C13.0044 34.2903 12.6849 34.4701 12.4321 34.726C12.1793 34.9819 12.0035 35.3036 11.9246 35.6546L11.7324 35.7003L11.9275 36.5227C12.0454 37.019 12.3557 37.4482 12.79 37.7158C13.2243 37.9834 13.7472 38.0675 14.2435 37.9496C14.7399 37.8317 15.169 37.5214 15.4366 37.0871C15.7042 36.6527 15.7883 36.1299 15.6704 35.6336H15.6697Z" fill="#D1DDE8"/>
<path d="M13.9613 37.1453C15.0049 36.9473 15.6903 35.9407 15.4923 34.8971C15.2942 33.8535 14.2877 33.1681 13.2441 33.3662C12.2005 33.5642 11.515 34.5708 11.7131 35.6143C11.9112 36.6579 12.9177 37.3434 13.9613 37.1453Z" fill="#E7EDF4"/>
<path d="M11.6807 35.2666C11.6807 35.5593 11.7492 35.8479 11.8808 36.1093L15.5244 35.2441C15.5244 34.9514 15.4558 34.6628 15.3242 34.4014L11.6807 35.2666Z" fill="white"/>
<path d="M19.0935 26.1642L18.8984 25.3418L18.7062 25.3875C18.478 25.1095 18.1762 24.9012 17.8353 24.7864C17.4945 24.6715 17.1282 24.6547 16.7782 24.7378C16.4283 24.821 16.1087 25.0007 15.8559 25.2566C15.6031 25.5125 15.4273 25.8343 15.3484 26.1852L15.1562 26.2309L15.3513 27.0533C15.4693 27.5497 15.7795 27.9788 16.2138 28.2464C16.6482 28.514 17.171 28.5981 17.6674 28.4802C18.1637 28.3623 18.5929 28.0521 18.8605 27.6177C19.128 27.1834 19.2121 26.6605 19.0942 26.1642H19.0935Z" fill="#D1DDE8"/>
<path d="M17.4689 27.6582C17.0988 27.746 16.711 27.7221 16.3544 27.5895C15.9979 27.4569 15.6887 27.2216 15.4659 26.9133C15.2432 26.6049 15.1168 26.2375 15.1029 25.8574C15.0889 25.4772 15.188 25.1015 15.3876 24.7777C15.5871 24.4539 15.8783 24.1965 16.2241 24.0381C16.57 23.8798 16.955 23.8275 17.3306 23.888C17.7061 23.9484 18.0553 24.1189 18.334 24.3778C18.6126 24.6367 18.8083 24.9724 18.8961 25.3425C18.9545 25.5883 18.9639 25.8431 18.9237 26.0925C18.8836 26.3419 18.7947 26.5809 18.6622 26.796C18.5296 27.011 18.356 27.1978 18.1513 27.3458C17.9465 27.4937 17.7147 27.5999 17.4689 27.6582Z" fill="#E7EDF4"/>
<path d="M15.1045 25.798C15.1045 26.0906 15.173 26.3793 15.3047 26.6407L18.9482 25.7755C18.9485 25.4828 18.8799 25.1941 18.7481 24.9328L15.1045 25.798Z" fill="white"/>
<path d="M14.4429 19.5146L14.2471 18.6922L14.0549 18.7379C13.8266 18.4599 13.5248 18.2516 13.184 18.1368C12.8431 18.0219 12.4768 18.0051 12.1269 18.0882C11.7769 18.1714 11.4573 18.3511 11.2045 18.607C10.9518 18.8629 10.7759 19.1847 10.6971 19.5356L10.5049 19.5813L10.7 20.4037C10.8179 20.9001 11.1281 21.3292 11.5625 21.5968C11.9968 21.8644 12.5196 21.9485 13.016 21.8306C13.5123 21.7127 13.9415 21.4025 14.2091 20.9681C14.4767 20.5338 14.5608 20.0109 14.4429 19.5146Z" fill="#D1DDE8"/>
<path d="M12.8202 21.0078C12.4501 21.0958 12.0622 21.072 11.7056 20.9396C11.349 20.8071 11.0398 20.5718 10.8169 20.2635C10.594 19.9553 10.4675 19.5878 10.4535 19.2077C10.4394 18.8275 10.5384 18.4518 10.7379 18.1279C10.9375 17.804 11.2286 17.5466 11.5744 17.3881C11.9202 17.2297 12.3053 17.1773 12.6808 17.2378C13.0564 17.2982 13.4057 17.4686 13.6844 17.7275C13.9631 17.9863 14.1588 18.3221 14.2467 18.6922C14.3646 19.1884 14.2805 19.7112 14.013 20.1454C13.7455 20.5797 13.3164 20.8899 12.8202 21.0078Z" fill="#E7EDF4"/>
<path d="M10.4541 19.1476C10.4541 19.4403 10.5227 19.7289 10.6543 19.9904L14.2978 19.1252C14.2978 18.8325 14.2293 18.5439 14.0976 18.2824L10.4541 19.1476Z" fill="white"/>
<path d="M11.2928 24.122L10.4951 23.2894L10.2775 23.5345C8.31938 22.8013 5.79776 23.7521 4.2639 25.9336C3.69386 26.6889 3.31634 27.5716 3.16395 28.5055C3.01156 29.4395 3.0889 30.3964 3.38928 31.2938L3.1717 31.5425L4.35239 32.7196C4.47136 32.8301 4.59758 32.9326 4.73023 33.0263C6.74419 34.4413 9.80247 33.5594 11.5597 31.0573C13.2567 28.6409 13.1559 26.0525 11.2928 24.122Z" fill="#D1DDE8"/>
<path d="M6.53109 33.6812C6.37424 33.6672 6.21847 33.643 6.06476 33.6087L3.14645 30.4061L2.55176 29.7534L2.76934 29.5532L3.08698 29.9013L6.53109 33.6812Z" fill="#E7EDF4"/>
<path d="M7.71515 33.6326C7.59766 33.6522 7.478 33.6703 7.35979 33.6812L3.78223 29.7548L3.99981 29.5547L7.71515 33.6326Z" fill="#E7EDF4"/>
<path d="M8.69589 33.3578C8.59581 33.3977 8.49428 33.4303 8.39202 33.4644L5.01172 29.7556L5.2293 29.5554L8.69589 33.3578Z" fill="#E7EDF4"/>
<path d="M9.54532 32.9422C9.45685 32.993 9.36766 33.0445 9.27918 33.0909L6.23828 29.7548L6.45586 29.5547L9.54532 32.9422Z" fill="#E7EDF4"/>
<path d="M10.2957 32.4186C10.2181 32.481 10.1405 32.5405 10.0607 32.5985L7.46875 29.7556L7.68631 29.5554L10.2957 32.4186Z" fill="#E7EDF4"/>
<path d="M10.9592 31.7971C10.8925 31.8696 10.8236 31.9421 10.7526 32.0081L8.69727 29.7556L8.91483 29.5554L10.9592 31.7971Z" fill="#E7EDF4"/>
<path d="M11.5521 31.0668C11.4941 31.1487 11.4346 31.2307 11.3722 31.3083L8.85352 28.5452L9.07108 28.345L11.5521 31.0668Z" fill="#E7EDF4"/>
<path d="M12.0626 30.2386C12.0162 30.3292 11.9647 30.4206 11.9118 30.5091L8.85352 27.1527L9.07108 26.9533L12.0626 30.2386Z" fill="#E7EDF4"/>
<path d="M12.4731 29.2965C12.4376 29.4009 12.4006 29.5054 12.3556 29.6069L8.85352 25.7632L9.07108 25.5638L12.4731 29.2965Z" fill="#E7EDF4"/>
<path d="M12.7313 28.1883C12.7158 28.3126 12.6958 28.4368 12.6711 28.5611L8.85352 24.3751L9.07108 24.1749L12.7313 28.1883Z" fill="#E7EDF4"/>
<path d="M12.7535 27.2586L9.14263 23.2988L8.85254 22.9812L9.0701 22.781L9.58503 23.3467L12.6875 26.7495C12.7205 26.9176 12.7426 27.0876 12.7535 27.2586Z" fill="#E7EDF4"/>
<path d="M10.4763 29.9735C12.234 27.471 12.0262 24.2956 10.0122 22.8809C7.9981 21.4661 4.94044 22.3479 3.18269 24.8503C1.42494 27.3527 1.63272 30.5282 3.64678 31.9429C5.66084 33.3576 8.7185 32.4759 10.4763 29.9735Z" fill="#E7EDF4"/>
<path d="M10.1026 29.224C11.4542 26.9327 11.0843 24.2641 9.27639 23.2635C7.46852 22.2629 4.90726 23.3092 3.55567 25.6005C2.20408 27.8918 2.57397 30.5604 4.38185 31.561C6.18973 32.5616 8.75098 31.5153 10.1026 29.224Z" stroke="white" stroke-miterlimit="10"/>
<path d="M51.6347 51.4058L25.1073 46.8797C24.7729 46.8226 24.4724 46.6416 24.2656 46.3728C24.0589 46.1039 23.9611 45.767 23.9919 45.4292L27.3584 7.60561C27.3886 7.2683 27.5447 6.95472 27.7956 6.72723C28.0464 6.49973 28.3737 6.37498 28.7124 6.37779L55.622 6.60842C55.8081 6.60999 55.9918 6.65008 56.1617 6.72618C56.3315 6.80227 56.4837 6.91271 56.6087 7.05055C56.7337 7.18838 56.8289 7.35061 56.8881 7.52702C56.9473 7.70343 56.9694 7.8902 56.9528 8.07556L53.2034 50.1954C53.1871 50.3809 53.1326 50.5609 53.0432 50.7242C52.9539 50.8875 52.8316 51.0306 52.6842 51.1443C52.5369 51.258 52.3675 51.34 52.1869 51.385C52.0062 51.43 51.8182 51.4371 51.6347 51.4058Z" fill="#C57FFA"/>
<path d="M51.5038 50.0649L25.4463 45.6214L28.6482 9.65005L55.0784 9.87632L51.5038 50.0649Z" fill="#E7EDF4"/>
<path style="mix-blend-mode:multiply" d="M51.5038 50.0649L25.4463 45.6214L28.6482 9.65005L55.0784 9.87632L51.5038 50.0649Z" fill="url(#paint2_linear_6663_2853)"/>
<path d="M55.0805 9.87632L28.6503 9.65005C28.6503 9.65005 25.1445 39.2604 22.9014 41.1584L49.2997 46.921L55.0805 9.87632Z" fill="white"/>
<path d="M22.9022 41.159C22.9022 41.159 20.0012 39.7565 20.2594 35.775L43.8069 41.3034C43.8069 41.3034 48.6754 50.9228 49.6812 44.4944L49.3027 46.9217L22.9022 41.159Z" fill="#E7EDF4"/>
<path d="M37.5186 8.93235C37.8775 8.85833 38.1085 8.50735 38.0344 8.14841C37.9604 7.78948 37.6094 7.55851 37.2505 7.63254C36.8916 7.70656 36.6606 8.05754 36.7346 8.41648C36.8086 8.77541 37.1596 9.00638 37.5186 8.93235Z" fill="#235196"/>
<path d="M46.9951 8.91599C47.3528 8.83592 47.5778 8.48109 47.4977 8.12346C47.4176 7.76582 47.0628 7.54081 46.7052 7.62089C46.3475 7.70096 46.1225 8.05579 46.2026 8.41342C46.2827 8.77106 46.6375 8.99606 46.9951 8.91599Z" fill="#235196"/>
<path d="M37.384 8.28153L37.1744 10.6385C37.1665 10.7276 37.1772 10.8173 37.2058 10.902C37.2345 10.9867 37.2805 11.0644 37.3408 11.1304C37.4012 11.1963 37.4747 11.2489 37.5565 11.2848C37.6384 11.3208 37.7268 11.3392 37.8162 11.3391L40.9652 11.334L40.9746 11.2223C40.9889 11.0546 41.0653 10.8983 41.1889 10.784C41.3124 10.6697 41.4742 10.6056 41.6426 10.6044H41.9436C42.0372 10.6038 42.1299 10.6227 42.2159 10.6599C42.3019 10.697 42.3792 10.7516 42.4429 10.8202C42.5067 10.8888 42.5555 10.9699 42.5863 11.0583C42.617 11.1468 42.6291 11.2407 42.6216 11.334V11.334L45.9896 11.3282C46.1502 11.3279 46.3049 11.2676 46.4233 11.159C46.5417 11.0504 46.6151 10.9015 46.6293 10.7415L46.8468 8.2692" stroke="#235196" stroke-width="3" stroke-linejoin="round"/>
<path d="M32.1631 15.5723L48.9043 16.0139" stroke="#E7EDF4" stroke-width="3" stroke-miterlimit="10" stroke-linecap="round"/>
<path d="M31.9395 18.0852L48.6806 18.5268" stroke="#E7EDF4" stroke-width="3" stroke-miterlimit="10" stroke-linecap="round"/>
<path d="M31.5264 20.5807L48.2676 21.0224" stroke="#E7EDF4" stroke-width="3" stroke-miterlimit="10" stroke-linecap="round"/>
<path d="M31.1133 23.0769L47.8545 23.5186" stroke="#E7EDF4" stroke-width="3" stroke-miterlimit="10" stroke-linecap="round"/>
<path d="M30.7002 25.5724L47.4414 26.0141" stroke="#E7EDF4" stroke-width="3" stroke-miterlimit="10" stroke-linecap="round"/>
<path d="M38.8014 31.8319C38.755 32.3531 38.5551 32.8488 38.2269 33.2564C37.8988 33.664 37.4572 33.9652 36.9579 34.1218C36.4586 34.2783 35.9241 34.2834 35.422 34.1362C34.9198 33.989 34.4726 33.6962 34.1369 33.2948C33.8011 32.8935 33.592 32.4016 33.5358 31.8813C33.4796 31.3611 33.579 30.8359 33.8213 30.3721C34.0637 29.9083 34.4381 29.5268 34.8973 29.2759C35.3564 29.0249 35.8797 28.9157 36.4009 28.9622C37.0997 29.0244 37.7452 29.3617 38.1954 29.8999C38.6456 30.438 38.8636 31.133 38.8014 31.8319Z" fill="#E7EDF4"/>
<path d="M31.277 33.2598C30.9097 32.8059 30.6403 32.2808 30.4858 31.7177C30.3313 31.1545 30.295 30.5655 30.3792 29.9876C30.422 29.7084 30.5337 29.3871 30.8064 29.3103C31.2067 29.1964 31.4953 29.6852 31.6237 30.0812L32.1219 31.6158C32.1423 31.716 32.1969 31.806 32.2764 31.8703C32.6818 32.1234 32.8725 30.9602 33.3178 31.1335C33.5608 31.2285 33.4846 31.6034 33.6297 31.821C33.7921 32.0654 34.1693 32.0233 34.4274 31.8819C34.6592 31.7019 34.9245 31.5698 35.2078 31.4932C35.4884 31.4642 35.7648 31.6179 36.0447 31.5875C36.5328 31.5345 36.915 30.9478 37.3871 31.0798" stroke="#D1DDE8" stroke-width="3" stroke-miterlimit="10" stroke-linecap="round"/>
<path d="M35.9727 47.6462L31.8643 46.0652C31.5057 45.9279 31.1073 45.9383 30.7564 46.0942C30.4055 46.2502 30.1308 46.5389 29.9924 46.897C29.8551 47.2556 29.8655 47.654 30.0215 48.0049C30.1774 48.3557 30.4661 48.6305 30.8243 48.7688L34.9327 50.3498C35.2913 50.4872 35.6897 50.4767 36.0405 50.3208C36.3914 50.1649 36.6661 49.8762 36.8045 49.518C36.9418 49.1594 36.9314 48.7611 36.7755 48.4102C36.6196 48.0593 36.3309 47.7845 35.9727 47.6462Z" fill="white"/>
<path d="M35.9737 47.6469L33.9199 46.8564L32.8799 49.5601L34.9337 50.3506C35.1135 50.431 35.3079 50.474 35.5049 50.4768C35.7018 50.4797 35.8974 50.4425 36.0795 50.3673C36.2615 50.2921 36.4264 50.1807 36.564 50.0397C36.7016 49.8987 36.8091 49.7312 36.8798 49.5473C36.9505 49.3634 36.983 49.1671 36.9754 48.9702C36.9677 48.7734 36.9201 48.5801 36.8353 48.4023C36.7505 48.2245 36.6304 48.0658 36.4822 47.9359C36.3341 47.806 36.1611 47.7077 35.9737 47.6469Z" fill="#760FB2"/>
<path style="mix-blend-mode:multiply" d="M35.935 49.542L30.6234 47.4983C30.3577 47.3965 30.1281 47.2183 29.9634 46.9863C29.8547 47.3372 29.8832 47.7163 30.0431 48.047C30.203 48.3777 30.4824 48.6355 30.825 48.7682L34.9334 50.3491C35.2767 50.4804 35.657 50.4764 35.9975 50.338C36.3379 50.1996 36.6131 49.9371 36.7675 49.6036C36.49 49.6657 36.2003 49.6442 35.935 49.542Z" fill="url(#paint3_linear_6663_2853)"/>
<path d="M42.1088 42.5827L37.8727 43.78C37.5032 43.8849 37.1904 44.1321 37.0029 44.4674C36.8154 44.8027 36.7685 45.1987 36.8726 45.5684C36.9775 45.938 37.2248 46.2508 37.56 46.4383C37.8953 46.6258 38.2913 46.6726 38.6611 46.5685L42.8971 45.3704C43.2665 45.2655 43.5792 45.0184 43.7667 44.6833C43.9542 44.3482 44.0011 43.9524 43.8972 43.5828C43.7923 43.2132 43.5451 42.9004 43.2098 42.7129C42.8745 42.5254 42.4786 42.4786 42.1088 42.5827Z" fill="white"/>
<path d="M42.1086 42.5827L39.9902 43.1817L40.7785 45.9695L42.8969 45.3705C43.2491 45.2511 43.5419 45.001 43.7149 44.6719C43.888 44.3429 43.9281 43.9599 43.8269 43.6021C43.7257 43.2444 43.491 42.9391 43.1713 42.7494C42.8515 42.5597 42.4711 42.5 42.1086 42.5827Z" fill="#760FB2"/>
<path style="mix-blend-mode:multiply" d="M43.2143 44.1238L37.738 45.6722C37.4645 45.7497 37.174 45.7447 36.9033 45.6577C37.0266 46.0038 37.2766 46.2903 37.6029 46.4593C37.9292 46.6282 38.3075 46.667 38.6613 46.5678L42.8973 45.3697C43.2506 45.269 43.5525 45.0379 43.7421 44.7232C43.9316 44.4085 43.9946 44.0336 43.9185 43.6742C43.7333 43.8903 43.4882 44.0468 43.2143 44.1238Z" fill="url(#paint4_linear_6663_2853)"/>
<path d="M20.2533 9.7269H18.7941V8.26773H17.1681V9.7269H15.709V11.3529H17.1681V12.812H18.7941V11.3529H20.2533V9.7269Z" fill="#C57FFA"/>
<path d="M24.3976 15.5897H23.407V14.599H22.3032V15.5897H21.3125V16.6935H22.3032V17.6841H23.407V16.6935H24.3976V15.5897Z" fill="#760FB2"/>
<path d="M63.2678 13.0064H62.2771V12.0157H61.1733V13.0064H60.1826V14.1102H61.1733V15.1008H62.2771V14.1102H63.2678V13.0064Z" fill="#C57FFA"/>
<path d="M57.5891 42.4862L64.5259 22.2987C64.5853 22.0822 64.5566 21.851 64.4461 21.6555C64.3357 21.46 64.1524 21.3161 63.9363 21.2551L52.2739 17.2475C52.066 17.1627 51.833 17.1635 51.6257 17.2498C51.4184 17.336 51.2536 17.5008 51.1672 17.7081L44.2304 37.8955C44.1711 38.1122 44.1999 38.3435 44.3105 38.539C44.4211 38.7345 44.6045 38.8784 44.8207 38.9391L56.4831 42.9468C56.691 43.0314 56.9238 43.0304 57.131 42.9442C57.3381 42.8579 57.5028 42.6933 57.5891 42.4862Z" fill="#551B77"/>
<g style="mix-blend-mode:multiply" opacity="0.6">
<path d="M55.6674 20.96L53.0065 20.0556C52.8914 20.0165 52.7696 20.0005 52.6483 20.0085C52.527 20.0166 52.4085 20.0484 52.2995 20.1023C52.1905 20.1562 52.0931 20.2311 52.0131 20.3226C51.9331 20.4141 51.8719 20.5206 51.833 20.6358C51.7941 20.7509 51.7782 20.8726 51.7862 20.9939C51.7943 21.1152 51.8262 21.2337 51.8801 21.3427C51.9339 21.4517 52.0087 21.5489 52.1002 21.629C52.1917 21.709 52.2981 21.7703 52.4133 21.8092L55.0741 22.7136C55.1892 22.7526 55.311 22.7686 55.4323 22.7606C55.5536 22.7526 55.6722 22.7207 55.7812 22.6668C55.8902 22.613 55.9874 22.5381 56.0675 22.4466C56.1475 22.355 56.2087 22.2486 56.2475 22.1334C56.2866 22.0182 56.3026 21.8965 56.2946 21.7752C56.2866 21.6539 56.2547 21.5353 56.2008 21.4263C56.1469 21.3173 56.0721 21.22 55.9805 21.14C55.889 21.06 55.7826 20.9988 55.6674 20.96Z" fill="#235196"/>
</g>
<g style="mix-blend-mode:multiply" opacity="0.6">
<path d="M61.6312 23.0102L58.9695 22.1058C58.8544 22.0668 58.7327 22.0508 58.6114 22.0588C58.4901 22.0668 58.3715 22.0987 58.2625 22.1525C58.1535 22.2064 58.0562 22.2813 57.9762 22.3728C57.8962 22.4644 57.835 22.5708 57.7961 22.686C57.7571 22.8011 57.7411 22.9229 57.7491 23.0442C57.7571 23.1655 57.7889 23.2841 57.8428 23.3931C57.8967 23.5021 57.9716 23.5993 58.0631 23.6794C58.1547 23.7594 58.2611 23.8206 58.3763 23.8594L61.0372 24.7638C61.1523 24.8029 61.274 24.8189 61.3954 24.8109C61.5167 24.8028 61.6352 24.771 61.7442 24.7171C61.8532 24.6632 61.9505 24.5883 62.0306 24.4968C62.1106 24.4053 62.1717 24.2988 62.2106 24.1836C62.2497 24.0685 62.2657 23.9469 62.2578 23.8256C62.2498 23.7043 62.218 23.5858 62.1642 23.4768C62.1103 23.3678 62.0356 23.2705 61.9441 23.1904C61.8527 23.1104 61.7463 23.0491 61.6312 23.0102Z" fill="#235196"/>
</g>
<g style="mix-blend-mode:multiply" opacity="0.6">
<path d="M54.5806 24.1067L51.9197 23.2024C51.8046 23.1633 51.6829 23.1473 51.5615 23.1553C51.4402 23.1633 51.3217 23.1952 51.2127 23.2491C51.1037 23.303 51.0064 23.3778 50.9264 23.4694C50.8463 23.5609 50.7852 23.6674 50.7463 23.7826C50.7072 23.8977 50.6913 24.0194 50.6993 24.1407C50.7073 24.2621 50.7391 24.3806 50.793 24.4896C50.8469 24.5986 50.9218 24.6959 51.0133 24.7759C51.1049 24.856 51.2113 24.9171 51.3265 24.956L53.9874 25.8603C54.1025 25.8993 54.2241 25.9152 54.3453 25.9072C54.4666 25.8991 54.5851 25.8672 54.694 25.8133C54.8029 25.7594 54.9001 25.6846 54.9801 25.5931C55.06 25.5017 55.1212 25.3953 55.1601 25.2802C55.1992 25.1651 55.2152 25.0434 55.2072 24.9221C55.1992 24.8008 55.1675 24.6823 55.1136 24.5733C55.0598 24.4643 54.985 24.367 54.8936 24.287C54.8021 24.2069 54.6958 24.1457 54.5806 24.1067Z" fill="#235196"/>
</g>
<g style="mix-blend-mode:multiply" opacity="0.6">
<path d="M60.5504 26.157L57.8895 25.2526C57.7744 25.2135 57.6526 25.1975 57.5313 25.2055C57.41 25.2135 57.2914 25.2454 57.1824 25.2993C57.0734 25.3532 56.9762 25.4281 56.8961 25.5196C56.8161 25.6111 56.7549 25.7176 56.7161 25.8328C56.677 25.9479 56.661 26.0696 56.669 26.1909C56.677 26.3123 56.7089 26.4308 56.7628 26.5398C56.8167 26.6488 56.8915 26.7461 56.9831 26.8261C57.0746 26.9062 57.1811 26.9674 57.2963 27.0062L59.9571 27.9106C60.0722 27.9496 60.194 27.9656 60.3153 27.9576C60.4366 27.9496 60.5552 27.9177 60.6642 27.8638C60.7732 27.81 60.8705 27.7351 60.9505 27.6436C61.0305 27.552 61.0917 27.4456 61.1306 27.3304C61.1696 27.2152 61.1856 27.0935 61.1776 26.9722C61.1696 26.8509 61.1377 26.7323 61.0838 26.6233C61.0299 26.5143 60.9551 26.417 60.8635 26.337C60.772 26.257 60.6656 26.1958 60.5504 26.157Z" fill="#235196"/>
</g>
<g style="mix-blend-mode:multiply" opacity="0.6">
<path d="M53.5035 27.2535L50.8426 26.3492C50.7275 26.3101 50.6058 26.2941 50.4844 26.3021C50.3631 26.3101 50.2446 26.342 50.1356 26.3959C50.0266 26.4498 49.9293 26.5246 49.8493 26.6162C49.7692 26.7077 49.708 26.8141 49.6692 26.9294C49.6301 27.0445 49.6141 27.1662 49.6221 27.2875C49.6301 27.4089 49.662 27.5274 49.7159 27.6364C49.7698 27.7454 49.8446 27.8427 49.9362 27.9227C50.0277 28.0027 50.1342 28.0639 50.2494 28.1028L52.911 29.0071C53.0261 29.0462 53.1478 29.0622 53.2692 29.0542C53.3905 29.0462 53.509 29.0143 53.618 28.9604C53.727 28.9065 53.8243 28.8317 53.9043 28.7401C53.9843 28.6486 54.0455 28.5422 54.0844 28.427C54.1235 28.3118 54.1394 28.19 54.1314 28.0687C54.1233 27.9473 54.0914 27.8287 54.0374 27.7197C53.9835 27.6107 53.9085 27.5134 53.8169 27.4334C53.7253 27.3534 53.6188 27.2923 53.5035 27.2535Z" fill="#235196"/>
</g>
<g style="mix-blend-mode:multiply" opacity="0.6">
<path d="M59.4693 29.303L56.8085 28.3986C56.6933 28.3596 56.5716 28.3437 56.4503 28.3518C56.329 28.3599 56.2105 28.3917 56.1015 28.4456C55.9925 28.4995 55.8952 28.5743 55.8152 28.6658C55.7352 28.7573 55.6739 28.8636 55.635 28.9788C55.5959 29.0939 55.5799 29.2157 55.5879 29.337C55.596 29.4583 55.6279 29.5769 55.6817 29.6859C55.7356 29.7949 55.8105 29.8921 55.902 29.9722C55.9935 30.0522 56.1 30.1134 56.2152 30.1522L58.876 31.0566C58.9912 31.0957 59.1129 31.1117 59.2342 31.1037C59.3556 31.0956 59.4741 31.0638 59.5831 31.0099C59.6921 30.956 59.7894 30.8811 59.8694 30.7896C59.9495 30.6981 60.0107 30.5916 60.0495 30.4764C60.0886 30.3613 60.1046 30.2396 60.0966 30.1182C60.0885 29.9969 60.0566 29.8784 60.0028 29.7694C59.9489 29.6604 59.874 29.5631 59.7825 29.483C59.691 29.403 59.5845 29.3418 59.4693 29.303Z" fill="#235196"/>
</g>
<g style="mix-blend-mode:multiply" opacity="0.6">
<path d="M52.3875 30.4989L49.7266 29.5946C49.6116 29.5556 49.4899 29.5397 49.3687 29.5478C49.2474 29.5559 49.129 29.5877 49.0201 29.6416C48.9111 29.6955 48.8139 29.7703 48.7339 29.8618C48.654 29.9533 48.5928 30.0596 48.5539 30.1748C48.5149 30.2899 48.4989 30.4116 48.5069 30.5329C48.5149 30.6543 48.5468 30.7728 48.6006 30.8818C48.6545 30.9908 48.7294 31.0881 48.821 31.1681C48.9125 31.2482 49.0189 31.3093 49.1341 31.3482L51.795 32.2525C51.9101 32.2915 52.0317 32.3074 52.153 32.2994C52.2742 32.2913 52.3927 32.2594 52.5016 32.2055C52.6105 32.1516 52.7077 32.0768 52.7877 31.9853C52.8677 31.8938 52.9288 31.7875 52.9677 31.6724C53.0068 31.5572 53.0228 31.4355 53.0147 31.3142C53.0067 31.1929 52.9749 31.0743 52.921 30.9653C52.8671 30.8563 52.7922 30.759 52.7007 30.679C52.6091 30.599 52.5027 30.5378 52.3875 30.4989Z" fill="#235196"/>
</g>
<g style="mix-blend-mode:multiply" opacity="0.6">
<path d="M58.3541 32.5499L55.6932 31.6455C55.5781 31.6064 55.4564 31.5904 55.335 31.5984C55.2137 31.6065 55.0952 31.6383 54.9862 31.6922C54.8772 31.7461 54.7799 31.821 54.6998 31.9125C54.6198 32.004 54.5586 32.1105 54.5198 32.2257C54.4807 32.3408 54.4647 32.4625 54.4727 32.5839C54.4807 32.7052 54.5126 32.8237 54.5665 32.9327C54.6204 33.0417 54.6952 33.139 54.7868 33.219C54.8783 33.2991 54.9848 33.3603 55.1 33.3991L57.7608 34.3035C57.8759 34.3426 57.9977 34.3585 58.119 34.3505C58.2403 34.3425 58.3589 34.3106 58.4679 34.2568C58.5769 34.2029 58.6742 34.128 58.7542 34.0365C58.8342 33.9449 58.8954 33.8385 58.9343 33.7233C58.9733 33.6081 58.9893 33.4864 58.9813 33.3651C58.9733 33.2438 58.9414 33.1252 58.8875 33.0162C58.8336 32.9072 58.7588 32.8099 58.6673 32.7299C58.5757 32.6499 58.4693 32.5887 58.3541 32.5499Z" fill="#235196"/>
</g>
<g style="mix-blend-mode:multiply" opacity="0.6">
<path d="M51.2815 33.7175L48.6199 32.8131C48.5048 32.774 48.3831 32.758 48.2617 32.7661C48.1404 32.7741 48.0219 32.8059 47.9129 32.8598C47.8039 32.9137 47.7066 32.9886 47.6266 33.0801C47.5466 33.1716 47.4854 33.2781 47.4465 33.3933C47.4074 33.5084 47.3915 33.6301 47.3995 33.7515C47.4075 33.8728 47.4393 33.9913 47.4932 34.1003C47.5471 34.2093 47.622 34.3066 47.7135 34.3866C47.8051 34.4667 47.9115 34.5279 48.0267 34.5667L50.6897 35.4689C50.8049 35.508 50.9266 35.524 51.0479 35.5159C51.1693 35.5079 51.2878 35.4761 51.3968 35.4222C51.5058 35.3683 51.6031 35.2934 51.6831 35.2019C51.7631 35.1103 51.8243 35.0039 51.8631 34.8887C51.9019 34.7736 51.9175 34.652 51.9093 34.5309C51.901 34.4097 51.869 34.2914 51.8149 34.1826C51.7609 34.0739 51.686 33.9768 51.5945 33.897C51.503 33.8172 51.3966 33.7562 51.2815 33.7175Z" fill="#235196"/>
</g>
<g style="mix-blend-mode:multiply" opacity="0.6">
<path d="M57.2476 35.7662L54.5868 34.8619C54.4716 34.8228 54.3499 34.8068 54.2286 34.8148C54.1073 34.8228 53.9887 34.8547 53.8797 34.9086C53.7707 34.9625 53.6734 35.0373 53.5934 35.1289C53.5134 35.2204 53.4522 35.3269 53.4133 35.4421C53.3742 35.5572 53.3583 35.6789 53.3663 35.8002C53.3743 35.9216 53.4062 36.0401 53.4601 36.1491C53.514 36.2581 53.5888 36.3554 53.6803 36.4354C53.7719 36.5154 53.8783 36.5766 53.9935 36.6155L56.6551 37.5198C56.7703 37.5589 56.892 37.5749 57.0133 37.5669C57.1346 37.5589 57.2532 37.527 57.3622 37.4731C57.4711 37.4192 57.5684 37.3444 57.6485 37.2528C57.7285 37.1613 57.7897 37.0549 57.8285 36.9396C57.8676 36.8245 57.8836 36.7027 57.8755 36.5813C57.8674 36.46 57.8355 36.3414 57.7815 36.2324C57.7276 36.1234 57.6527 36.0261 57.561 35.9461C57.4694 35.8661 57.3629 35.805 57.2476 35.7662Z" fill="#235196"/>
</g>
<g style="mix-blend-mode:multiply" opacity="0.6">
<path d="M50.2008 36.8642L47.5399 35.9599C47.4248 35.9208 47.303 35.9048 47.1817 35.9128C47.0604 35.9208 46.9419 35.9527 46.8329 36.0066C46.7239 36.0605 46.6265 36.1353 46.5465 36.2269C46.4665 36.3184 46.4053 36.4248 46.3664 36.5401C46.3274 36.6552 46.3114 36.7769 46.3194 36.8982C46.3274 37.0195 46.3593 37.1381 46.4132 37.2471C46.4671 37.3561 46.5419 37.4534 46.6335 37.5334C46.725 37.6134 46.8315 37.6746 46.9467 37.7135L49.6082 38.6178C49.7234 38.6569 49.8451 38.6729 49.9664 38.6649C50.0878 38.6569 50.2063 38.625 50.3153 38.5711C50.4243 38.5172 50.5216 38.4424 50.6016 38.3508C50.6816 38.2593 50.7428 38.1529 50.7817 38.0377C50.8207 37.9225 50.8367 37.8007 50.8286 37.6794C50.8206 37.558 50.7886 37.4394 50.7347 37.3304C50.6807 37.2214 50.6058 37.1241 50.5142 37.0441C50.4225 36.9641 50.3161 36.903 50.2008 36.8642Z" fill="#235196"/>
</g>
<g style="mix-blend-mode:multiply" opacity="0.6">
<path d="M56.1665 38.9152L53.5057 38.0108C53.3906 37.9717 53.2689 37.9557 53.1475 37.9637C53.0262 37.9718 52.9076 38.0036 52.7986 38.0575C52.6896 38.1114 52.5924 38.1863 52.5123 38.2778C52.4323 38.3693 52.3711 38.4758 52.3323 38.591C52.2932 38.7061 52.2772 38.8278 52.2852 38.9492C52.2932 39.0705 52.3251 39.189 52.379 39.298C52.4329 39.407 52.5077 39.5043 52.5993 39.5843C52.6908 39.6644 52.7972 39.7256 52.9124 39.7644L55.5733 40.6688C55.6884 40.7078 55.8102 40.7238 55.9315 40.7158C56.0528 40.7078 56.1714 40.6759 56.2804 40.622C56.3894 40.5682 56.4867 40.4933 56.5667 40.4018C56.6467 40.3102 56.7079 40.2038 56.7468 40.0886C56.7858 39.9734 56.8018 39.8517 56.7938 39.7304C56.7858 39.6091 56.7539 39.4905 56.7 39.3815C56.6461 39.2725 56.5713 39.1752 56.4798 39.0952C56.3882 39.0152 56.2818 38.954 56.1665 38.9152Z" fill="#235196"/>
</g>
<path d="M55.8414 20.4458L53.1805 19.5414C53.0654 19.5024 52.9437 19.4864 52.8223 19.4944C52.701 19.5024 52.5824 19.5343 52.4734 19.5882C52.3644 19.642 52.2672 19.7169 52.1871 19.8084C52.1071 19.9 52.0459 20.0064 52.0071 20.1216C51.968 20.2368 51.952 20.3585 51.96 20.4798C51.968 20.6011 51.9999 20.7197 52.0538 20.8287C52.1077 20.9377 52.1825 21.035 52.2741 21.115C52.3656 21.195 52.4721 21.2562 52.5873 21.295L55.2489 22.1994C55.364 22.2385 55.4857 22.2545 55.6071 22.2465C55.7284 22.2384 55.8469 22.2066 55.9559 22.1527C56.0649 22.0988 56.1622 22.0239 56.2422 21.9324C56.3222 21.8409 56.3834 21.7344 56.4223 21.6192C56.4613 21.504 56.4773 21.3823 56.4692 21.2609C56.4612 21.1396 56.4293 21.021 56.3753 20.912C56.3214 20.803 56.2464 20.7057 56.1548 20.6257C56.0632 20.5457 55.9567 20.4846 55.8414 20.4458Z" fill="white"/>
<path style="mix-blend-mode:multiply" d="M55.8645 21.6562L52.4241 20.4872C52.2516 20.4292 52.1002 20.3214 51.9889 20.1775C51.9278 20.4042 51.9552 20.6456 52.0657 20.8528C52.1761 21.06 52.3613 21.2173 52.5836 21.2929L55.2445 22.1973C55.4668 22.2727 55.7094 22.2607 55.9232 22.1637C56.137 22.0668 56.3058 21.892 56.3954 21.6751C56.2204 21.7212 56.0358 21.7146 55.8645 21.6562Z" fill="url(#paint5_linear_6663_2853)"/>
<path d="M61.8089 22.496L59.1473 21.5917C59.0322 21.5527 58.9106 21.5368 58.7893 21.5449C58.6681 21.5529 58.5496 21.5848 58.4407 21.6387C58.3318 21.6926 58.2346 21.7674 58.1546 21.8589C58.0747 21.9504 58.0135 22.0567 57.9747 22.1718C57.9357 22.2869 57.9198 22.4086 57.9278 22.5298C57.9359 22.6511 57.9678 22.7695 58.0217 22.8784C58.0755 22.9873 58.1504 23.0846 58.2419 23.1646C58.3334 23.2445 58.4397 23.3057 58.5548 23.3445L61.2164 24.2489C61.3315 24.288 61.4533 24.304 61.5746 24.296C61.6959 24.2879 61.8144 24.2561 61.9234 24.2022C62.0324 24.1483 62.1298 24.0734 62.2098 23.9819C62.2898 23.8904 62.351 23.7839 62.3898 23.6687C62.4288 23.5536 62.4447 23.4319 62.4366 23.3106C62.4284 23.1893 62.3964 23.0708 62.3425 22.9619C62.2885 22.853 62.2137 22.7558 62.1221 22.6758C62.0305 22.5959 61.9241 22.5348 61.8089 22.496Z" fill="white"/>
<path style="mix-blend-mode:multiply" d="M61.8312 23.7072L58.3907 22.5381C58.2182 22.4802 58.0668 22.3724 57.9555 22.2285C57.8946 22.455 57.9221 22.6963 58.0326 22.9033C58.143 23.1103 58.3281 23.2676 58.5502 23.3431L61.2111 24.2475C61.4333 24.323 61.6758 24.3111 61.8896 24.2143C62.1033 24.1174 62.2723 23.9429 62.362 23.7261C62.1871 23.7721 62.0024 23.7655 61.8312 23.7072Z" fill="url(#paint6_linear_6663_2853)"/>
<path d="M54.7432 23.6419L52.0817 22.7375C51.9665 22.6984 51.8448 22.6824 51.7235 22.6905C51.6021 22.6985 51.4836 22.7303 51.3746 22.7842C51.2656 22.8381 51.1683 22.913 51.0883 23.0045C51.0082 23.0961 50.9471 23.2025 50.9082 23.3177C50.8692 23.4328 50.8533 23.5544 50.8614 23.6757C50.8695 23.7969 50.9014 23.9154 50.9553 24.0243C51.0091 24.1332 51.0839 24.2304 51.1754 24.3104C51.2669 24.3904 51.3733 24.4515 51.4884 24.4904L54.15 25.3948C54.2651 25.4337 54.3868 25.4497 54.5081 25.4416C54.6294 25.4335 54.7479 25.4017 54.8569 25.3478C54.9659 25.2939 55.0632 25.2191 55.1432 25.1276C55.2233 25.0361 55.2845 24.9297 55.3234 24.8146C55.3624 24.6995 55.3783 24.5778 55.3702 24.4566C55.3622 24.3353 55.3302 24.2169 55.2764 24.108C55.2225 23.9991 55.1477 23.9018 55.0562 23.8219C54.9647 23.7419 54.8584 23.6807 54.7432 23.6419Z" fill="white"/>
<path style="mix-blend-mode:multiply" d="M54.7667 24.8566L51.3262 23.6876C51.1538 23.6296 51.0024 23.5218 50.8911 23.3779C50.8302 23.6045 50.8577 23.8457 50.9681 24.0528C51.0786 24.2598 51.2637 24.417 51.4858 24.4926L54.1466 25.3969C54.3689 25.4724 54.6116 25.4604 54.8254 25.3634C55.0391 25.2664 55.208 25.0917 55.2976 24.8748C55.1227 24.9211 54.938 24.9148 54.7667 24.8566Z" fill="url(#paint7_linear_6663_2853)"/>
<path d="M60.7105 25.6921L58.0496 24.7877C57.9345 24.7487 57.8128 24.7327 57.6915 24.7407C57.5702 24.7487 57.4516 24.7806 57.3426 24.8345C57.2336 24.8884 57.1363 24.9632 57.0563 25.0547C56.9763 25.1463 56.9151 25.2527 56.8762 25.3679C56.8371 25.4831 56.8211 25.6048 56.8292 25.7261C56.8372 25.8474 56.869 25.966 56.9229 26.075C56.9768 26.184 57.0517 26.2813 57.1432 26.3613C57.2348 26.4413 57.3412 26.5025 57.4564 26.5413L60.1173 27.4457C60.2324 27.4848 60.3541 27.5008 60.4754 27.4928C60.5968 27.4848 60.7153 27.4529 60.8243 27.399C60.9333 27.3451 61.0306 27.2702 61.1106 27.1787C61.1906 27.0872 61.2518 26.9807 61.2907 26.8655C61.3297 26.7504 61.3457 26.6287 61.3377 26.5074C61.3297 26.386 61.2979 26.2675 61.244 26.1585C61.1901 26.0495 61.1152 25.9522 61.0237 25.8722C60.9321 25.7921 60.8257 25.7309 60.7105 25.6921Z" fill="white"/>
<path style="mix-blend-mode:multiply" d="M60.7335 26.9033L57.293 25.7342C57.1206 25.6762 56.9692 25.5684 56.8579 25.4245C56.7969 25.6511 56.8245 25.8924 56.9349 26.0994C57.0454 26.3064 57.2304 26.4636 57.4526 26.5392L60.1134 27.4436C60.3356 27.5191 60.5782 27.5072 60.792 27.4103C61.0057 27.3135 61.1746 27.1389 61.2644 26.9221C61.0894 26.9681 60.9048 26.9616 60.7335 26.9033Z" fill="url(#paint8_linear_6663_2853)"/>
<path d="M53.6451 26.8387L50.9842 25.9343C50.8691 25.8952 50.7474 25.8792 50.626 25.8873C50.5047 25.8953 50.3862 25.9271 50.2772 25.981C50.1682 26.0349 50.0709 26.1098 49.9909 26.2013C49.9108 26.2929 49.8496 26.3993 49.8108 26.5145C49.7717 26.6296 49.7557 26.7514 49.7637 26.8727C49.7717 26.994 49.8036 27.1126 49.8575 27.2216C49.9114 27.3305 49.9862 27.4278 50.0778 27.5079C50.1693 27.5879 50.2758 27.6491 50.391 27.6879L53.0518 28.5923C53.167 28.6314 53.2887 28.6474 53.41 28.6393C53.5313 28.6313 53.6499 28.5995 53.7589 28.5456C53.8679 28.4917 53.9652 28.4168 54.0452 28.3253C54.1252 28.2337 54.1864 28.1273 54.2253 28.0121C54.2644 27.897 54.2803 27.7753 54.2723 27.6539C54.2643 27.5326 54.2324 27.4141 54.1785 27.3051C54.1246 27.1961 54.0498 27.0988 53.9583 27.0187C53.8667 26.9387 53.7603 26.8775 53.6451 26.8387Z" fill="white"/>
<path style="mix-blend-mode:multiply" d="M53.67 28.0498L50.2296 26.8807C50.0571 26.8227 49.9057 26.715 49.7944 26.5711C49.7335 26.7977 49.761 27.0389 49.8715 27.2459C49.9819 27.453 50.167 27.6102 50.3891 27.6858L53.05 28.5901C53.2722 28.6656 53.5147 28.6537 53.7285 28.5569C53.9422 28.46 54.1111 28.2855 54.2009 28.0687C54.0259 28.1147 53.8413 28.1081 53.67 28.0498Z" fill="url(#paint9_linear_6663_2853)"/>
<path d="M59.6126 28.8896L56.9481 27.9853C56.8329 27.9462 56.7112 27.9302 56.5899 27.9382C56.4685 27.9462 56.35 27.9781 56.241 28.032C56.132 28.0859 56.0347 28.1607 55.9547 28.2523C55.8747 28.3438 55.8135 28.4502 55.7747 28.5654C55.7356 28.6806 55.7196 28.8023 55.7276 28.9236C55.7356 29.0449 55.7675 29.1635 55.8214 29.2725C55.8752 29.3815 55.9501 29.4788 56.0417 29.5588C56.1332 29.6388 56.2396 29.7 56.3548 29.7388L59.0164 30.6432C59.1315 30.6823 59.2533 30.6983 59.3746 30.6903C59.4959 30.6822 59.6144 30.6504 59.7234 30.5965C59.8324 30.5426 59.9298 30.4677 60.0098 30.3762C60.0898 30.2847 60.151 30.1783 60.1898 30.063C60.229 29.9481 60.2451 29.8265 60.2373 29.7054C60.2294 29.5842 60.1978 29.4657 60.1442 29.3568C60.0906 29.2478 60.0161 29.1505 59.9248 29.0703C59.8336 28.9902 59.7275 28.9287 59.6126 28.8896Z" fill="white"/>
<path style="mix-blend-mode:multiply" d="M59.635 30.0993L56.1945 28.9302C56.0221 28.8723 55.8707 28.7645 55.7594 28.6205C55.6983 28.8472 55.7257 29.0887 55.8362 29.2958C55.9466 29.503 56.1318 29.6604 56.3541 29.7359L59.0157 30.6403C59.238 30.7158 59.4806 30.7038 59.6944 30.6068C59.9082 30.5098 60.077 30.3351 60.1666 30.1181C59.9914 30.1643 59.8065 30.1578 59.635 30.0993Z" fill="url(#paint10_linear_6663_2853)"/>
<path d="M52.5477 30.0348L49.8868 29.1304C49.7717 29.0915 49.6501 29.0755 49.5288 29.0836C49.4076 29.0917 49.2891 29.1236 49.1802 29.1775C49.0713 29.2313 48.9741 29.3061 48.8941 29.3976C48.8142 29.4891 48.753 29.5955 48.7141 29.7106C48.675 29.8257 48.659 29.9474 48.6671 30.0688C48.6751 30.1901 48.707 30.3086 48.7608 30.4176C48.8147 30.5266 48.8896 30.6239 48.9811 30.704C49.0726 30.784 49.1791 30.8452 49.2943 30.884L51.9559 31.7884C52.071 31.8275 52.1928 31.8434 52.3141 31.8354C52.4354 31.8274 52.5539 31.7956 52.6629 31.7417C52.7719 31.6878 52.8692 31.6129 52.9492 31.5214C53.0293 31.4298 53.0905 31.3234 53.1293 31.2082C53.1684 31.093 53.1843 30.9712 53.1762 30.8498C53.1681 30.7284 53.1361 30.6098 53.082 30.5008C53.028 30.3918 52.953 30.2945 52.8613 30.2145C52.7696 30.1346 52.663 30.0735 52.5477 30.0348Z" fill="white"/>
<path style="mix-blend-mode:multiply" d="M52.5704 31.2459L49.1299 30.0769C48.9575 30.0189 48.8061 29.9111 48.6948 29.7672C48.6339 29.9938 48.6614 30.235 48.7719 30.442C48.8823 30.649 49.0674 30.8063 49.2895 30.8818L51.9511 31.7862C52.1733 31.8617 52.4158 31.8498 52.6296 31.753C52.8433 31.6562 53.0123 31.4816 53.102 31.2648C52.9268 31.311 52.7419 31.3044 52.5704 31.2459Z" fill="url(#paint11_linear_6663_2853)"/>
<path d="M58.5142 32.0857L55.8533 31.1814C55.7382 31.1423 55.6165 31.1263 55.4952 31.1343C55.3739 31.1423 55.2553 31.1742 55.1463 31.2281C55.0373 31.282 54.94 31.3568 54.86 31.4484C54.78 31.5399 54.7188 31.6463 54.6799 31.7616C54.6408 31.8767 54.6249 31.9984 54.6329 32.1197C54.6409 32.241 54.6727 32.3596 54.7266 32.4686C54.7805 32.5776 54.8554 32.6749 54.9469 32.7549C55.0385 32.8349 55.1449 32.8961 55.2601 32.935L57.921 33.8393C58.0361 33.8784 58.1578 33.8944 58.2792 33.8864C58.4005 33.8784 58.519 33.8465 58.628 33.7926C58.737 33.7387 58.8343 33.6639 58.9144 33.5723C58.9944 33.4808 59.0555 33.3744 59.0944 33.2592C59.1335 33.144 59.1494 33.0223 59.1414 32.901C59.1334 32.7796 59.1016 32.6611 59.0477 32.5521C58.9938 32.4431 58.9189 32.3458 58.8274 32.2658C58.7358 32.1858 58.6294 32.1246 58.5142 32.0857Z" fill="white"/>
<path style="mix-blend-mode:multiply" d="M58.5372 33.2954L55.0967 32.1263C54.9243 32.0683 54.7729 31.9606 54.6616 31.8167C54.6007 32.0433 54.6282 32.2847 54.7386 32.4918C54.849 32.699 55.0341 32.8563 55.2563 32.932L57.9172 33.8364C58.1395 33.9119 58.3821 33.8999 58.5959 33.8029C58.8097 33.7059 58.9785 33.5312 59.0681 33.3143C58.8931 33.3602 58.7085 33.3536 58.5372 33.2954Z" fill="url(#paint12_linear_6663_2853)"/>
<path d="M51.4497 33.2308L48.7889 32.3265C48.6737 32.2874 48.552 32.2714 48.4307 32.2794C48.3094 32.2874 48.1908 32.3193 48.0818 32.3732C47.9728 32.4271 47.8755 32.5019 47.7955 32.5935C47.7155 32.685 47.6543 32.7914 47.6155 32.9067C47.5764 33.0218 47.5604 33.1435 47.5684 33.2648C47.5764 33.3862 47.6083 33.5047 47.6622 33.6137C47.7161 33.7227 47.7909 33.82 47.8825 33.9C47.974 33.9801 48.0804 34.0412 48.1956 34.0801L50.8565 34.9844C50.9717 35.0235 51.0933 35.0395 51.2147 35.0315C51.336 35.0235 51.4546 34.9916 51.5636 34.9377C51.6725 34.8838 51.7698 34.809 51.8499 34.7174C51.9299 34.6259 51.9911 34.5195 52.0299 34.4043C52.069 34.2891 52.085 34.1674 52.077 34.0461C52.069 33.9248 52.0371 33.8062 51.9832 33.6972C51.9293 33.5882 51.8545 33.4909 51.7629 33.4109C51.6714 33.3309 51.565 33.2697 51.4497 33.2308Z" fill="white"/>
<path style="mix-blend-mode:multiply" d="M51.471 34.4413L48.0305 33.2722C47.8581 33.2143 47.7066 33.1065 47.5954 32.9625C47.5342 33.1892 47.5617 33.4306 47.6721 33.6378C47.7826 33.845 47.9678 34.0024 48.1901 34.0779L50.8509 34.9823C51.0732 35.0577 51.3159 35.0458 51.5296 34.9488C51.7434 34.8518 51.9123 34.6771 52.0019 34.4601C51.8269 34.5061 51.6422 34.4996 51.471 34.4413Z" fill="url(#paint13_linear_6663_2853)"/>
<path d="M57.4146 35.2818L54.7537 34.3774C54.6386 34.3384 54.5169 34.3224 54.3955 34.3304C54.2742 34.3384 54.1557 34.3703 54.0467 34.4242C53.9377 34.478 53.8404 34.5529 53.7603 34.6444C53.6803 34.736 53.6192 34.8424 53.5803 34.9576C53.5412 35.0728 53.5252 35.1945 53.5333 35.3158C53.5413 35.4371 53.5731 35.5557 53.627 35.6647C53.6809 35.7737 53.7558 35.871 53.8473 35.951C53.9389 36.031 54.0453 36.0922 54.1605 36.131L56.8221 37.0354C56.9372 37.0745 57.0589 37.0905 57.1803 37.0825C57.3016 37.0744 57.4201 37.0426 57.5291 36.9887C57.6381 36.9348 57.7354 36.8599 57.8155 36.7684C57.8955 36.6769 57.9566 36.5704 57.9955 36.4552C58.0345 36.34 58.0505 36.2183 58.0424 36.0969C58.0344 35.9756 58.0025 35.857 57.9485 35.748C57.8945 35.639 57.8196 35.5417 57.728 35.4617C57.6364 35.3817 57.5299 35.3206 57.4146 35.2818Z" fill="white"/>
<path style="mix-blend-mode:multiply" d="M57.4376 36.4914L53.9963 35.3224C53.8239 35.2645 53.6724 35.1567 53.5612 35.0127C53.5 35.2394 53.5275 35.4808 53.6379 35.688C53.7484 35.8952 53.9336 36.0525 54.1559 36.1281L56.8167 37.0325C57.039 37.1079 57.2817 37.0959 57.4955 36.9989C57.7092 36.9019 57.878 36.7273 57.9677 36.5103C57.7929 36.5562 57.6086 36.5496 57.4376 36.4914Z" fill="url(#paint14_linear_6663_2853)"/>
<path d="M50.3511 36.4269L47.6902 35.5226C47.5751 35.4835 47.4534 35.4675 47.3321 35.4755C47.2108 35.4835 47.0922 35.5154 46.9832 35.5693C46.8742 35.6232 46.7769 35.698 46.6969 35.7896C46.6169 35.8811 46.5557 35.9876 46.5168 36.1028C46.4778 36.2179 46.4618 36.3396 46.4698 36.4609C46.4778 36.5823 46.5097 36.7008 46.5636 36.8098C46.6175 36.9188 46.6923 37.0161 46.7838 37.0961C46.8754 37.1762 46.9818 37.2373 47.097 37.2762L49.7579 38.1805C49.873 38.2196 49.9947 38.2356 50.1161 38.2276C50.2374 38.2196 50.3559 38.1877 50.4649 38.1338C50.5739 38.0799 50.6712 38.0051 50.7513 37.9135C50.8313 37.822 50.8925 37.7156 50.9313 37.6004C50.9704 37.4852 50.9864 37.3635 50.9784 37.2422C50.9704 37.1209 50.9385 37.0023 50.8846 36.8933C50.8307 36.7843 50.7559 36.687 50.6643 36.607C50.5728 36.527 50.4663 36.4658 50.3511 36.4269Z" fill="white"/>
<path style="mix-blend-mode:multiply" d="M50.3733 37.6374L46.9328 36.4683C46.7604 36.4104 46.609 36.3026 46.4977 36.1586C46.4366 36.3853 46.464 36.6268 46.5745 36.8339C46.6849 37.0411 46.8701 37.1985 47.0924 37.274L49.7533 38.1784C49.9755 38.2538 50.2182 38.2419 50.432 38.1449C50.6457 38.0479 50.8146 37.8732 50.9042 37.6562C50.7292 37.7023 50.5446 37.6958 50.3733 37.6374Z" fill="url(#paint15_linear_6663_2853)"/>
<path d="M56.3169 38.4772L53.6561 37.5728C53.5409 37.5338 53.4192 37.5178 53.2979 37.5258C53.1766 37.5338 53.058 37.5657 52.949 37.6196C52.84 37.6735 52.7428 37.7483 52.6627 37.8398C52.5827 37.9314 52.5215 38.0378 52.4827 38.153C52.4436 38.2682 52.4276 38.3899 52.4356 38.5112C52.4436 38.6325 52.4755 38.7511 52.5294 38.8601C52.5832 38.9691 52.6581 39.0664 52.7497 39.1464C52.8412 39.2264 52.9476 39.2876 53.0628 39.3264L55.7237 40.2308C55.8388 40.2698 55.9604 40.2857 56.0817 40.2776C56.2029 40.2695 56.3214 40.2377 56.4303 40.1838C56.5392 40.1299 56.6364 40.0551 56.7164 39.9636C56.7964 39.8721 56.8576 39.7658 56.8964 39.6506C56.9355 39.5355 56.9515 39.4139 56.9435 39.2926C56.9356 39.1713 56.9038 39.0528 56.85 38.9438C56.7961 38.8348 56.7213 38.7375 56.6299 38.6574C56.5384 38.5774 56.4321 38.5161 56.3169 38.4772Z" fill="white"/>
<path style="mix-blend-mode:multiply" d="M56.3401 39.6876L52.8996 38.5186C52.7271 38.4607 52.5757 38.3529 52.4645 38.2089C52.4034 38.4356 52.4308 38.677 52.5413 38.8842C52.6517 39.0914 52.8369 39.2487 53.0592 39.3243L55.7201 40.2287C55.9423 40.3041 56.185 40.2921 56.3988 40.1951C56.6125 40.0981 56.7814 39.9234 56.871 39.7065C56.696 39.7525 56.5114 39.7459 56.3401 39.6876Z" fill="url(#paint16_linear_6663_2853)"/>
<path d="M58.86 46.4438C58.8601 46.6911 58.7869 46.9329 58.6496 47.1386C58.5123 47.3443 58.3171 47.5047 58.0886 47.5994C57.8602 47.6942 57.6088 47.719 57.3662 47.6709C57.1236 47.6227 56.9008 47.5037 56.7258 47.3289C56.5509 47.154 56.4317 46.9312 56.3834 46.6887C56.3351 46.4461 56.3599 46.1947 56.4545 45.9662C56.5491 45.7377 56.7094 45.5424 56.915 45.405C57.1206 45.2676 57.3623 45.1942 57.6097 45.1942C57.9411 45.1942 58.259 45.3259 58.4935 45.5602C58.7279 45.7945 58.8598 46.1123 58.86 46.4438Z" fill="#760FB2"/>
<path d="M10.5431 42.2773C10.5429 42.5244 10.4695 42.7659 10.3322 42.9713C10.1948 43.1767 9.99965 43.3367 9.77135 43.4312C9.54306 43.5257 9.29188 43.5504 9.04956 43.5021C8.80723 43.4539 8.58465 43.3349 8.40993 43.1602C8.23522 42.9855 8.11623 42.7629 8.06799 42.5206C8.01975 42.2782 8.04444 42.027 8.13893 41.7987C8.23341 41.5704 8.39345 41.3753 8.59883 41.2379C8.80421 41.1006 9.04571 41.0272 9.29279 41.027C9.62439 41.027 9.94241 41.1588 10.1769 41.3932C10.4114 41.6277 10.5431 41.9457 10.5431 42.2773Z" fill="#C57FFA"/>
<path d="M60.709 49.072C60.709 49.203 60.6702 49.3311 60.5974 49.44C60.5246 49.5489 60.4212 49.6337 60.3001 49.6838C60.1791 49.7339 60.0459 49.747 59.9175 49.7214C59.789 49.6958 59.671 49.6326 59.5784 49.54C59.4859 49.4473 59.4229 49.3292 59.3974 49.2008C59.3719 49.0723 59.3852 48.9391 59.4354 48.8181C59.4856 48.6972 59.5706 48.5938 59.6795 48.5211C59.7885 48.4484 59.9166 48.4097 60.0476 48.4099C60.2231 48.4101 60.3913 48.4799 60.5153 48.6041C60.6394 48.7282 60.709 48.8966 60.709 49.072Z" fill="#760FB2"/>
<path d="M7.26568 40.1024C7.26568 40.2333 7.22685 40.3613 7.15409 40.4702C7.08134 40.5791 6.97791 40.664 6.85692 40.7141C6.73593 40.7642 6.60281 40.7773 6.47437 40.7518C6.34593 40.7262 6.22795 40.6632 6.13534 40.5706C6.04274 40.478 5.97967 40.36 5.95413 40.2315C5.92858 40.1031 5.9417 39.97 5.99182 39.849C6.04193 39.728 6.12678 39.6246 6.23567 39.5518C6.34456 39.4791 6.47257 39.4402 6.60353 39.4402C6.77914 39.4402 6.94756 39.51 7.07174 39.6342C7.19591 39.7583 7.26568 39.9268 7.26568 40.1024Z" fill="#C57FFA"/>
<path opacity="0.7" d="M35.4524 55.9602C50.814 55.9602 63.2671 55.481 63.2671 54.8898C63.2671 54.2986 50.814 53.8193 35.4524 53.8193C20.0908 53.8193 7.6377 54.2986 7.6377 54.8898C7.6377 55.481 20.0908 55.9602 35.4524 55.9602Z" fill="#E7EDF4"/>
<defs>
<linearGradient id="paint0_linear_6663_2853" x1="25.7532" y1="40.4614" x2="5.44421" y2="37.9078" gradientUnits="userSpaceOnUse">
<stop offset="0.002" stop-color="white" stop-opacity="0"/>
<stop offset="1" stop-color="#235196"/>
</linearGradient>
<linearGradient id="paint1_linear_6663_2853" x1="4.36013" y1="31.729" x2="19.934" y2="35.6609" gradientUnits="userSpaceOnUse">
<stop offset="0.002" stop-color="white" stop-opacity="0"/>
<stop offset="1" stop-color="#235196"/>
</linearGradient>
<linearGradient id="paint2_linear_6663_2853" x1="49.3594" y1="28.4834" x2="0.910878" y2="28.4834" gradientUnits="userSpaceOnUse">
<stop offset="0.002" stop-color="white" stop-opacity="0"/>
<stop offset="1" stop-color="#235196"/>
</linearGradient>
<linearGradient id="paint3_linear_6663_2853" x1="37.8666" y1="36.7388" x2="39.0909" y2="44.768" gradientUnits="userSpaceOnUse">
<stop stop-color="white" stop-opacity="0"/>
<stop offset="0.002" stop-color="white" stop-opacity="0"/>
<stop offset="1" stop-color="#760FB2"/>
</linearGradient>
<linearGradient id="paint4_linear_6663_2853" x1="42.9423" y1="30.8997" x2="43.7761" y2="38.8142" gradientUnits="userSpaceOnUse">
<stop stop-color="white" stop-opacity="0"/>
<stop offset="0.002" stop-color="white" stop-opacity="0"/>
<stop offset="1" stop-color="#5E2C7B"/>
</linearGradient>
<linearGradient id="paint5_linear_6663_2853" x1="56.5818" y1="12.2023" x2="57.2486" y2="17.3014" gradientUnits="userSpaceOnUse">
<stop offset="0.002" stop-color="white" stop-opacity="0"/>
<stop offset="1" stop-color="#235196"/>
</linearGradient>
<linearGradient id="paint6_linear_6663_2853" x1="62.8902" y1="12.2289" x2="63.5566" y2="17.3245" gradientUnits="userSpaceOnUse">
<stop offset="0.002" stop-color="white" stop-opacity="0"/>
<stop offset="1" stop-color="#235196"/>
</linearGradient>
<linearGradient id="paint7_linear_6663_2853" x1="56.5713" y1="15.5896" x2="57.2366" y2="20.6841" gradientUnits="userSpaceOnUse">
<stop offset="0.002" stop-color="white" stop-opacity="0"/>
<stop offset="1" stop-color="#235196"/>
</linearGradient>
<linearGradient id="paint8_linear_6663_2853" x1="62.8799" y1="15.607" x2="63.5463" y2="20.7046" gradientUnits="userSpaceOnUse">
<stop offset="0.002" stop-color="white" stop-opacity="0"/>
<stop offset="1" stop-color="#235196"/>
</linearGradient>
<linearGradient id="paint9_linear_6663_2853" x1="56.562" y1="18.9665" x2="57.2273" y2="24.0612" gradientUnits="userSpaceOnUse">
<stop offset="0.002" stop-color="white" stop-opacity="0"/>
<stop offset="1" stop-color="#235196"/>
</linearGradient>
<linearGradient id="paint10_linear_6663_2853" x1="62.87" y1="18.9861" x2="63.5356" y2="24.0825" gradientUnits="userSpaceOnUse">
<stop offset="0.002" stop-color="white" stop-opacity="0"/>
<stop offset="1" stop-color="#235196"/>
</linearGradient>
<linearGradient id="paint11_linear_6663_2853" x1="56.5511" y1="22.3446" x2="57.2163" y2="27.4413" gradientUnits="userSpaceOnUse">
<stop offset="0.002" stop-color="white" stop-opacity="0"/>
<stop offset="1" stop-color="#235196"/>
</linearGradient>
<linearGradient id="paint12_linear_6663_2853" x1="62.8583" y1="22.3644" x2="63.524" y2="27.4626" gradientUnits="userSpaceOnUse">
<stop offset="0.002" stop-color="white" stop-opacity="0"/>
<stop offset="1" stop-color="#235196"/>
</linearGradient>
<linearGradient id="paint13_linear_6663_2853" x1="56.5335" y1="25.7238" x2="57.2003" y2="30.821" gradientUnits="userSpaceOnUse">
<stop offset="0.002" stop-color="white" stop-opacity="0"/>
<stop offset="1" stop-color="#235196"/>
</linearGradient>
<linearGradient id="paint14_linear_6663_2853" x1="62.8454" y1="25.7445" x2="63.5111" y2="30.8408" gradientUnits="userSpaceOnUse">
<stop offset="0.002" stop-color="white" stop-opacity="0"/>
<stop offset="1" stop-color="#235196"/>
</linearGradient>
<linearGradient id="paint15_linear_6663_2853" x1="56.5232" y1="29.102" x2="57.19" y2="34.2011" gradientUnits="userSpaceOnUse">
<stop offset="0.002" stop-color="white" stop-opacity="0"/>
<stop offset="1" stop-color="#235196"/>
</linearGradient>
<linearGradient id="paint16_linear_6663_2853" x1="62.8317" y1="29.1248" x2="63.4985" y2="34.222" gradientUnits="userSpaceOnUse">
<stop offset="0.002" stop-color="white" stop-opacity="0"/>
<stop offset="1" stop-color="#235196"/>
</linearGradient>
</defs>
</svg>
