<svg width="28" height="28" viewBox="0 0 28 28" fill="none" xmlns="http://www.w3.org/2000/svg">
<circle cx="14" cy="14" r="14" fill="#F3F3F3"/>
<mask id="mask0_3796_2906" style="mask-type:alpha" maskUnits="userSpaceOnUse" x="6" y="6" width="16" height="16">
<rect x="6" y="6" width="16" height="16" fill="#D9D9D9"/>
</mask>
<g mask="url(#mask0_3796_2906)">
<path d="M15.6667 18C15.2 18 14.8056 17.8389 14.4833 17.5167C14.1611 17.1944 14 16.8 14 16.3333C14 15.8667 14.1611 15.4722 14.4833 15.15C14.8056 14.8278 15.2 14.6667 15.6667 14.6667C16.1333 14.6667 16.5278 14.8278 16.85 15.15C17.1722 15.4722 17.3333 15.8667 17.3333 16.3333C17.3333 16.8 17.1722 17.1944 16.85 17.5167C16.5278 17.8389 16.1333 18 15.6667 18ZM9.33333 20.6667C8.96667 20.6667 8.65278 20.5361 8.39167 20.275C8.13056 20.0139 8 19.7 8 19.3333V9.99999C8 9.63333 8.13056 9.31944 8.39167 9.05833C8.65278 8.79722 8.96667 8.66666 9.33333 8.66666H10V7.99999C10 7.81111 10.0639 7.65277 10.1917 7.52499C10.3194 7.39722 10.4778 7.33333 10.6667 7.33333C10.8556 7.33333 11.0139 7.39722 11.1417 7.52499C11.2694 7.65277 11.3333 7.81111 11.3333 7.99999V8.66666H16.6667V7.99999C16.6667 7.81111 16.7306 7.65277 16.8583 7.52499C16.9861 7.39722 17.1444 7.33333 17.3333 7.33333C17.5222 7.33333 17.6806 7.39722 17.8083 7.52499C17.9361 7.65277 18 7.81111 18 7.99999V8.66666H18.6667C19.0333 8.66666 19.3472 8.79722 19.6083 9.05833C19.8694 9.31944 20 9.63333 20 9.99999V19.3333C20 19.7 19.8694 20.0139 19.6083 20.275C19.3472 20.5361 19.0333 20.6667 18.6667 20.6667H9.33333ZM9.33333 19.3333H18.6667V12.6667H9.33333V19.3333Z" fill="#919191"/>
</g>
</svg>
