<svg width="28" height="28" viewBox="0 0 28 28" fill="none" xmlns="http://www.w3.org/2000/svg">
<circle cx="14" cy="14" r="14" fill="#F3F3F3"/>
<mask id="mask0_3796_2941" style="mask-type:alpha" maskUnits="userSpaceOnUse" x="6" y="6" width="16" height="16">
<rect x="6" y="6" width="16" height="16" fill="#D9D9D9"/>
</mask>
<g mask="url(#mask0_3796_2941)">
<path d="M17.3337 17.3336C17.6114 17.3336 17.8475 17.2364 18.042 17.0419C18.2364 16.8475 18.3337 16.6114 18.3337 16.3336C18.3337 16.0558 18.2364 15.8197 18.042 15.6253C17.8475 15.4308 17.6114 15.3336 17.3337 15.3336C17.0559 15.3336 16.8198 15.4308 16.6253 15.6253C16.4309 15.8197 16.3337 16.0558 16.3337 16.3336C16.3337 16.6114 16.4309 16.8475 16.6253 17.0419C16.8198 17.2364 17.0559 17.3336 17.3337 17.3336ZM17.3337 19.3336C17.6781 19.3336 17.9948 19.253 18.2837 19.0919C18.5725 18.9308 18.8059 18.7169 18.9837 18.4503C18.7392 18.3058 18.4781 18.1947 18.2003 18.1169C17.9225 18.0391 17.6337 18.0003 17.3337 18.0003C17.0337 18.0003 16.7448 18.0391 16.467 18.1169C16.1892 18.1947 15.9281 18.3058 15.6837 18.4503C15.8614 18.7169 16.0948 18.9308 16.3837 19.0919C16.6725 19.253 16.9892 19.3336 17.3337 19.3336ZM17.3337 20.6669C16.4114 20.6669 15.6253 20.3419 14.9753 19.6919C14.3253 19.0419 14.0003 18.2558 14.0003 17.3336C14.0003 16.4114 14.3253 15.6253 14.9753 14.9753C15.6253 14.3253 16.4114 14.0003 17.3337 14.0003C18.2559 14.0003 19.042 14.3253 19.692 14.9753C20.342 15.6253 20.667 16.4114 20.667 17.3336C20.667 18.2558 20.342 19.0419 19.692 19.6919C19.042 20.3419 18.2559 20.6669 17.3337 20.6669ZM14.0003 20.6669C12.4559 20.278 11.1809 19.3919 10.1753 18.0086C9.16977 16.6253 8.66699 15.0891 8.66699 13.4003V10.2503C8.66699 9.97248 8.74755 9.72248 8.90866 9.50026C9.06977 9.27804 9.2781 9.11693 9.53366 9.01693L13.5337 7.51693C13.6892 7.46137 13.8448 7.43359 14.0003 7.43359C14.1559 7.43359 14.3114 7.46137 14.467 7.51693L18.467 9.01693C18.7225 9.11693 18.9309 9.27804 19.092 9.50026C19.2531 9.72248 19.3337 9.97248 19.3337 10.2503V13.1169C19.0448 12.9725 18.7198 12.8614 18.3587 12.7836C17.9975 12.7058 17.6559 12.6669 17.3337 12.6669C16.0448 12.6669 14.9448 13.1225 14.0337 14.0336C13.1225 14.9447 12.667 16.0447 12.667 17.3336C12.667 18.0225 12.7975 18.6447 13.0587 19.2003C13.3198 19.7558 13.6503 20.2392 14.0503 20.6503C14.0392 20.6503 14.0309 20.653 14.0253 20.6586C14.0198 20.6641 14.0114 20.6669 14.0003 20.6669Z" fill="#919191"/>
</g>
</svg>
