<svg width="28" height="28" viewBox="0 0 28 28" fill="none" xmlns="http://www.w3.org/2000/svg">
<circle cx="14" cy="14" r="14" fill="#F3F3F3"/>
<mask id="mask0_4007_3920" style="mask-type:alpha" maskUnits="userSpaceOnUse" x="6" y="6" width="16" height="16">
<rect x="6" y="6" width="16" height="16" fill="#D9D9D9"/>
</mask>
<g mask="url(#mask0_4007_3920)">
<path d="M10.6693 16.6615V17.3281C10.6693 17.517 10.7332 17.6753 10.8609 17.8031C10.9887 17.9309 11.147 17.9948 11.3359 17.9948C11.5248 17.9948 11.6832 17.9309 11.8109 17.8031C11.9387 17.6753 12.0026 17.517 12.0026 17.3281V16.6615H12.6693C12.8582 16.6615 13.0165 16.5976 13.1443 16.4698C13.272 16.342 13.3359 16.1837 13.3359 15.9948C13.3359 15.8059 13.272 15.6476 13.1443 15.5198C13.0165 15.392 12.8582 15.3281 12.6693 15.3281H12.0026V14.6615C12.0026 14.4726 11.9387 14.3142 11.8109 14.1865C11.6832 14.0587 11.5248 13.9948 11.3359 13.9948C11.147 13.9948 10.9887 14.0587 10.8609 14.1865C10.7332 14.3142 10.6693 14.4726 10.6693 14.6615V15.3281H10.0026C9.81372 15.3281 9.65538 15.392 9.5276 15.5198C9.39983 15.6476 9.33594 15.8059 9.33594 15.9948C9.33594 16.1837 9.39983 16.342 9.5276 16.4698C9.65538 16.5976 9.81372 16.6615 10.0026 16.6615H10.6693ZM15.1693 15.6615H18.1693C18.3137 15.6615 18.4332 15.6142 18.5276 15.5198C18.622 15.4253 18.6693 15.3059 18.6693 15.1615C18.6693 15.017 18.622 14.8976 18.5276 14.8031C18.4332 14.7087 18.3137 14.6615 18.1693 14.6615H15.1693C15.0248 14.6615 14.9054 14.7087 14.8109 14.8031C14.7165 14.8976 14.6693 15.017 14.6693 15.1615C14.6693 15.3059 14.7165 15.4253 14.8109 15.5198C14.9054 15.6142 15.0248 15.6615 15.1693 15.6615ZM15.1693 17.6615H16.8359C16.9804 17.6615 17.0998 17.6142 17.1943 17.5198C17.2887 17.4253 17.3359 17.3059 17.3359 17.1615C17.3359 17.017 17.2887 16.8976 17.1943 16.8031C17.0998 16.7087 16.9804 16.6615 16.8359 16.6615H15.1693C15.0248 16.6615 14.9054 16.7087 14.8109 16.8031C14.7165 16.8976 14.6693 17.017 14.6693 17.1615C14.6693 17.3059 14.7165 17.4253 14.8109 17.5198C14.9054 17.6142 15.0248 17.6615 15.1693 17.6615ZM8.66927 20.6615C8.3026 20.6615 7.98872 20.5309 7.7276 20.2698C7.46649 20.0087 7.33594 19.6948 7.33594 19.3281V11.9948C7.33594 11.6281 7.46649 11.3142 7.7276 11.0531C7.98872 10.792 8.3026 10.6615 8.66927 10.6615H12.0026V8.66146C12.0026 8.29479 12.1332 7.9809 12.3943 7.71979C12.6554 7.45868 12.9693 7.32812 13.3359 7.32812H14.6693C15.0359 7.32812 15.3498 7.45868 15.6109 7.71979C15.872 7.9809 16.0026 8.29479 16.0026 8.66146V10.6615H19.3359C19.7026 10.6615 20.0165 10.792 20.2776 11.0531C20.5387 11.3142 20.6693 11.6281 20.6693 11.9948V19.3281C20.6693 19.6948 20.5387 20.0087 20.2776 20.2698C20.0165 20.5309 19.7026 20.6615 19.3359 20.6615H8.66927ZM13.3359 11.9948H14.6693V8.66146H13.3359V11.9948Z" fill="#919191"/>
</g>
</svg>
