<svg width="28" height="28" viewBox="0 0 28 28" fill="none" xmlns="http://www.w3.org/2000/svg">
<circle cx="14" cy="14" r="14" fill="#F3F3F3"/>
<mask id="mask0_3796_2956" style="mask-type:alpha" maskUnits="userSpaceOnUse" x="6" y="6" width="16" height="16">
<rect x="6" y="6" width="16" height="16" fill="#D9D9D9"/>
</mask>
<g mask="url(#mask0_3796_2956)">
<path d="M13.9663 18.0007C14.1997 18.0007 14.3969 17.9201 14.558 17.759C14.7191 17.5979 14.7997 17.4007 14.7997 17.1673C14.7997 16.934 14.7191 16.7368 14.558 16.5757C14.3969 16.4145 14.1997 16.334 13.9663 16.334C13.733 16.334 13.5358 16.4145 13.3747 16.5757C13.2136 16.7368 13.133 16.934 13.133 17.1673C13.133 17.4007 13.2136 17.5979 13.3747 17.759C13.5358 17.9201 13.733 18.0007 13.9663 18.0007ZM13.3663 15.434H14.5997C14.5997 15.0673 14.6413 14.7784 14.7247 14.5673C14.808 14.3562 15.0441 14.0673 15.433 13.7007C15.7219 13.4118 15.9497 13.1368 16.1163 12.8757C16.283 12.6145 16.3663 12.3007 16.3663 11.934C16.3663 11.3118 16.1386 10.834 15.683 10.5007C15.2275 10.1673 14.6886 10.0007 14.0663 10.0007C13.433 10.0007 12.9191 10.1673 12.5247 10.5007C12.1302 10.834 11.8552 11.234 11.6997 11.7007L12.7997 12.134C12.8552 11.934 12.9802 11.7173 13.1747 11.484C13.3691 11.2507 13.6663 11.134 14.0663 11.134C14.4219 11.134 14.6886 11.2312 14.8663 11.4257C15.0441 11.6201 15.133 11.834 15.133 12.0673C15.133 12.2895 15.0663 12.4979 14.933 12.6923C14.7997 12.8868 14.633 13.0673 14.433 13.234C13.9441 13.6673 13.6441 13.9951 13.533 14.2173C13.4219 14.4395 13.3663 14.8451 13.3663 15.434ZM13.9997 20.6673C13.0775 20.6673 12.2108 20.4923 11.3997 20.1423C10.5886 19.7923 9.88301 19.3173 9.28301 18.7173C8.68301 18.1173 8.20801 17.4118 7.85801 16.6007C7.50801 15.7895 7.33301 14.9229 7.33301 14.0007C7.33301 13.0784 7.50801 12.2118 7.85801 11.4007C8.20801 10.5895 8.68301 9.88398 9.28301 9.28398C9.88301 8.68398 10.5886 8.20898 11.3997 7.85898C12.2108 7.50898 13.0775 7.33398 13.9997 7.33398C14.9219 7.33398 15.7886 7.50898 16.5997 7.85898C17.4108 8.20898 18.1163 8.68398 18.7163 9.28398C19.3163 9.88398 19.7913 10.5895 20.1413 11.4007C20.4913 12.2118 20.6663 13.0784 20.6663 14.0007C20.6663 14.9229 20.4913 15.7895 20.1413 16.6007C19.7913 17.4118 19.3163 18.1173 18.7163 18.7173C18.1163 19.3173 17.4108 19.7923 16.5997 20.1423C15.7886 20.4923 14.9219 20.6673 13.9997 20.6673Z" fill="#919191"/>
</g>
</svg>
