<svg width="28" height="28" viewBox="0 0 28 28" fill="none" xmlns="http://www.w3.org/2000/svg">
<circle cx="14" cy="14.0001" r="14" fill="#F3F3F3"/>
<mask id="mask0_3796_2986" style="mask-type:alpha" maskUnits="userSpaceOnUse" x="6" y="6" width="16" height="16">
<rect x="6" y="6.00006" width="16" height="16" fill="#D9D9D9"/>
</mask>
<g mask="url(#mask0_3796_2986)">
<path d="M18 20.6667C17.4444 20.6667 16.9722 20.4723 16.5833 20.0834C16.1944 19.6945 16 19.2223 16 18.6667C16 18.5889 16.0056 18.5084 16.0167 18.4251C16.0278 18.3417 16.0444 18.2667 16.0667 18.2001L11.3667 15.4667C11.1778 15.6334 10.9667 15.7639 10.7333 15.8584C10.5 15.9528 10.2556 16.0001 10 16.0001C9.44444 16.0001 8.97222 15.8056 8.58333 15.4167C8.19444 15.0278 8 14.5556 8 14.0001C8 13.4445 8.19444 12.9723 8.58333 12.5834C8.97222 12.1945 9.44444 12.0001 10 12.0001C10.2556 12.0001 10.5 12.0473 10.7333 12.1417C10.9667 12.2362 11.1778 12.3667 11.3667 12.5334L16.0667 9.80006C16.0444 9.73339 16.0278 9.65839 16.0167 9.57506C16.0056 9.49172 16 9.41117 16 9.33339C16 8.77783 16.1944 8.30561 16.5833 7.91672C16.9722 7.52783 17.4444 7.33339 18 7.33339C18.5556 7.33339 19.0278 7.52783 19.4167 7.91672C19.8056 8.30561 20 8.77783 20 9.33339C20 9.88894 19.8056 10.3612 19.4167 10.7501C19.0278 11.1389 18.5556 11.3334 18 11.3334C17.7444 11.3334 17.5 11.2862 17.2667 11.1917C17.0333 11.0973 16.8222 10.9667 16.6333 10.8001L11.9333 13.5334C11.9556 13.6001 11.9722 13.6751 11.9833 13.7584C11.9944 13.8417 12 13.9223 12 14.0001C12 14.0778 11.9944 14.1584 11.9833 14.2417C11.9722 14.3251 11.9556 14.4001 11.9333 14.4667L16.6333 17.2001C16.8222 17.0334 17.0333 16.9028 17.2667 16.8084C17.5 16.7139 17.7444 16.6667 18 16.6667C18.5556 16.6667 19.0278 16.8612 19.4167 17.2501C19.8056 17.6389 20 18.1112 20 18.6667C20 19.2223 19.8056 19.6945 19.4167 20.0834C19.0278 20.4723 18.5556 20.6667 18 20.6667Z" fill="#919191"/>
</g>
</svg>
