<svg width="28" height="28" viewBox="0 0 28 28" fill="none" xmlns="http://www.w3.org/2000/svg">
<circle cx="14" cy="14.0001" r="14" fill="#F3F3F3"/>
<mask id="mask0_6663_2123" style="mask-type:alpha" maskUnits="userSpaceOnUse" x="6" y="6" width="16" height="16">
<rect x="6" y="6" width="16" height="16" fill="#D9D9D9"/>
</mask>
<g mask="url(#mask0_6663_2123)">
<path d="M10.9163 20.0167C10.5163 20.0056 10.1358 19.9028 9.77467 19.7083C9.41356 19.5139 9.0719 19.2278 8.74967 18.85C8.30523 18.3167 7.95801 17.6806 7.70801 16.9417C7.45801 16.2028 7.33301 15.4444 7.33301 14.6667C7.33301 13.7444 7.50801 12.8778 7.85801 12.0667C8.20801 11.2556 8.68301 10.55 9.28301 9.95C9.88301 9.35 10.5886 8.875 11.3997 8.525C12.2108 8.175 13.0775 8 13.9997 8C14.9219 8 15.7886 8.17778 16.5997 8.53333C17.4108 8.88889 18.1163 9.37222 18.7163 9.98333C19.3163 10.5944 19.7913 11.3111 20.1413 12.1333C20.4913 12.9556 20.6663 13.8389 20.6663 14.7833C20.6663 15.6389 20.5275 16.4389 20.2497 17.1833C19.9719 17.9278 19.5775 18.5556 19.0663 19.0667C18.7552 19.3778 18.4275 19.6139 18.083 19.775C17.7386 19.9361 17.3886 20.0167 17.033 20.0167C16.833 20.0167 16.633 19.9917 16.433 19.9417C16.233 19.8917 16.033 19.8167 15.833 19.7167L14.8997 19.25C14.7663 19.1833 14.6247 19.1333 14.4747 19.1C14.3247 19.0667 14.1663 19.05 13.9997 19.05C13.833 19.05 13.6747 19.0667 13.5247 19.1C13.3747 19.1333 13.233 19.1833 13.0997 19.25L12.1663 19.7167C11.9552 19.8278 11.7469 19.9083 11.5413 19.9583C11.3358 20.0083 11.1275 20.0278 10.9163 20.0167ZM13.9997 16C14.3663 16 14.6802 15.8694 14.9413 15.6083C15.2025 15.3472 15.333 15.0333 15.333 14.6667C15.333 14.5778 15.3247 14.4889 15.308 14.4C15.2913 14.3111 15.2663 14.2222 15.233 14.1333L16.0663 13.0167C16.1886 13.1722 16.2886 13.3306 16.3663 13.4917C16.4441 13.6528 16.5108 13.8222 16.5663 14C16.6219 14.1778 16.7052 14.3333 16.8163 14.4667C16.9275 14.6 17.0719 14.6667 17.2497 14.6667C17.4719 14.6667 17.6469 14.5694 17.7747 14.375C17.9025 14.1806 17.9386 13.9667 17.883 13.7333C17.6608 12.8333 17.1886 12.0972 16.4663 11.525C15.7441 10.9528 14.9219 10.6667 13.9997 10.6667C13.0663 10.6667 12.2413 10.9528 11.5247 11.525C10.808 12.0972 10.3386 12.8333 10.1163 13.7333C10.0608 13.9667 10.0969 14.1806 10.2247 14.375C10.3525 14.5694 10.5275 14.6667 10.7497 14.6667C10.9275 14.6667 11.0719 14.6 11.183 14.4667C11.2941 14.3333 11.3775 14.1778 11.433 14C11.5886 13.4111 11.9025 12.9306 12.3747 12.5583C12.8469 12.1861 13.3886 12 13.9997 12C14.1775 12 14.3525 12.0167 14.5247 12.05C14.6969 12.0833 14.8608 12.1333 15.0163 12.2L14.1663 13.35C14.1441 13.35 14.1163 13.3472 14.083 13.3417C14.0497 13.3361 14.0219 13.3333 13.9997 13.3333C13.633 13.3333 13.3191 13.4639 13.058 13.725C12.7969 13.9861 12.6663 14.3 12.6663 14.6667C12.6663 15.0333 12.7969 15.3472 13.058 15.6083C13.3191 15.8694 13.633 16 13.9997 16Z" fill="#919191"/>
</g>
</svg>
