<svg width="28" height="28" viewBox="0 0 28 28" fill="none" xmlns="http://www.w3.org/2000/svg">
<circle cx="14" cy="14.0001" r="14" fill="#F3F3F3"/>
<mask id="mask0_3796_3000" style="mask-type:alpha" maskUnits="userSpaceOnUse" x="6" y="6" width="16" height="16">
<rect x="6" y="6.00009" width="16" height="16" fill="#D9D9D9"/>
</mask>
<g mask="url(#mask0_3796_3000)">
<path d="M13.9999 17.5332L11.5332 19.4165C11.411 19.5165 11.2777 19.5637 11.1332 19.5582C10.9888 19.5526 10.861 19.5109 10.7499 19.4332C10.6388 19.3554 10.5527 19.2498 10.4915 19.1165C10.4304 18.9832 10.4277 18.8387 10.4832 18.6832L11.4332 15.5998L9.01655 13.8832C8.88321 13.7943 8.79988 13.6776 8.76655 13.5332C8.73321 13.3887 8.73877 13.2554 8.78321 13.1332C8.82766 13.0109 8.90543 12.9026 9.01655 12.8082C9.12766 12.7137 9.26099 12.6665 9.41655 12.6665H12.3999L13.3665 9.4665C13.4221 9.31095 13.5082 9.1915 13.6249 9.10817C13.7415 9.02484 13.8665 8.98317 13.9999 8.98317C14.1332 8.98317 14.2582 9.02484 14.3749 9.10817C14.4915 9.1915 14.5777 9.31095 14.6332 9.4665L15.5999 12.6665H18.5832C18.7388 12.6665 18.8721 12.7137 18.9832 12.8082C19.0943 12.9026 19.1721 13.0109 19.2165 13.1332C19.261 13.2554 19.2665 13.3887 19.2332 13.5332C19.1999 13.6776 19.1165 13.7943 18.9832 13.8832L16.5665 15.5998L17.5165 18.6832C17.5721 18.8387 17.5693 18.9832 17.5082 19.1165C17.4471 19.2498 17.361 19.3554 17.2499 19.4332C17.1388 19.5109 17.011 19.5526 16.8665 19.5582C16.7221 19.5637 16.5888 19.5165 16.4665 19.4165L13.9999 17.5332Z" fill="#919191"/>
</g>
</svg>
