<svg width="28" height="28" viewBox="0 0 28 28" fill="none" xmlns="http://www.w3.org/2000/svg">
<circle cx="14" cy="14" r="14" fill="#F3F3F3"/>
<mask id="mask0_3796_2971" style="mask-type:alpha" maskUnits="userSpaceOnUse" x="6" y="6" width="16" height="16">
<rect x="6" y="6.00005" width="16" height="16" fill="#D9D9D9"/>
</mask>
<g mask="url(#mask0_3796_2971)">
<path d="M13.9997 17.334C14.1886 17.334 14.3469 17.2701 14.4747 17.1424C14.6025 17.0146 14.6663 16.8563 14.6663 16.6674V14.0007C14.6663 13.8118 14.6025 13.6535 14.4747 13.5257C14.3469 13.3979 14.1886 13.334 13.9997 13.334C13.8108 13.334 13.6525 13.3979 13.5247 13.5257C13.3969 13.6535 13.333 13.8118 13.333 14.0007V16.6674C13.333 16.8563 13.3969 17.0146 13.5247 17.1424C13.6525 17.2701 13.8108 17.334 13.9997 17.334ZM13.9997 12.0007C14.1886 12.0007 14.3469 11.9368 14.4747 11.809C14.6025 11.6813 14.6663 11.5229 14.6663 11.334C14.6663 11.1451 14.6025 10.9868 14.4747 10.859C14.3469 10.7313 14.1886 10.6674 13.9997 10.6674C13.8108 10.6674 13.6525 10.7313 13.5247 10.859C13.3969 10.9868 13.333 11.1451 13.333 11.334C13.333 11.5229 13.3969 11.6813 13.5247 11.809C13.6525 11.9368 13.8108 12.0007 13.9997 12.0007ZM13.9997 20.6674C13.0775 20.6674 12.2108 20.4924 11.3997 20.1424C10.5886 19.7924 9.88301 19.3174 9.28301 18.7174C8.68301 18.1174 8.20801 17.4118 7.85801 16.6007C7.50801 15.7896 7.33301 14.9229 7.33301 14.0007C7.33301 13.0785 7.50801 12.2118 7.85801 11.4007C8.20801 10.5896 8.68301 9.88403 9.28301 9.28403C9.88301 8.68403 10.5886 8.20903 11.3997 7.85903C12.2108 7.50903 13.0775 7.33403 13.9997 7.33403C14.9219 7.33403 15.7886 7.50903 16.5997 7.85903C17.4108 8.20903 18.1163 8.68403 18.7163 9.28403C19.3163 9.88403 19.7913 10.5896 20.1413 11.4007C20.4913 12.2118 20.6663 13.0785 20.6663 14.0007C20.6663 14.9229 20.4913 15.7896 20.1413 16.6007C19.7913 17.4118 19.3163 18.1174 18.7163 18.7174C18.1163 19.3174 17.4108 19.7924 16.5997 20.1424C15.7886 20.4924 14.9219 20.6674 13.9997 20.6674Z" fill="#919191"/>
</g>
</svg>
