<svg width="28" height="28" viewBox="0 0 28 28" fill="none" xmlns="http://www.w3.org/2000/svg">
<circle cx="14" cy="14" r="14" fill="#F3F3F3"/>
<mask id="mask0_4007_3934" style="mask-type:alpha" maskUnits="userSpaceOnUse" x="6" y="6" width="16" height="16">
<rect x="6" y="6.00003" width="16" height="16" fill="#D9D9D9"/>
</mask>
<g mask="url(#mask0_4007_3934)">
<path d="M14.0026 18L11.2026 19.2C10.7582 19.3889 10.3359 19.3528 9.93594 19.0917C9.53594 18.8306 9.33594 18.4611 9.33594 17.9834V9.33336C9.33594 8.9667 9.46649 8.65281 9.7276 8.3917C9.98872 8.13059 10.3026 8.00003 10.6693 8.00003H17.3359C17.7026 8.00003 18.0165 8.13059 18.2776 8.3917C18.5387 8.65281 18.6693 8.9667 18.6693 9.33336V17.9834C18.6693 18.4611 18.4693 18.8306 18.0693 19.0917C17.6693 19.3528 17.2471 19.3889 16.8026 19.2L14.0026 18Z" fill="#919191"/>
</g>
</svg>
