<svg width="13" height="13" viewBox="0 0 13 13" fill="none" xmlns="http://www.w3.org/2000/svg">
<path d="M1 12.0018H1.73333L9.11667 4.61849L8.38333 3.88516L1 11.2685V12.0018ZM11.2333 3.90182L9.1 1.76849L9.8 1.06849C9.98889 0.879601 10.2222 0.785156 10.5 0.785156C10.7778 0.785156 11.0111 0.879601 11.2 1.06849L11.9333 1.80182C12.1222 1.99071 12.2167 2.22405 12.2167 2.50182C12.2167 2.7796 12.1222 3.01293 11.9333 3.20182L11.2333 3.90182ZM10.5333 4.60182L2.13333 13.0018H0V10.8685L8.4 2.46849L10.5333 4.60182ZM8.75 4.25182L8.38333 3.88516L9.11667 4.61849L8.75 4.25182Z" fill="#616161"/>
</svg>
