<svg width="16" height="18" viewBox="0 0 16 18" fill="none" xmlns="http://www.w3.org/2000/svg">
<path d="M10.0833 14.0052C9.5 14.0052 9.00694 13.8038 8.60417 13.401C8.20139 12.9983 8 12.5052 8 11.9219C8 11.3385 8.20139 10.8455 8.60417 10.4427C9.00694 10.0399 9.5 9.83854 10.0833 9.83854C10.6667 9.83854 11.1597 10.0399 11.5625 10.4427C11.9653 10.8455 12.1667 11.3385 12.1667 11.9219C12.1667 12.5052 11.9653 12.9983 11.5625 13.401C11.1597 13.8038 10.6667 14.0052 10.0833 14.0052ZM2.16667 17.3385C1.70833 17.3385 1.31597 17.1753 0.989583 16.849C0.663194 16.5226 0.5 16.1302 0.5 15.6719V4.00521C0.5 3.54687 0.663194 3.15451 0.989583 2.82812C1.31597 2.50174 1.70833 2.33854 2.16667 2.33854H3V0.671875H4.66667V2.33854H11.3333V0.671875H13V2.33854H13.8333C14.2917 2.33854 14.684 2.50174 15.0104 2.82812C15.3368 3.15451 15.5 3.54687 15.5 4.00521V15.6719C15.5 16.1302 15.3368 16.5226 15.0104 16.849C14.684 17.1753 14.2917 17.3385 13.8333 17.3385H2.16667ZM2.16667 15.6719H13.8333V7.33854H2.16667V15.6719Z" fill="#313131"/>
</svg>
