<svg width="21" height="21" viewBox="0 0 21 21" fill="none" xmlns="http://www.w3.org/2000/svg">
<path d="M19.6502 8.37501L13.6002 2.32501L14.3502 1.55001C14.7335 1.16668 15.2085 0.979176 15.7752 0.98751C16.3419 0.995843 16.8169 1.19168 17.2002 1.57501L20.4252 4.80001C20.8085 5.18334 21.0002 5.65418 21.0002 6.21251C21.0002 6.77084 20.8085 7.24168 20.4252 7.62501L19.6502 8.37501ZM7.6502 20.4C7.26686 20.7833 6.79603 20.975 6.2377 20.975C5.67936 20.975 5.20853 20.7833 4.8252 20.4L1.2502 16.825C0.966862 16.5417 0.825195 16.1875 0.825195 15.7625C0.825195 15.3375 0.966862 14.9833 1.2502 14.7L2.3502 13.6L8.4002 19.65L7.6502 20.4ZM11.1002 20.225C10.9502 20.375 10.7752 20.45 10.5752 20.45C10.3752 20.45 10.2002 20.375 10.0502 20.225L1.7752 11.95C1.6252 11.8 1.5502 11.625 1.5502 11.425C1.5502 11.225 1.6252 11.05 1.7752 10.9L4.1002 8.57501C4.2502 8.42501 4.4252 8.35001 4.6252 8.35001C4.8252 8.35001 5.0002 8.42501 5.1502 8.57501L7.0752 10.5L10.5252 7.05001L8.6002 5.12501C8.4502 4.97501 8.3752 4.80001 8.3752 4.60001C8.3752 4.40001 8.4502 4.22501 8.6002 4.07501L10.9002 1.75001C11.0502 1.60001 11.2294 1.52501 11.4377 1.52501C11.646 1.52501 11.8252 1.60001 11.9752 1.75001L20.2502 10.025C20.4002 10.175 20.4752 10.3542 20.4752 10.5625C20.4752 10.7708 20.4002 10.95 20.2502 11.1L17.9252 13.4C17.7752 13.55 17.6002 13.625 17.4002 13.625C17.2002 13.625 17.0252 13.55 16.8752 13.4L14.9502 11.475L11.5002 14.925L13.4252 16.85C13.5752 17 13.6502 17.175 13.6502 17.375C13.6502 17.575 13.5752 17.75 13.4252 17.9L11.1002 20.225Z" fill="#FAB000"/>
</svg>
