<svg width="36" height="36" viewBox="0 0 36 36" fill="none" xmlns="http://www.w3.org/2000/svg">
<circle cx="18" cy="18" r="18" fill="#1BB333" fill-opacity="0.1"/>
<path d="M36 18C36 27.9411 27.9411 36 18 36C8.05887 36 0 27.9411 0 18C0 8.05887 8.05887 0 18 0C27.9411 0 36 8.05887 36 18ZM1.8 18C1.8 26.947 9.05299 34.2 18 34.2C26.947 34.2 34.2 26.947 34.2 18C34.2 9.05299 26.947 1.8 18 1.8C9.05299 1.8 1.8 9.05299 1.8 18Z" fill="#9EDBA7"/>
<path d="M18 0.900001C18 0.402944 18.4032 -0.0023473 18.8997 0.022492C22.144 0.18482 25.2901 1.22266 28.0003 3.03355C30.9604 5.01141 33.2675 7.82263 34.6298 11.1117C35.9922 14.4008 36.3487 18.02 35.6541 21.5116C34.9596 25.0033 33.2453 28.2106 30.7279 30.7279C28.2106 33.2453 25.0033 34.9596 21.5116 35.6541C18.02 36.3487 14.4008 35.9922 11.1117 34.6298C7.82263 33.2675 5.01141 30.9603 3.03355 28.0003C1.22266 25.2901 0.18482 22.144 0.0224919 18.8997C-0.00234732 18.4032 0.402944 18 0.900001 18C1.39706 18 1.79739 18.4033 1.82499 18.8996C1.98558 21.7876 2.91711 24.5861 4.53019 27.0002C6.31027 29.6643 8.84037 31.7407 11.8005 32.9668C14.7607 34.193 18.018 34.5138 21.1605 33.8887C24.303 33.2636 27.1895 31.7207 29.4551 29.4551C31.7207 27.1895 33.2636 24.303 33.8887 21.1605C34.5138 18.018 34.193 14.7607 32.9668 11.8005C31.7407 8.84037 29.6643 6.31027 27.0002 4.53019C24.5861 2.91711 21.7876 1.98558 18.8996 1.82499C18.4033 1.79739 18 1.39706 18 0.900001Z" fill="#1BBB33"/>
<path d="M26.6502 15.375L20.6002 9.32501L21.3502 8.55001C21.7335 8.16668 22.2085 7.97918 22.7752 7.98751C23.3419 7.99584 23.8169 8.19168 24.2002 8.57501L27.4252 11.8C27.8085 12.1833 28.0002 12.6542 28.0002 13.2125C28.0002 13.7708 27.8085 14.2417 27.4252 14.625L26.6502 15.375ZM14.6502 27.4C14.2669 27.7833 13.796 27.975 13.2377 27.975C12.6794 27.975 12.2085 27.7833 11.8252 27.4L8.2502 23.825C7.96686 23.5417 7.8252 23.1875 7.8252 22.7625C7.8252 22.3375 7.96686 21.9833 8.2502 21.7L9.3502 20.6L15.4002 26.65L14.6502 27.4ZM18.1002 27.225C17.9502 27.375 17.7752 27.45 17.5752 27.45C17.3752 27.45 17.2002 27.375 17.0502 27.225L8.7752 18.95C8.6252 18.8 8.5502 18.625 8.5502 18.425C8.5502 18.225 8.6252 18.05 8.7752 17.9L11.1002 15.575C11.2502 15.425 11.4252 15.35 11.6252 15.35C11.8252 15.35 12.0002 15.425 12.1502 15.575L14.0752 17.5L17.5252 14.05L15.6002 12.125C15.4502 11.975 15.3752 11.8 15.3752 11.6C15.3752 11.4 15.4502 11.225 15.6002 11.075L17.9002 8.75001C18.0502 8.60001 18.2294 8.52501 18.4377 8.52501C18.646 8.52501 18.8252 8.60001 18.9752 8.75001L27.2502 17.025C27.4002 17.175 27.4752 17.3542 27.4752 17.5625C27.4752 17.7708 27.4002 17.95 27.2502 18.1L24.9252 20.4C24.7752 20.55 24.6002 20.625 24.4002 20.625C24.2002 20.625 24.0252 20.55 23.8752 20.4L21.9502 18.475L18.5002 21.925L20.4252 23.85C20.5752 24 20.6502 24.175 20.6502 24.375C20.6502 24.575 20.5752 24.75 20.4252 24.9L18.1002 27.225Z" fill="#1BB333"/>
</svg>
