<svg width="29" height="29" viewBox="0 0 29 29" fill="none" xmlns="http://www.w3.org/2000/svg">
<path d="M24 0H5C2.23858 0 0 2.23858 0 5V24C0 26.7614 2.23858 29 5 29H24C26.7614 29 29 26.7614 29 24V5C29 2.23858 26.7614 0 24 0Z" fill="#EEDCF0"/>
<path d="M19.77 6.00362C18.5684 6.07145 17.4016 6.43212 16.3713 7.05418C15.341 7.67625 14.4785 8.54085 13.859 9.57262C12.6802 11.3146 11.6985 13.182 10.932 15.1406C9.88614 17.1986 9.00181 19.3347 8.28696 21.5296C7.85496 22.8136 9.79396 23.6516 10.229 22.3616C10.775 20.7147 11.4051 19.0969 12.117 17.5146C12.833 19.1146 13.56 20.7146 14.341 22.2856C14.946 23.5056 16.768 22.4356 16.165 21.2196C15.365 19.6016 14.614 17.9576 13.878 16.3086C13.887 16.2766 13.899 16.2456 13.909 16.2136C14.0414 16.2514 14.1809 16.2572 14.316 16.2306L17.695 15.6036C17.9093 15.5415 18.091 15.3982 18.2012 15.2041C18.3114 15.01 18.3415 14.7805 18.285 14.5646C18.0264 13.3921 17.376 12.3428 16.441 11.5896C16.2103 11.0792 15.8397 10.6447 15.372 10.3366C15.8868 9.53827 16.5884 8.87732 17.416 8.4109C18.2436 7.94448 19.1724 7.68662 20.122 7.65962C21.204 7.56462 20.843 5.91262 19.77 6.00362ZM15.67 13.1876C15.9475 13.4671 16.1814 13.7867 16.364 14.1356L14.722 14.4446C15.0008 14.0006 15.317 13.5811 15.667 13.1906L15.67 13.1876Z" fill="#D4B1EF"/>
<path d="M17.9981 11.9C18.7989 11.9 19.4481 11.2508 19.4481 10.45C19.4481 9.64919 18.7989 9 17.9981 9C17.1973 9 16.5481 9.64919 16.5481 10.45C16.5481 11.2508 17.1973 11.9 17.9981 11.9Z" fill="#D4B1EF"/>
</svg>
