<svg width="16" height="19" viewBox="0 0 16 19" fill="none" xmlns="http://www.w3.org/2000/svg">
<path d="M7.9982 18.5017C5.85708 18.5017 4.07211 17.7663 2.64327 16.2954C1.21442 14.8245 0.5 12.9938 0.5 10.8031C0.5 9.83299 0.719875 8.85964 1.15962 7.88309C1.59936 6.90654 2.14903 5.96936 2.80865 5.07156C3.46827 4.17376 4.18173 3.32925 4.94903 2.53804C5.71633 1.74682 6.42882 1.05846 7.08652 0.472963C7.21344 0.352446 7.35598 0.263021 7.51415 0.204687C7.67233 0.146354 7.83427 0.117188 7.99997 0.117188C8.16567 0.117188 8.32762 0.146354 8.4858 0.204687C8.64397 0.263021 8.78651 0.352446 8.91343 0.472963C9.57113 1.05846 10.2836 1.74682 11.0509 2.53804C11.8182 3.32925 12.5317 4.17376 13.1913 5.07156C13.8509 5.96936 14.4006 6.90654 14.8403 7.88309C15.2801 8.85964 15.5 9.83299 15.5 10.8031C15.5 12.9938 14.7849 14.8245 13.3549 16.2954C11.9249 17.7663 10.1393 18.5017 7.9982 18.5017ZM8.24613 15.8479C8.42048 15.8312 8.56407 15.766 8.6769 15.6522C8.78972 15.5384 8.84613 15.4012 8.84613 15.2406C8.84613 15.0532 8.78464 14.9047 8.66167 14.795C8.53872 14.6854 8.38162 14.6389 8.19035 14.6556C7.50702 14.7056 6.76278 14.5053 5.95765 14.0547C5.15253 13.604 4.64997 12.8204 4.44997 11.7037C4.41664 11.5332 4.34517 11.3992 4.23555 11.3018C4.12593 11.2043 3.99548 11.1556 3.8442 11.1556C3.66215 11.1556 3.51055 11.2239 3.3894 11.3604C3.26825 11.497 3.22948 11.6723 3.27308 11.8864C3.54358 13.3389 4.19742 14.3774 5.2346 15.0018C6.27178 15.6261 7.27563 15.9082 8.24613 15.8479Z" fill="#313131"/>
</svg>
