<svg width="24" height="24" viewBox="0 0 24 24" fill="none" xmlns="http://www.w3.org/2000/svg">
<path d="M11.25 14.95C9.88333 14.7667 8.75 14.1525 7.85 13.1074C6.95 12.0623 6.5 10.8515 6.5 9.475C6.5 7.95138 7.0375 6.65798 8.1125 5.59478C9.1875 4.53159 10.4833 4 12 4C13.5167 4 14.8125 4.53159 15.8875 5.59478C16.9625 6.65798 17.5 7.95138 17.5 9.475C17.5 10.8515 17.05 12.0623 16.15 13.1074C15.25 14.1525 14.1167 14.7667 12.75 14.95V17.5H14C14.2125 17.5 14.3906 17.5723 14.5344 17.7169C14.6781 17.8615 14.75 18.0406 14.75 18.2544C14.75 18.4681 14.6781 18.6458 14.5344 18.7875C14.3906 18.9292 14.2125 19 14 19H12.75V20.25C12.75 20.4625 12.6777 20.6406 12.5331 20.7844C12.3885 20.9281 12.2094 21 11.9956 21C11.7819 21 11.6042 20.9281 11.4625 20.7844C11.3208 20.6406 11.25 20.4625 11.25 20.25V19H10C9.7875 19 9.60938 18.9277 9.46563 18.7831C9.32188 18.6385 9.25 18.4594 9.25 18.2456C9.25 18.0319 9.32188 17.8542 9.46563 17.7125C9.60938 17.5708 9.7875 17.5 10 17.5H11.25V14.95ZM11.995 13.5C13.0983 13.5 14.0417 13.11 14.825 12.3301C15.6083 11.5501 16 10.6084 16 9.50505C16 8.40168 15.61 7.45833 14.8301 6.675C14.0501 5.89167 13.1084 5.5 12.0051 5.5C10.9017 5.5 9.95833 5.88998 9.175 6.66995C8.39167 7.44992 8 8.39158 8 9.49495C8 10.5983 8.38998 11.5417 9.16995 12.325C9.94992 13.1083 10.8916 13.5 11.995 13.5Z" fill="#9E9E9E"/>
</svg>
