<svg width="18" height="18" viewBox="0 0 18 18" fill="none" xmlns="http://www.w3.org/2000/svg">
<path d="M8.99964 17.7505C8.78704 17.7505 8.60895 17.6786 8.46537 17.5349C8.32179 17.3912 8.24999 17.213 8.24999 17.0005V9.81399C7.24743 9.81399 6.28654 9.62425 5.36732 9.24476C4.44809 8.86528 3.63591 8.32297 2.93079 7.61784C2.22566 6.91272 1.68752 6.10055 1.31637 5.18131C0.945219 4.2621 0.759644 3.3012 0.759644 2.29864V1.68329C0.759644 1.42992 0.845335 1.21754 1.01672 1.04614C1.18812 0.874753 1.4005 0.789062 1.65387 0.789062H2.26922C3.25005 0.789062 4.19974 0.980404 5.11829 1.36309C6.03684 1.74579 6.84869 2.2897 7.55382 2.99481C8.07689 3.5179 8.50605 4.1022 8.84132 4.74771C9.17657 5.39323 9.41663 6.0788 9.56149 6.80444C9.67688 6.60444 9.8054 6.41501 9.94707 6.23616C10.0888 6.05731 10.2468 5.8807 10.4211 5.70634C11.1241 5.00237 11.9364 4.45875 12.8581 4.07549C13.7798 3.6922 14.7405 3.50056 15.7403 3.50056H16.3557C16.6091 3.50056 16.8214 3.58626 16.9928 3.75766C17.1642 3.92906 17.2499 4.14144 17.2499 4.39479V5.01016C17.2499 6.00995 17.0583 6.97068 16.675 7.89236C16.2917 8.81404 15.7481 9.62638 15.0441 10.3294C14.339 11.0345 13.531 11.5726 12.6201 11.9438C11.7092 12.3149 10.7525 12.5005 9.74994 12.5005V17.0005C9.74994 17.213 9.67804 17.3912 9.53424 17.5349C9.39043 17.6786 9.21223 17.7505 8.99964 17.7505Z" fill="#313131"/>
</svg>
