<svg width="23" height="23" viewBox="0 0 23 23" fill="none" xmlns="http://www.w3.org/2000/svg">
<path d="M10.4502 22C10.2737 21.9944 10.1 21.9538 9.93863 21.8803C9.72871 21.7818 9.551 21.6232 9.42684 21.4235C9.30269 21.2238 9.23738 20.9916 9.23877 20.7547V12.613L1.35005 4.54377C1.23701 4.42753 1.1478 4.28922 1.0877 4.13701C1.0276 3.98481 0.997823 3.82179 1.00012 3.65758V2.24533C0.999036 2.08148 1.02968 1.91905 1.09028 1.76745C1.15088 1.61586 1.24022 1.47814 1.35312 1.36228C1.46602 1.24642 1.60023 1.15473 1.74795 1.09255C1.89567 1.03036 2.05395 0.998912 2.21362 1.00003H20.7864C20.946 0.998912 21.1043 1.03036 21.2521 1.09255C21.3998 1.15473 21.534 1.24642 21.6469 1.36228C21.7598 1.47814 21.8491 1.61586 21.9097 1.76745C21.9703 1.91905 22.001 2.08148 21.9999 2.24533V3.65758C22.0022 3.82179 21.9724 3.98481 21.9123 4.13701C21.8522 4.28922 21.763 4.42753 21.6499 4.54377L13.7633 12.613V18.8626C13.7605 19.0396 13.7217 19.214 13.6495 19.3747C13.5772 19.5355 13.4731 19.679 13.3438 19.7961L11.2432 21.664C11.0284 21.8728 10.7459 21.9925 10.4502 22ZM2.30672 3.61033L10.1934 11.7037C10.3064 11.82 10.3956 11.9583 10.4557 12.1105C10.5158 12.2627 10.5456 12.4257 10.5433 12.5899V20.5153L12.4331 18.8353V12.5658C12.4308 12.4016 12.4606 12.2385 12.5207 12.0863C12.5808 11.9341 12.67 11.7958 12.7831 11.6796L20.6697 3.58618V2.31673H2.30672V3.61033Z" fill="#1B053C" stroke="#1B053C" stroke-width="0.5" stroke-linecap="round" stroke-linejoin="round"/>
</svg>
