<svg width="20" height="20" viewBox="0 0 20 20" fill="none" xmlns="http://www.w3.org/2000/svg">
<rect width="20" height="20" fill="white" fill-opacity="0.01"/>
<path d="M1.09212 3H18.9079C19.5101 3.00326 20 3.49642 20 4.09863V15.8141C20 16.418 19.5052 16.9128 18.9014 16.9128H1.09212C0.491536 16.9095 0 16.4163 0 15.8141V4.09863C0 3.49642 0.489909 3.00326 1.09212 3Z" fill="#FF9933"/>
<path d="M0 7.63708H20V12.2758H0V7.63708Z" fill="white"/>
<path d="M0 12.2758H20V15.8142C20 16.418 19.5052 16.9128 18.9014 16.9128H1.09212C0.491536 16.9095 0 16.4164 0 15.8142V12.2758Z" fill="#128807"/>
<path d="M11.8555 9.95642C11.8555 8.93103 11.0254 8.10095 10 8.10095C8.97461 8.10095 8.14453 8.93103 8.14453 9.95642C8.14453 10.9802 8.97461 11.8119 10 11.8119C11.0254 11.8119 11.8555 10.9818 11.8555 9.95642Z" fill="#000088"/>
<path d="M11.6227 9.95634C11.6227 9.05953 10.8968 8.33362 9.99999 8.33362C9.10318 8.33362 8.37727 9.05953 8.37727 9.95634C8.37727 10.8531 9.10318 11.5791 9.99999 11.5791C10.8968 11.5791 11.6227 10.8531 11.6227 9.95634Z" fill="white"/>
<path d="M10.3239 9.95638C10.3239 9.77734 10.179 9.63086 9.99999 9.63086C9.82096 9.63086 9.6761 9.77572 9.6761 9.95638C9.6761 10.1354 9.82096 10.2803 9.99999 10.2803C10.179 10.2803 10.3239 10.1354 10.3239 9.95638Z" fill="#000088"/>
<path d="M11.6895 10.1794C11.696 10.1354 11.6634 10.0947 11.6195 10.0882C11.5755 10.0817 11.5348 10.1143 11.5283 10.1582C11.5218 10.2022 11.5544 10.2429 11.5983 10.2494C11.6439 10.2542 11.6846 10.2233 11.6895 10.1794Z" fill="#000088"/>
<path d="M9.99999 11.5791L10.0553 10.6058L9.99999 10.142L9.94466 10.6058L9.99999 11.5791Z" fill="#000088"/>
<path d="M11.5739 10.609C11.5918 10.5683 11.5706 10.5195 11.5299 10.5032C11.4893 10.4853 11.4404 10.5065 11.4242 10.5472C11.4062 10.5879 11.4274 10.6367 11.4681 10.653C11.5104 10.6693 11.5576 10.6497 11.5739 10.609Z" fill="black"/>
<path d="M9.58008 11.5237L9.88607 10.5976L9.9528 10.1354L9.77865 10.5699L9.58008 11.5237Z" fill="black"/>
<path d="M11.3525 10.9948C11.3802 10.959 11.3737 10.9086 11.3379 10.8809C11.3021 10.8532 11.2516 10.8597 11.224 10.8956C11.1963 10.9314 11.2028 10.9818 11.2386 11.0095C11.2744 11.0372 11.3249 11.029 11.3525 10.9948Z" fill="black"/>
<path d="M9.18782 11.3627L9.7233 10.5472L9.90722 10.1176L9.62727 10.4903L9.18782 11.3627Z" fill="black"/>
<path d="M11.0368 11.3089C11.0726 11.2813 11.0791 11.2308 11.0514 11.195C11.0238 11.1592 10.9733 11.1527 10.9375 11.1803C10.9017 11.208 10.8952 11.2585 10.9229 11.2943C10.9505 11.3285 11.0026 11.3366 11.0368 11.3089Z" fill="black"/>
<path d="M8.85254 11.1039L9.58008 10.4545L9.86816 10.0883L9.50195 10.3763L8.85254 11.1039Z" fill="black"/>
<path d="M10.6527 11.5319C10.6934 11.514 10.7145 11.4668 10.6966 11.4261C10.6787 11.3854 10.6315 11.3642 10.5908 11.3821C10.5501 11.3984 10.529 11.4472 10.5469 11.4879C10.5632 11.5286 10.6104 11.5482 10.6527 11.5319Z" fill="black"/>
<path d="M8.59375 10.7686L9.46615 10.3291L9.83887 10.0492L9.40918 10.2331L8.59375 10.7686Z" fill="black"/>
<path d="M10.223 11.6459C10.2669 11.6394 10.2979 11.5987 10.293 11.5547C10.2865 11.5108 10.2458 11.4799 10.2018 11.4848C10.1579 11.4913 10.127 11.532 10.1318 11.5759C10.1367 11.6215 10.1774 11.6524 10.223 11.6459Z" fill="black"/>
<path d="M8.43262 10.3763L9.38802 10.1778L9.82096 10.0052L9.35872 10.0704L8.43262 10.3763Z" fill="black"/>
<path d="M9.77702 11.6458C9.82097 11.6524 9.86166 11.6198 9.86817 11.5759C9.87468 11.5319 9.84213 11.4912 9.79818 11.4847C9.75424 11.4782 9.71354 11.5108 9.70703 11.5547C9.70215 11.6003 9.73308 11.641 9.77702 11.6458Z" fill="black"/>
<path d="M8.37727 9.95634L9.35058 10.0117L9.81445 9.95634L9.35058 9.901L8.37727 9.95634Z" fill="black"/>
<path d="M9.34733 11.5319C9.38802 11.5498 9.43685 11.5286 9.45313 11.4879C9.4694 11.4472 9.44987 11.3984 9.40918 11.3821C9.36849 11.3642 9.31966 11.3854 9.30339 11.4261C9.28711 11.4668 9.30664 11.514 9.34733 11.5319Z" fill="black"/>
<path d="M8.43262 9.5365L9.35872 9.84249L9.82096 9.90922L9.38802 9.73507L8.43262 9.5365Z" fill="black"/>
<path d="M8.96159 11.3089C8.99739 11.3366 9.04785 11.3301 9.07552 11.2943C9.10319 11.2585 9.09668 11.208 9.06087 11.1803C9.02506 11.1527 8.97461 11.1592 8.94694 11.195C8.9209 11.2308 8.92741 11.2813 8.96159 11.3089Z" fill="black"/>
<path d="M8.59375 9.14417L9.40918 9.67965L9.83887 9.86357L9.46615 9.58362L8.59375 9.14417Z" fill="black"/>
<path d="M8.64746 10.9948C8.67513 11.0306 8.72559 11.0372 8.76139 11.0095C8.7972 10.9818 8.80371 10.9314 8.77604 10.8956C8.74837 10.8597 8.69792 10.8532 8.66211 10.8809C8.62793 10.9069 8.61979 10.959 8.64746 10.9948Z" fill="black"/>
<path d="M8.85254 8.80896L9.50195 9.5365L9.86816 9.82621L9.58008 9.45837L8.85254 8.80896Z" fill="black"/>
<path d="M8.42448 10.609C8.44238 10.6497 8.48959 10.6709 8.53028 10.653C8.57097 10.6351 8.59212 10.5879 8.57422 10.5472C8.55632 10.5065 8.50912 10.4853 8.46843 10.5032C8.42774 10.5195 8.4082 10.5667 8.42448 10.609Z" fill="black"/>
<path d="M9.18782 8.55017L9.62727 9.42257L9.90722 9.79529L9.7233 9.36723L9.18782 8.55017Z" fill="black"/>
<path d="M8.31054 10.1794C8.31705 10.2234 8.35774 10.2543 8.40169 10.2494C8.44563 10.2429 8.47656 10.2022 8.47167 10.1583C8.46516 10.1143 8.42447 10.0834 8.38053 10.0883C8.33496 10.0932 8.30403 10.1338 8.31054 10.1794Z" fill="black"/>
<path d="M9.58008 8.38904L9.77865 9.34444L9.9528 9.77738L9.88607 9.31514L9.58008 8.38904Z" fill="black"/>
<path d="M8.31055 9.73346C8.30404 9.7774 8.3366 9.81809 8.38054 9.8246C8.42449 9.83111 8.46518 9.79856 8.47169 9.75462C8.4782 9.71067 8.44564 9.66998 8.4017 9.66347C8.35613 9.65859 8.31544 9.68951 8.31055 9.73346Z" fill="black"/>
<path d="M9.99999 8.33362L9.94466 9.30693L9.99999 9.77079L10.0553 9.30693L9.99999 8.33362Z" fill="black"/>
<path d="M8.42611 9.30371C8.4082 9.3444 8.42936 9.39323 8.47005 9.4095C8.51074 9.42578 8.55957 9.40625 8.57584 9.36556C8.59375 9.32487 8.57259 9.27604 8.5319 9.25976C8.48958 9.24349 8.44238 9.26302 8.42611 9.30371Z" fill="black"/>
<path d="M10.4199 8.38904L10.1139 9.31514L10.0472 9.77738L10.2213 9.34444L10.4199 8.38904Z" fill="black"/>
<path d="M8.64746 8.9196C8.61979 8.95541 8.6263 9.00587 8.66211 9.03354C8.69792 9.06121 8.74837 9.05469 8.77604 9.01889C8.80371 8.98308 8.7972 8.93262 8.7614 8.90496C8.72559 8.87729 8.67513 8.8838 8.64746 8.9196Z" fill="black"/>
<path d="M10.8122 8.55017L10.2767 9.36723L10.0928 9.79529L10.3727 9.42257L10.8122 8.55017Z" fill="black"/>
<path d="M8.96321 8.60385C8.92741 8.63152 8.9209 8.68197 8.94856 8.71778C8.97623 8.75359 9.02669 8.7601 9.0625 8.73243C9.0983 8.70476 9.10482 8.65431 9.07715 8.6185C9.04948 8.58269 8.99739 8.57781 8.96321 8.60385Z" fill="black"/>
<path d="M11.1475 8.80896L10.4199 9.45837L10.1318 9.82621L10.498 9.5365L11.1475 8.80896Z" fill="black"/>
<path d="M9.34733 8.38249C9.30664 8.4004 9.28711 8.4476 9.30339 8.48829C9.32129 8.52898 9.36849 8.55014 9.40918 8.53223C9.44987 8.51433 9.47103 8.46713 9.45313 8.42644C9.43685 8.38412 9.38965 8.36459 9.34733 8.38249Z" fill="black"/>
<path d="M11.4063 9.14417L10.5339 9.58362L10.1611 9.86357L10.5908 9.67965L11.4063 9.14417Z" fill="black"/>
<path d="M9.77702 8.26694C9.73308 8.27345 9.70215 8.31414 9.70703 8.35809C9.71354 8.40203 9.75424 8.43296 9.79818 8.42808C9.84213 8.42157 9.87468 8.38088 9.86817 8.33693C9.86328 8.29299 9.82259 8.26043 9.77702 8.26694Z" fill="black"/>
<path d="M11.5674 9.5365L10.612 9.73507L10.179 9.90922L10.6413 9.84249L11.5674 9.5365Z" fill="black"/>
<path d="M10.223 8.26694C10.179 8.26043 10.1384 8.29299 10.1318 8.33693C10.1253 8.38088 10.1579 8.42157 10.2018 8.42808C10.2458 8.43459 10.2865 8.40203 10.293 8.35809C10.2979 8.31414 10.2669 8.27183 10.223 8.26694Z" fill="black"/>
<path d="M11.6227 9.95634L10.6494 9.901L10.1855 9.95634L10.6494 10.0117L11.6227 9.95634Z" fill="black"/>
<path d="M10.6527 8.38251C10.612 8.36461 10.5632 8.38577 10.5469 8.42646C10.529 8.46715 10.5501 8.51597 10.5908 8.53225C10.6315 8.54853 10.6803 8.529 10.6966 8.48831C10.7129 8.44599 10.6934 8.39879 10.6527 8.38251Z" fill="black"/>
<path d="M11.5674 10.3763L10.6413 10.0704L10.179 10.0052L10.612 10.1778L11.5674 10.3763Z" fill="black"/>
<path d="M11.0368 8.60381C11.001 8.57614 10.9505 8.58265 10.9229 8.61846C10.8952 8.65426 10.9017 8.70472 10.9375 8.73239C10.9733 8.76006 11.0238 8.75355 11.0514 8.71774C11.0791 8.68193 11.0726 8.63148 11.0368 8.60381Z" fill="black"/>
<path d="M11.4063 10.7686L10.5908 10.2331L10.1611 10.0492L10.5339 10.3291L11.4063 10.7686Z" fill="black"/>
<path d="M11.3525 8.9196C11.3249 8.8838 11.2744 8.87729 11.2386 8.90496C11.2028 8.93262 11.1963 8.98308 11.224 9.01889C11.2516 9.05469 11.3021 9.06121 11.3379 9.03354C11.3721 9.00587 11.3802 8.95378 11.3525 8.9196Z" fill="black"/>
<path d="M11.1475 11.1039L10.498 10.3763L10.1318 10.0883L10.4199 10.4545L11.1475 11.1039Z" fill="black"/>
<path d="M11.5755 9.30365C11.5576 9.26296 11.5104 9.2418 11.4697 9.25971C11.429 9.27761 11.4079 9.32481 11.4258 9.3655C11.4437 9.40619 11.4909 9.42572 11.5316 9.40945C11.5723 9.39317 11.5918 9.34597 11.5755 9.30365Z" fill="black"/>
<path d="M10.8122 11.3627L10.3727 10.4903L10.0928 10.1176L10.2767 10.5472L10.8122 11.3627Z" fill="black"/>
<path d="M11.6895 9.73346C11.6829 9.68951 11.6423 9.65859 11.5983 9.66347C11.5544 9.66998 11.5234 9.71067 11.5283 9.75462C11.5348 9.79856 11.5755 9.82949 11.6195 9.8246C11.665 9.81972 11.696 9.77903 11.6895 9.73346Z" fill="black"/>
<path d="M10.4199 11.5237L10.2213 10.5699L10.0472 10.1354L10.1139 10.5976L10.4199 11.5237Z" fill="black"/>
</svg>
