<svg width="18" height="20" viewBox="0 0 18 20" fill="none" xmlns="http://www.w3.org/2000/svg">
<path d="M0.5 11.9992C0.5 10.1659 0.970833 8.52422 1.9125 7.07422C2.85417 5.62422 3.88637 4.38616 5.0091 3.36004C6.13182 2.33391 7.16098 1.55058 8.0966 1.01004L9.5 0.199219V4.29922C9.5 4.76172 9.65689 5.12734 9.97068 5.39609C10.2845 5.66484 10.6359 5.79922 11.025 5.79922C11.225 5.79922 11.4248 5.75449 11.6244 5.66504C11.8241 5.57561 12.0076 5.42867 12.175 5.22422L12.875 4.34922C14.275 5.14922 15.3958 6.23255 16.2375 7.59922C17.0792 8.96589 17.5 10.4326 17.5 11.9992C17.5 13.5225 17.1417 14.9117 16.425 16.1667C15.7083 17.4217 14.7583 18.4242 13.575 19.1742C13.9134 18.7115 14.1772 18.2053 14.3663 17.6558C14.5554 17.1063 14.65 16.5231 14.65 15.9061C14.65 15.1348 14.5087 14.4149 14.2262 13.7461C13.9437 13.0774 13.5388 12.4793 13.0115 11.9518L9 8.02422L5.025 11.9492C4.49167 12.4826 4.07917 13.084 3.7875 13.7536C3.49583 14.4232 3.35 15.1407 3.35 15.9059C3.35 16.5181 3.44456 17.0998 3.63367 17.6511C3.82279 18.2023 4.08657 18.71 4.425 19.1742C3.24167 18.4242 2.29167 17.4217 1.575 16.1667C0.858333 14.9117 0.5 13.5225 0.5 11.9992ZM9 12.4492L10.7708 14.1922C11.0069 14.4302 11.1875 14.6924 11.3125 14.9788C11.4375 15.2651 11.5 15.572 11.5 15.8992C11.5 16.5775 11.2564 17.1554 10.7691 17.6329C10.2819 18.1104 9.69019 18.3492 8.99413 18.3492C8.29804 18.3492 7.70833 18.1104 7.225 17.6329C6.74167 17.1554 6.5 16.5775 6.5 15.8992C6.5 15.5659 6.56214 15.2559 6.68643 14.9692C6.81071 14.6826 6.99023 14.4259 7.225 14.1992L9 12.4492Z" fill="#313131"/>
</svg>
