<svg width="24" height="24" viewBox="0 0 24 24" fill="none" xmlns="http://www.w3.org/2000/svg">
<mask id="mask0_6441_8907" style="mask-type:alpha" maskUnits="userSpaceOnUse" x="0" y="0" width="24" height="24">
<rect width="24" height="24" fill="#D9D9D9"/>
</mask>
<g mask="url(#mask0_6441_8907)">
<path d="M5.11529 20.5018C4.61818 20.5018 4.19262 20.3248 3.83862 19.9707C3.48462 19.6167 3.30762 19.1912 3.30762 18.6941V5.30951C3.30762 4.8124 3.48462 4.38684 3.83862 4.03284C4.19262 3.67882 4.61818 3.50181 5.11529 3.50181H13.8076V5.00179H5.11529C5.02554 5.00179 4.95182 5.03064 4.89412 5.08834C4.83642 5.14604 4.80757 5.21976 4.80757 5.30951V18.6941C4.80757 18.7838 4.83642 18.8575 4.89412 18.9152C4.95182 18.9729 5.02554 19.0018 5.11529 19.0018H18.4999C18.5896 19.0018 18.6633 18.9729 18.721 18.9152C18.7787 18.8575 18.8076 18.7838 18.8076 18.6941V10.0018H20.3075V18.6941C20.3075 19.1912 20.1305 19.6167 19.7765 19.9707C19.4225 20.3248 18.997 20.5018 18.4999 20.5018H5.11529ZM17.1922 8.61714V6.61714H15.1922V5.11719H17.1922V3.11719H18.6922V5.11719H20.6922V6.61714H18.6922V8.61714H17.1922ZM6.55762 16.7518H17.1344L13.846 12.3672L11.0383 16.021L9.03837 13.4634L6.55762 16.7518Z" fill="#313131"/>
</g>
</svg>
