<svg width="20" height="20" viewBox="0 0 20 20" fill="none" xmlns="http://www.w3.org/2000/svg">
<g clip-path="url(#clip0_3747_7950)">
<path d="M11.25 4.58333C12.1667 4.58333 12.9167 3.83333 12.9167 2.91667C12.9167 2 12.1667 1.25 11.25 1.25C10.3333 1.25 9.58333 2 9.58333 2.91667C9.58333 3.83333 10.3333 4.58333 11.25 4.58333ZM8.16667 7.41667L6.03333 18.175C5.925 18.6833 6.325 19.1667 6.85 19.1667H6.91667C7.30833 19.1667 7.64167 18.9 7.73333 18.5167L9.08333 12.5L10.8333 14.1667V18.3333C10.8333 18.7917 11.2083 19.1667 11.6667 19.1667C12.125 19.1667 12.5 18.7917 12.5 18.3333V13.6333C12.5 13.175 12.3167 12.7417 11.9833 12.425L10.75 11.25L11.25 8.75C12.1417 9.78333 13.4333 10.525 14.8833 10.7583C15.3833 10.8333 15.8333 10.4333 15.8333 9.925C15.8333 9.51667 15.5333 9.175 15.125 9.10833C13.8583 8.9 12.8083 8.15 12.25 7.16667L11.4167 5.83333C10.95 5.09167 10.0167 4.79167 9.20833 5.13333L6.01667 6.48333C5.4 6.75 5 7.35 5 8.025V10C5 10.4583 5.375 10.8333 5.83333 10.8333C6.29167 10.8333 6.66667 10.4583 6.66667 10V8L8.16667 7.41667Z" fill="#1BBB33"/>
</g>
<defs>
<clipPath id="clip0_3747_7950">
<rect width="20" height="20" fill="white"/>
</clipPath>
</defs>
</svg>
