<svg width="36" height="36" viewBox="0 0 36 36" fill="none" xmlns="http://www.w3.org/2000/svg">
<circle cx="18" cy="18" r="18" fill="#F3F3F3"/>
<mask id="mask0_3747_8063" style="mask-type:alpha" maskUnits="userSpaceOnUse" x="8" y="8" width="20" height="20">
<rect x="8" y="8" width="20" height="20" fill="#D9D9D9"/>
</mask>
<g mask="url(#mask0_3747_8063)">
<path d="M12.1663 24.6667V23H13.4997L15.1455 17.5208C15.2566 17.1597 15.4615 16.8715 15.7601 16.6563C16.0587 16.441 16.3886 16.3333 16.7497 16.3333H19.2497C19.6108 16.3333 19.9406 16.441 20.2393 16.6563C20.5379 16.8715 20.7427 17.1597 20.8538 17.5208L22.4997 23H23.833V24.6667H12.1663ZM17.1663 14.6667V10.5H18.833V14.6667H17.1663ZM22.1247 16.7292L20.9372 15.5417L23.8955 12.6042L25.0622 13.7708L22.1247 16.7292ZM22.9997 20.5V18.8333H27.1663V20.5H22.9997ZM13.8747 16.7292L10.9372 13.7708L12.1038 12.6042L15.0622 15.5417L13.8747 16.7292ZM8.83301 20.5V18.8333H12.9997V20.5H8.83301Z" fill="#313131"/>
</g>
</svg>
