<svg width="36" height="36" viewBox="0 0 36 36" fill="none" xmlns="http://www.w3.org/2000/svg">
<circle cx="18" cy="18" r="18" fill="#F3F3F3"/>
<mask id="mask0_3747_8051" style="mask-type:alpha" maskUnits="userSpaceOnUse" x="6" y="6" width="24" height="24">
<rect x="6" y="6" width="24" height="24" fill="#D9D9D9"/>
</mask>
<g mask="url(#mask0_3747_8051)">
<path d="M16 19.75L14.9 17.55C14.8167 17.3667 14.6917 17.2292 14.525 17.1375C14.3583 17.0458 14.1833 17 14 17H8V12C8 11.45 8.19583 10.9792 8.5875 10.5875C8.97917 10.1958 9.45 10 10 10H26C26.55 10 27.0208 10.1958 27.4125 10.5875C27.8042 10.9792 28 11.45 28 12V17H22.625L20.9 13.55C20.8167 13.3667 20.6917 13.2375 20.525 13.1625C20.3583 13.0875 20.1833 13.05 20 13.05C19.8167 13.05 19.6417 13.0875 19.475 13.1625C19.3083 13.2375 19.1833 13.3667 19.1 13.55L16 19.75ZM10 26C9.45 26 8.97917 25.8042 8.5875 25.4125C8.19583 25.0208 8 24.55 8 24V19H13.375L15.1 22.45C15.1833 22.6333 15.3083 22.7708 15.475 22.8625C15.6417 22.9542 15.8167 23 16 23C16.1833 23 16.3583 22.9542 16.525 22.8625C16.6917 22.7708 16.8167 22.6333 16.9 22.45L20 16.25L21.1 18.45C21.1833 18.6333 21.3083 18.7708 21.475 18.8625C21.6417 18.9542 21.8167 19 22 19H28V24C28 24.55 27.8042 25.0208 27.4125 25.4125C27.0208 25.8042 26.55 26 26 26H10Z" fill="#1C1B1F"/>
</g>
</svg>
