<svg width="36" height="36" viewBox="0 0 36 36" fill="none" xmlns="http://www.w3.org/2000/svg">
<circle cx="18" cy="18" r="18" fill="#F3F3F3"/>
<mask id="mask0_8473_6757" style="mask-type:alpha" maskUnits="userSpaceOnUse" x="9" y="9" width="18" height="18">
<rect x="9" y="9" width="18" height="18" fill="#D9D9D9"/>
</mask>
<g mask="url(#mask0_8473_6757)">
<path d="M11.6816 25.0672C11.0816 25.0672 10.5723 24.8578 10.1535 24.4391C9.73477 24.0203 9.52539 23.5172 9.52539 22.9297V19.1609L11.5879 13.8734C11.7629 13.4234 12.0504 13.0703 12.4504 12.8141C12.8504 12.5578 13.2941 12.4297 13.7816 12.4297C14.3441 12.4297 14.816 12.6266 15.1973 13.0203C15.5785 13.4141 15.7566 13.8922 15.7316 14.4547V15.6359L13.8004 17.5672L14.7941 18.5797L17.1191 16.2734V10.1797H18.8816V16.2734L21.2066 18.5797L22.2191 17.5672L20.2879 15.6359V14.4547C20.2629 13.8922 20.441 13.4141 20.8223 13.0203C21.2035 12.6266 21.6691 12.4297 22.2191 12.4297C22.7066 12.4297 23.1535 12.5578 23.5598 12.8141C23.966 13.0703 24.2566 13.4234 24.4316 13.8734L26.4941 19.1609V22.9297C26.4941 23.5172 26.2848 24.0203 25.866 24.4391C25.4473 24.8578 24.9379 25.0672 24.3379 25.0672H20.9066C20.3066 25.0672 19.7973 24.8578 19.3785 24.4391C18.9598 24.0203 18.7504 23.5172 18.7504 22.9297V21.6922L19.1816 19.0859L18.0004 17.8672L16.8004 19.0859L17.2504 21.6922V22.9297C17.2504 23.5172 17.0441 24.0203 16.6316 24.4391C16.2191 24.8578 15.7129 25.0672 15.1129 25.0672H11.6816Z" fill="#1C1B1F"/>
</g>
</svg>
