<svg width="28" height="28" viewBox="0 0 28 28" fill="none" xmlns="http://www.w3.org/2000/svg">
<mask id="mask0_8424_15116" style="mask-type:alpha" maskUnits="userSpaceOnUse" x="0" y="0" width="28" height="28">
<rect width="28" height="28" fill="#D9D9D9"/>
</mask>
<g mask="url(#mask0_8424_15116)">
<path d="M6.99997 22.167H10.9038V16.2888C10.9038 15.99 11.0049 15.7396 11.207 15.5375C11.4091 15.3354 11.6595 15.2343 11.9583 15.2343H16.0416C16.3404 15.2343 16.5908 15.3354 16.7929 15.5375C16.995 15.7396 17.0961 15.99 17.0961 16.2888V22.167H21V11.8465C21 11.7867 20.9869 11.7325 20.9607 11.6839C20.9345 11.6352 20.899 11.5922 20.8541 11.5549L14.2131 6.56286C14.1533 6.51052 14.0822 6.48434 14 6.48434C13.9177 6.48434 13.8467 6.51052 13.7868 6.56286L7.1458 11.5549C7.10095 11.5922 7.06542 11.6352 7.03923 11.6839C7.01306 11.7325 6.99997 11.7867 6.99997 11.8465V22.167ZM5.25 22.167V11.8465C5.25 11.5126 5.3247 11.1963 5.47409 10.8975C5.62348 10.5987 5.82998 10.3527 6.09359 10.1594L12.7346 5.15618C13.1031 4.87498 13.5243 4.73438 13.9982 4.73438C14.472 4.73438 14.8944 4.87498 15.2653 5.15618L21.9064 10.1594C22.17 10.3527 22.3765 10.5987 22.5259 10.8975C22.6752 11.1963 22.7499 11.5126 22.7499 11.8465V22.167C22.7499 22.6442 22.5776 23.0551 22.2328 23.3998C21.888 23.7446 21.4771 23.917 21 23.917H16.4006C16.1019 23.917 15.8514 23.8159 15.6493 23.6138C15.4472 23.4117 15.3461 23.1613 15.3461 22.8625V16.9843H12.6538V22.8625C12.6538 23.1613 12.5528 23.4117 12.3507 23.6138C12.1485 23.8159 11.8981 23.917 11.5993 23.917H6.99997C6.52284 23.917 6.1119 23.7446 5.76715 23.3998C5.42238 23.0551 5.25 22.6442 5.25 22.167Z" fill="#616161"/>
</g>
</svg>
