<svg width="36" height="36" viewBox="0 0 36 36" fill="none" xmlns="http://www.w3.org/2000/svg">
<circle cx="18" cy="18" r="18" fill="#F3F3F3"/>
<mask id="mask0_9293_6703" style="mask-type:alpha" maskUnits="userSpaceOnUse" x="9" y="9" width="18" height="18">
<rect x="9" y="9" width="18" height="18" fill="#D9D9D9"/>
</mask>
<g mask="url(#mask0_9293_6703)">
<path d="M15.302 25.3266V22.2703C15.2055 22.3221 15.1032 22.36 14.9952 22.3841C14.8872 22.4083 14.7833 22.4203 14.6833 22.4203C13.352 22.4203 12.2161 21.9641 11.2754 21.0516C10.3348 20.1391 9.8645 19.0203 9.8645 17.6953V15.3891C9.8645 14.0516 10.3286 12.9141 11.2567 11.9766C12.1848 11.0391 13.327 10.5703 14.6833 10.5703C15.352 10.5703 15.9161 10.812 16.3754 11.2953C16.8348 11.7786 17.0645 12.362 17.0645 13.0453C17.0645 13.7193 16.8348 14.2878 16.3754 14.7508C15.9161 15.2138 15.352 15.4453 14.6833 15.4453V17.5453C15.3458 17.5453 15.9051 17.7766 16.3614 18.2391C16.8176 18.7016 17.052 19.2641 17.0645 19.9266V25.3266H15.302ZM18.9395 25.3266V19.9266C18.952 19.2641 19.1866 18.7016 19.6434 18.2391C20.1002 17.7766 20.6593 17.5453 21.3208 17.5453V15.4453C20.6583 15.4453 20.0958 15.2138 19.6333 14.7508C19.1708 14.2878 18.9395 13.7193 18.9395 13.0453C18.9395 12.362 19.1692 11.7786 19.6286 11.2953C20.0879 10.812 20.652 10.5703 21.3208 10.5703C22.6708 10.5703 23.8145 11.0391 24.752 11.9766C25.6895 12.9141 26.1583 14.0516 26.1583 15.3891V17.6953C26.1583 19.0203 25.6833 20.1391 24.7333 21.0516C23.7833 21.9641 22.6458 22.4203 21.3208 22.4203C21.2161 22.4203 21.1126 22.4083 21.0102 22.3841C20.9079 22.36 20.8114 22.3221 20.7208 22.2703V25.3266H18.9395Z" fill="#1C1B1F"/>
</g>
</svg>
