<svg width="20" height="20" viewBox="0 0 20 20" fill="none" xmlns="http://www.w3.org/2000/svg">
<path d="M9.375 19.125V17.5625C7.47222 17.3681 5.88889 16.6389 4.625 15.375C3.36111 14.1111 2.63194 12.5278 2.4375 10.625H0.875V9.375H2.4375C2.63194 7.47222 3.36111 5.88889 4.625 4.625C5.88889 3.36111 7.47222 2.63194 9.375 2.4375V0.875H10.625V2.4375C12.5278 2.63194 14.1111 3.36111 15.375 4.625C16.6389 5.88889 17.3681 7.47222 17.5625 9.375H19.125V10.625H17.5625C17.3681 12.5278 16.6389 14.1111 15.375 15.375C14.1111 16.6389 12.5278 17.3681 10.625 17.5625V19.125H9.375ZM10 16.3333C11.7361 16.3333 13.2257 15.7118 14.4688 14.4688C15.7118 13.2257 16.3333 11.7361 16.3333 10C16.3333 8.26389 15.7118 6.77431 14.4688 5.53125C13.2257 4.28819 11.7361 3.66667 10 3.66667C8.26389 3.66667 6.77431 4.28819 5.53125 5.53125C4.28819 6.77431 3.66667 8.26389 3.66667 10C3.66667 11.7361 4.28819 13.2257 5.53125 14.4688C6.77431 15.7118 8.26389 16.3333 10 16.3333ZM10 13.125C9.125 13.125 8.38542 12.8229 7.78125 12.2188C7.17708 11.6146 6.875 10.875 6.875 10C6.875 9.125 7.17708 8.38542 7.78125 7.78125C8.38542 7.17708 9.125 6.875 10 6.875C10.875 6.875 11.6146 7.17708 12.2188 7.78125C12.8229 8.38542 13.125 9.125 13.125 10C13.125 10.875 12.8229 11.6146 12.2188 12.2188C11.6146 12.8229 10.875 13.125 10 13.125ZM10 11.875C10.5278 11.875 10.9722 11.6944 11.3333 11.3333C11.6944 10.9722 11.875 10.5278 11.875 10C11.875 9.47222 11.6944 9.02778 11.3333 8.66667C10.9722 8.30556 10.5278 8.125 10 8.125C9.47222 8.125 9.02778 8.30556 8.66667 8.66667C8.30556 9.02778 8.125 9.47222 8.125 10C8.125 10.5278 8.30556 10.9722 8.66667 11.3333C9.02778 11.6944 9.47222 11.875 10 11.875Z" fill="#212121"/>
</svg>
