<svg width="52" height="52" viewBox="0 0 52 52" fill="none" xmlns="http://www.w3.org/2000/svg">
<path d="M28 48.75C27.5417 48.75 27.0938 48.6771 26.6563 48.5313C26.2188 48.3854 25.8333 48.1458 25.5 47.8125C23.75 46.2292 21.8542 44.4063 19.8125 42.3438C17.7708 40.2813 15.875 38.0625 14.125 35.6875C12.375 33.3125 10.9167 30.8333 9.75 28.25C8.58333 25.6667 8 23.0833 8 20.5C8 18.9167 8.13542 17.4271 8.40625 16.0313C8.67708 14.6354 9.08333 13.3125 9.625 12.0625L0.9375 3.3125C0.5625 2.9375 0.375 2.5 0.375 2C0.375 1.5 0.5625 1.0625 0.9375 0.6875C1.3125 0.3125 1.76042 0.125 2.28125 0.125C2.80208 0.125 3.25 0.3125 3.625 0.6875L51.4375 48.4375C51.8125 48.8125 51.9896 49.2604 51.9688 49.7813C51.9479 50.3021 51.75 50.75 51.375 51.125C51 51.5 50.5625 51.6875 50.0625 51.6875C49.5625 51.6875 49.125 51.5 48.75 51.125L38 40.375C36.9167 41.5833 35.7604 42.8125 34.5313 44.0625C33.3021 45.3125 31.9583 46.5625 30.5 47.8125C30.1667 48.1458 29.7813 48.3854 29.3438 48.5313C28.9063 48.6771 28.4583 48.75 28 48.75ZM42.8125 34.4375L31.25 22.875C31.5833 22.5 31.8542 22.0729 32.0625 21.5938C32.2708 21.1146 32.375 20.5833 32.375 20C32.375 18.7917 31.9479 17.7604 31.0938 16.9063C30.2396 16.0521 29.2083 15.625 28 15.625C27.4167 15.625 26.8854 15.7292 26.4063 15.9375C25.9271 16.1458 25.5 16.4167 25.125 16.75L14 5.625C15.875 3.79167 18.0208 2.39583 20.4375 1.4375C22.8542 0.479167 25.375 0 28 0C33.2917 0 37.9479 1.85417 41.9688 5.5625C45.9896 9.27083 48 14.25 48 20.5C48 22.625 47.5729 24.8438 46.7188 27.1563C45.8646 29.4688 44.5625 31.8958 42.8125 34.4375Z" fill="#616161"/>
</svg>
