<svg width="24" height="24" viewBox="0 0 24 24" fill="none" xmlns="http://www.w3.org/2000/svg">
<g clip-path="url(#clip0_10261_6848)">
<path d="M9.20005 22.3981C8.38942 22.398 7.58239 22.2904 6.80005 22.0781V22.7981C6.80005 22.9042 6.84219 23.006 6.91721 23.081C6.99222 23.156 7.09396 23.1981 7.20005 23.1981H16.8C16.9061 23.1981 17.0079 23.156 17.0829 23.081C17.1579 23.006 17.2 22.9042 17.2 22.7981V22.0781C16.4177 22.2904 15.6107 22.398 14.8 22.3981H9.20005Z" fill="#313131"/>
<path d="M22.8001 12.8008H1.20005C1.09396 12.8008 0.992221 12.8429 0.917206 12.9179C0.842192 12.993 0.800049 13.0947 0.800049 13.2008C0.80259 15.4278 1.6884 17.5629 3.26316 19.1377C4.83791 20.7124 6.97301 21.5982 9.20005 21.6008H14.8C17.0271 21.5982 19.1622 20.7124 20.7369 19.1377C22.3117 17.5629 23.1975 15.4278 23.2001 13.2008C23.2001 13.0947 23.1579 12.993 23.0829 12.9179C23.0079 12.8429 22.9061 12.8008 22.8001 12.8008Z" fill="#313131"/>
<path d="M6.21429 6.44386C6.26083 6.41948 6.31172 6.40451 6.36404 6.3998C6.41637 6.39508 6.46911 6.40073 6.51926 6.4164C6.5694 6.43208 6.61597 6.45748 6.6563 6.49115C6.69663 6.52483 6.72992 6.56612 6.75429 6.61266L9.57389 11.9983H13.8939L13.9583 11.5707C13.9737 11.4775 13.9586 11.3818 13.9154 11.2978C13.8722 11.2138 13.8031 11.1459 13.7183 11.1043L13.1227 10.8083C12.8819 10.6879 12.6864 10.4929 12.5655 10.2523C12.4446 10.0118 12.4048 9.73854 12.4519 9.47346L12.5675 8.83346C12.5846 8.73944 12.5706 8.64241 12.5277 8.55704C12.4847 8.47167 12.4152 8.40259 12.3295 8.36026L11.7419 8.06706C11.5019 7.94687 11.3071 7.75255 11.1863 7.51291C11.0654 7.27326 11.025 7.00106 11.0711 6.73666L11.1599 6.27426C11.1798 6.16088 11.1553 6.04418 11.0914 5.94844C11.0274 5.85269 10.9291 5.78529 10.8167 5.76026L10.5951 5.71346C10.3386 5.6581 10.1062 5.52306 9.931 5.32765C9.75586 5.13225 9.64696 4.88647 9.61989 4.62546C9.61223 4.56003 9.59039 4.49706 9.5559 4.44093C9.52141 4.38481 9.4751 4.33687 9.42019 4.30047C9.36529 4.26407 9.3031 4.24007 9.23798 4.23016C9.17285 4.22025 9.10634 4.22465 9.04309 4.24306C8.8022 4.32117 8.54309 4.32322 8.30099 4.24894C8.05889 4.17466 7.84552 4.02764 7.68989 3.82786C7.67672 3.81463 7.66468 3.80031 7.65389 3.78506C7.61423 3.73279 7.56371 3.68973 7.50582 3.65886C7.44792 3.62799 7.38401 3.61003 7.31851 3.60623C7.25301 3.60243 7.18745 3.61287 7.12637 3.63684C7.06529 3.66081 7.01013 3.69773 6.96469 3.74506C6.78634 3.93482 6.55419 4.06547 6.29943 4.11945C6.04466 4.17343 5.77948 4.14817 5.53949 4.04706C5.47936 4.01661 5.41297 4.00056 5.34557 4.00017C5.27817 3.99978 5.2116 4.01507 5.15112 4.04482C5.09064 4.07458 5.03791 4.11799 4.99708 4.17162C4.95626 4.22525 4.92846 4.28764 4.91589 4.35386C4.86033 4.61042 4.72477 4.84273 4.52875 5.01733C4.33272 5.19194 4.08635 5.29983 3.82509 5.32546C3.7157 5.33698 3.61441 5.38845 3.5406 5.47C3.4668 5.55156 3.42567 5.65747 3.42509 5.76746C3.42468 5.81457 3.43184 5.86143 3.44629 5.90626C3.48602 6.02802 3.50587 6.15539 3.50509 6.28346C3.50477 6.48088 3.45744 6.67539 3.36702 6.85089C3.27659 7.02638 3.14567 7.17782 2.98509 7.29266C2.93134 7.33152 2.88691 7.38187 2.85503 7.44003C2.82315 7.4982 2.80462 7.56274 2.80079 7.62896C2.79696 7.69518 2.80793 7.76142 2.83289 7.82288C2.85784 7.88434 2.89617 7.93947 2.94509 7.98426C3.14054 8.1603 3.2746 8.3942 3.32771 8.65182C3.38081 8.90943 3.35018 9.17728 3.24029 9.41626L3.14909 9.62186C3.10115 9.72715 3.09591 9.84693 3.13448 9.956C3.17305 10.0651 3.25242 10.1549 3.35589 10.2067L3.77829 10.4179C4.01969 10.5372 4.21567 10.7319 4.33662 10.9725C4.45757 11.2131 4.49691 11.4865 4.44869 11.7515L4.40429 11.9995H8.67109L6.04549 6.98386C6.02111 6.93732 6.00614 6.88644 6.00142 6.83411C5.99671 6.78178 6.00236 6.72904 6.01803 6.6789C6.03371 6.62875 6.05911 6.58218 6.09278 6.54186C6.12646 6.50153 6.16775 6.46823 6.21429 6.44386Z" fill="#313131"/>
<path d="M20.9255 3.63166C20.8545 3.63735 20.7832 3.62431 20.7188 3.59385C20.6543 3.56339 20.599 3.51657 20.5583 3.45806C20.5182 3.39926 20.4945 3.33083 20.4896 3.25981C20.4848 3.18879 20.499 3.11776 20.5307 3.05406L21.0043 2.10886C20.6995 2.09786 20.3956 2.14825 20.1106 2.25703C19.8257 2.3658 19.5655 2.53075 19.3455 2.74206C19.2915 2.80694 19.2183 2.85307 19.1365 2.87384C19.0547 2.8946 18.9684 2.88894 18.8899 2.85766C18.8103 2.826 18.7427 2.76985 18.697 2.69732C18.6512 2.62478 18.6297 2.5396 18.6355 2.45406C18.6863 1.79566 18.2123 1.18766 17.8811 0.847656L17.5659 1.85686C17.5446 1.92514 17.5054 1.98646 17.4524 2.03444C17.3993 2.08242 17.3344 2.1153 17.2643 2.12966C17.1944 2.1438 17.1219 2.13911 17.0544 2.11606C16.9868 2.093 16.9266 2.05242 16.8799 1.99846C16.6398 1.74465 16.3664 1.52452 16.0671 1.34406C16.1698 1.89496 16.2247 2.45371 16.2311 3.01406C17.0335 3.12421 17.8166 3.34595 18.5575 3.67286C19.3163 3.9562 20.0324 4.34277 20.6855 4.82166C21.0786 4.42374 21.5014 4.05641 21.9503 3.72286C21.6144 3.64622 21.2697 3.61554 20.9255 3.63166Z" fill="#313131"/>
<path d="M14.7048 12.0006H18.396C18.5132 11.8406 18.6244 11.6762 18.7368 11.513L17.3448 10.953C17.2961 10.9334 17.2517 10.9043 17.2142 10.8675C17.1767 10.8307 17.1469 10.7869 17.1263 10.7386C17.0848 10.6409 17.0837 10.5308 17.1234 10.4324C17.1431 10.3837 17.1721 10.3393 17.2089 10.3018C17.2457 10.2643 17.2895 10.2344 17.3379 10.2139C17.4355 10.1724 17.5456 10.1713 17.644 10.211L19.1896 10.8346C19.622 10.1531 20.0129 9.44607 20.36 8.71741L17.4296 7.53381C17.3795 7.51521 17.3336 7.48674 17.2946 7.45009C17.2557 7.41344 17.2245 7.36936 17.2029 7.32044C17.1813 7.27152 17.1697 7.21877 17.1688 7.1653C17.1679 7.11183 17.1778 7.05872 17.1978 7.00913C17.2178 6.95954 17.2476 6.91446 17.2853 6.87656C17.323 6.83867 17.368 6.80872 17.4175 6.7885C17.467 6.76827 17.5201 6.75818 17.5735 6.75882C17.627 6.75946 17.6798 6.77081 17.7288 6.79221L20.6832 7.98501C20.7352 7.86261 20.7948 7.74501 20.8432 7.61941C20.9421 7.41486 20.9981 7.19222 21.0078 6.9652C21.0174 6.73819 20.9805 6.51161 20.8992 6.29941C20.5252 5.41661 19.2116 4.80101 18.2564 4.41461C15.8848 3.46221 14.6996 3.60821 14.1692 4.92181C14.1192 5.04581 14.0752 5.17221 14.0276 5.29741L16.244 6.19221C16.3425 6.23189 16.4211 6.30905 16.4627 6.40671C16.5042 6.50438 16.5053 6.61456 16.4656 6.71301C16.4259 6.81146 16.3488 6.89011 16.2511 6.93167C16.1534 6.97323 16.0433 6.97429 15.9448 6.93461L13.76 6.05221C13.5335 6.72598 13.3415 7.41087 13.1848 8.10421C13.2542 8.21644 13.3054 8.33887 13.3368 8.46701L16.1624 9.60981C16.2115 9.62926 16.2562 9.65822 16.294 9.69503C16.3318 9.73183 16.3619 9.77574 16.3827 9.82425C16.4034 9.87275 16.4144 9.92488 16.4149 9.97763C16.4154 10.0304 16.4055 10.0827 16.3857 10.1316C16.366 10.1805 16.3367 10.225 16.2996 10.2626C16.2626 10.3001 16.2185 10.33 16.1698 10.3504C16.1212 10.3709 16.069 10.3815 16.0162 10.3816C15.9635 10.3818 15.9112 10.3715 15.8624 10.3514L13.2976 9.31381L13.242 9.62021C13.2255 9.71459 13.24 9.81177 13.2832 9.89726C13.3265 9.98275 13.3962 10.052 13.482 10.0946L14.0772 10.3906C14.3135 10.5091 14.506 10.6997 14.6269 10.9349C14.7478 11.17 14.7907 11.4375 14.7496 11.6986L14.7048 12.0006Z" fill="#313131"/>
</g>
<defs>
<clipPath id="clip0_10261_6848">
<rect width="24" height="24" fill="white"/>
</clipPath>
</defs>
</svg>
