<svg width="24" height="24" viewBox="0 0 24 24" fill="none" xmlns="http://www.w3.org/2000/svg">
<path d="M14.906 3.33478V0.413813C14.906 0.185813 14.7206 0 14.4922 0C14.2638 0 14.0784 0.185813 14.0784 0.413813V3.33478C14.2145 3.31945 14.3523 3.31036 14.4922 3.31036C14.6321 3.31036 14.7699 3.31945 14.906 3.33478Z" fill="#313131"/>
<path d="M21.5119 11.1722C21.4266 9.97516 20.9732 8.84383 20.2059 7.91406L16.9456 11.1722H21.5119Z" fill="#313131"/>
<path d="M18.1362 1.49023C18.2037 1.40042 18.2311 1.29411 18.2149 1.18278C18.1992 1.07393 18.1416 0.976715 18.0534 0.910903C17.8766 0.778481 17.6058 0.817387 17.4737 0.993262L15.7346 3.31053V3.52775C15.9607 3.60804 16.1769 3.70897 16.3806 3.82939L18.1362 1.49023Z" fill="#313131"/>
<path d="M7.47461 15.7239H16.5423C16.332 13.4075 14.38 11.5859 12.0083 11.5859C9.63648 11.5859 7.68452 13.4075 7.47461 15.7239ZM12.0083 12.4136C13.5349 12.4136 14.891 13.3272 15.4637 14.7411L14.696 15.0515C14.2505 13.952 13.1954 13.2411 12.0083 13.2411V12.4136Z" fill="#313131"/>
<path d="M20.8945 15.7247H21.9756C23.8162 12.9373 23.5417 9.28066 21.3206 6.80078L20.7922 7.32878C21.8022 8.52381 22.3599 10.018 22.3599 11.5867C22.3599 13.0971 21.8299 14.557 20.8945 15.7247Z" fill="#313131"/>
<path d="M17.3698 15.7241H19.783C20.7942 14.7352 21.4078 13.4048 21.5097 12H16.1172L15.7959 12.3211C16.6878 13.205 17.2683 14.3984 17.3698 15.7241Z" fill="#313131"/>
<path d="M1.65649 12.8256C1.65649 13.5101 2.21384 14.067 2.89872 14.067C3.23082 14.067 3.54261 13.9379 3.77653 13.7033L4.06969 13.4104L6.3827 15.7222H6.64646C6.72057 14.7577 7.04605 13.8631 7.56362 13.1071L6.79632 12.3407L7.08949 12.0478C7.32383 11.8139 7.45344 11.5024 7.45344 11.1705C7.45344 10.4861 6.89609 9.92914 6.21121 9.92914C6.12345 9.92914 6.03193 9.94114 5.92424 9.96678L5.65218 10.0313L5.49068 9.80375C5.17847 9.36388 4.67371 9.10156 4.1408 9.10156C3.22735 9.10156 2.48453 9.84392 2.48453 10.7567C2.48453 10.8999 2.50977 11.0501 2.5632 11.2288L2.66339 11.5632L2.35034 11.7184C1.92278 11.931 1.65649 12.3552 1.65649 12.8256Z" fill="#313131"/>
<path d="M4.30042 16.5508C3.81058 16.5508 3.40563 16.9099 3.32861 17.3784H23.9999C23.9229 16.9099 23.5183 16.5508 23.0281 16.5508H4.30042Z" fill="#313131"/>
<path d="M17.391 7.13466V7.03327C17.391 5.43605 16.0904 4.13672 14.4925 4.13672C12.8946 4.13672 11.594 5.43605 11.594 7.03327V7.13466C11.594 7.31714 11.6114 7.4992 11.6454 7.67587L12.2346 10.7685C13.3248 10.8141 14.3302 11.1832 15.1596 11.7848L16.885 10.0605L17.3397 7.67625C17.3736 7.4992 17.391 7.31714 17.391 7.13466ZM15.7347 9.92981H13.2502V9.10223H15.7347V9.92981ZM15.7347 8.27466H13.2502V7.44708H15.7347V8.27466ZM16.5628 6.61945H12.4221V5.79187H16.5628V6.61945Z" fill="#313131"/>
<path d="M12.2043 24.0001H12.8362H15.1244C18.9156 24.0001 22.3619 21.6841 23.8178 18.207H3.5105C4.9668 21.6837 8.4127 24.0001 12.2043 24.0001ZM12.8362 22.345H13.6644V23.1725H12.8362V22.345ZM12.018 22.3425L11.9977 23.1701C9.16794 23.1014 6.55018 21.6403 4.99495 19.261L5.68809 18.8083C7.09472 20.9592 9.46073 22.2808 12.018 22.3425Z" fill="#313131"/>
<path d="M2.59998 18.1763C2.52338 17.971 2.48445 17.7567 2.48445 17.5386C2.48445 17.484 2.49604 17.4323 2.50059 17.3789H0.828134C0.371406 17.3789 0 17.7501 0 18.2065V23.172C0 23.6284 0.371406 23.9996 0.828134 23.9996H8.20067C5.66781 22.9179 3.60078 20.8427 2.59998 18.1763Z" fill="#313131"/>
<path d="M0.828088 16.552H2.78043C3.10465 16.055 3.66363 15.7244 4.30048 15.7244H5.21145L4.04048 14.5542C3.70468 14.7773 3.3109 14.8968 2.89849 14.8968C1.75688 14.8968 0.828134 13.9687 0.828134 12.8279C0.828134 12.6868 0.845537 12.5485 0.872836 12.4141H0.828134C0.371406 12.4141 4.44254e-09 12.7852 4.44254e-09 13.2416V15.7244C-4.69021e-05 16.1808 0.371359 16.552 0.828088 16.552Z" fill="#313131"/>
<path d="M12.6045 3.82948C12.8083 3.70905 13.0244 3.60809 13.2505 3.52784V3.31104L11.511 0.993352C11.3789 0.817477 11.1068 0.778571 10.9317 0.910571C10.8431 0.976758 10.7855 1.07402 10.7697 1.18366C10.754 1.29415 10.7809 1.40009 10.848 1.48985L12.6045 3.82948Z" fill="#313131"/>
<path d="M0.828134 11.5867H1.24926C1.37389 11.4232 1.5209 11.2751 1.69314 11.153C1.66828 11.0169 1.65627 10.8865 1.65627 10.7591C1.65627 9.38986 2.77053 8.2763 4.14072 8.2763C4.8521 8.2763 5.52911 8.58623 5.99826 9.1163C6.07073 9.108 6.14152 9.10387 6.21108 9.10387C7.35269 9.10387 8.28144 10.032 8.28144 11.1728C8.28144 11.585 8.16178 11.9785 7.9386 12.3141L8.08809 12.4635C8.392 12.1399 8.73446 11.8535 9.10962 11.6127V8.85764C9.10962 8.61145 9.0007 8.3797 8.81148 8.22164L6.88935 6.62109H2.22027L0.298138 8.22211C0.108917 8.37975 0 8.6115 0 8.85769V10.7591C0 11.2155 0.371406 11.5867 0.828134 11.5867Z" fill="#313131"/>
<path d="M6.62514 3.72241C6.62514 3.49441 6.43963 3.30859 6.21105 3.30859H2.89847C2.66989 3.30859 2.48438 3.49441 2.48438 3.72241V4.13622H6.62509V3.72241H6.62514Z" fill="#313131"/>
<path d="M2.48438 4.96484H6.62509V5.79242H2.48438V4.96484Z" fill="#313131"/>
</svg>
