<svg width="28" height="28" viewBox="0 0 28 28" fill="none" xmlns="http://www.w3.org/2000/svg">
<circle cx="14" cy="14" r="14" fill="#F3F3F3"/>
<mask id="mask0_9825_6985" style="mask-type:luminance" maskUnits="userSpaceOnUse" x="6" y="5" width="8" height="17">
<path d="M6.61475 5.92578H13.6892V21.9258H6.61475V5.92578Z" fill="white"/>
</mask>
<g mask="url(#mask0_9825_6985)">
<mask id="mask1_9825_6985" style="mask-type:luminance" maskUnits="userSpaceOnUse" x="6" y="5" width="8" height="17">
<path d="M7.72832 5.92578H12.5757C12.871 5.92578 13.1543 6.03606 13.3631 6.23256C13.5719 6.42894 13.6892 6.69539 13.6892 6.97318V20.8784C13.6892 21.1562 13.5719 21.4226 13.3631 21.619C13.1543 21.8154 12.871 21.9258 12.5757 21.9258H7.72832C7.43298 21.9258 7.1497 21.8154 6.9409 21.619C6.73211 21.4226 6.61475 21.1562 6.61475 20.8784V6.97318C6.61475 6.69539 6.73211 6.42894 6.9409 6.23256C7.1497 6.03606 7.43298 5.92578 7.72832 5.92578Z" fill="white"/>
</mask>
<g mask="url(#mask1_9825_6985)">
<path d="M6.61475 5.92578H13.6892V21.9197H6.61475V5.92578Z" fill="#616161"/>
</g>
</g>
<mask id="mask2_9825_6985" style="mask-type:luminance" maskUnits="userSpaceOnUse" x="7" y="7" width="4" height="14">
<path d="M7.54639 7.05469H10.1605V20.796H7.54639V7.05469Z" fill="white"/>
</mask>
<g mask="url(#mask2_9825_6985)">
<mask id="mask3_9825_6985" style="mask-type:luminance" maskUnits="userSpaceOnUse" x="7" y="7" width="4" height="14">
<path d="M8.65996 7.0625H9.03855C9.33389 7.0625 9.61717 7.17289 9.82597 7.36927C10.0348 7.56577 10.1521 7.83211 10.1521 8.1099V19.7465C10.1521 20.0243 10.0348 20.2907 9.82597 20.4871C9.61717 20.6836 9.33389 20.7939 9.03855 20.7939H8.65996C8.36462 20.7939 8.08145 20.6836 7.87254 20.4871C7.66375 20.2907 7.54639 20.0243 7.54639 19.7465V8.1099C7.54639 7.83211 7.66375 7.56577 7.87254 7.36927C8.08145 7.17289 8.36462 7.0625 8.65996 7.0625Z" fill="white"/>
</mask>
<g mask="url(#mask3_9825_6985)">
<path d="M7.54639 7.0625H10.1441V20.7865H7.54639V7.0625Z" fill="white"/>
</g>
</g>
<mask id="mask4_9825_6985" style="mask-type:luminance" maskUnits="userSpaceOnUse" x="10" y="7" width="3" height="14">
<path d="M10.564 7.05469H12.6933V20.796H10.564V7.05469Z" fill="white"/>
</mask>
<g mask="url(#mask4_9825_6985)">
<mask id="mask5_9825_6985" style="mask-type:luminance" maskUnits="userSpaceOnUse" x="10" y="7" width="3" height="14">
<path d="M10.7605 7.0625H12.4877C12.5963 7.0625 12.6842 7.14529 12.6842 7.24734V20.6091C12.6842 20.7112 12.5963 20.7939 12.4877 20.7939H10.7605C10.652 20.7939 10.564 20.7112 10.564 20.6091V7.24734C10.564 7.14529 10.652 7.0625 10.7605 7.0625Z" fill="white"/>
</mask>
<g mask="url(#mask5_9825_6985)">
<path d="M10.564 7.0625H12.6826V20.7865H10.564V7.0625Z" fill="white"/>
</g>
</g>
<mask id="mask6_9825_6985" style="mask-type:luminance" maskUnits="userSpaceOnUse" x="12" y="7" width="6" height="8">
<path d="M12.6841 7.72266H17.3083V14.4747H12.6841V7.72266Z" fill="white"/>
</mask>
<g mask="url(#mask6_9825_6985)">
<mask id="mask7_9825_6985" style="mask-type:luminance" maskUnits="userSpaceOnUse" x="12" y="7" width="6" height="8">
<path d="M13.7977 7.71875H16.186C16.4813 7.71875 16.7646 7.82903 16.9734 8.02552C17.1822 8.22191 17.2995 8.48836 17.2995 8.76615V13.4141C17.2995 13.6919 17.1822 13.9582 16.9734 14.1547C16.7646 14.3511 16.4813 14.4615 16.186 14.4615H13.7977C13.5023 14.4615 13.2191 14.3511 13.0102 14.1547C12.8014 13.9582 12.6841 13.6919 12.6841 13.4141V8.76615C12.6841 8.48836 12.8014 8.22191 13.0102 8.02552C13.2191 7.82903 13.5023 7.71875 13.7977 7.71875Z" fill="white"/>
</mask>
<g mask="url(#mask7_9825_6985)">
<path d="M12.6841 7.71875H17.3083V14.4595H12.6841V7.71875Z" fill="#616161"/>
</g>
</g>
<mask id="mask8_9825_6985" style="mask-type:luminance" maskUnits="userSpaceOnUse" x="14" y="8" width="3" height="6">
<path d="M14.1392 8.64062H16.2741V13.5619H14.1392V8.64062Z" fill="white"/>
</mask>
<g mask="url(#mask8_9825_6985)">
<mask id="mask9_9825_6985" style="mask-type:luminance" maskUnits="userSpaceOnUse" x="14" y="8" width="3" height="6">
<path d="M14.3352 8.64453H16.0624C16.1709 8.64453 16.2589 8.72732 16.2589 8.82937V13.3747C16.2589 13.4768 16.1709 13.5596 16.0624 13.5596H14.3352C14.2266 13.5596 14.1387 13.4768 14.1387 13.3747V8.82937C14.1387 8.72732 14.2266 8.64453 14.3352 8.64453Z" fill="white"/>
</mask>
<g mask="url(#mask9_9825_6985)">
<path d="M14.1387 8.64453H16.2573V13.5658H14.1387V8.64453Z" fill="white"/>
</g>
</g>
<mask id="mask10_9825_6985" style="mask-type:luminance" maskUnits="userSpaceOnUse" x="16" y="8" width="7" height="6">
<path d="M16.26 8.88672H22.616V13.3228H16.26V8.88672Z" fill="white"/>
</mask>
<g mask="url(#mask10_9825_6985)">
<mask id="mask11_9825_6985" style="mask-type:luminance" maskUnits="userSpaceOnUse" x="16" y="8" width="7" height="6">
<path d="M17.3741 8.88281H21.4945C21.7898 8.88281 22.0731 8.9932 22.2819 9.18959C22.4908 9.38608 22.6081 9.65242 22.6081 9.93021V12.2618C22.6081 12.5396 22.4908 12.8061 22.2819 13.0025C22.0731 13.1988 21.7898 13.3092 21.4945 13.3092H17.3741C17.0787 13.3092 16.7955 13.1988 16.5867 13.0025C16.3777 12.8061 16.2605 12.5396 16.2605 12.2618V9.93021C16.2605 9.65242 16.3777 9.38608 16.5867 9.18959C16.7955 8.9932 17.0787 8.88281 17.3741 8.88281Z" fill="white"/>
</mask>
<g mask="url(#mask11_9825_6985)">
<path d="M16.2605 8.88281H22.6165V13.3015H16.2605V8.88281Z" fill="#616161"/>
</g>
</g>
<mask id="mask12_9825_6985" style="mask-type:luminance" maskUnits="userSpaceOnUse" x="16" y="9" width="6" height="4">
<path d="M16.6748 9.55469H21.7964V12.5871H16.6748V9.55469Z" fill="white"/>
</mask>
<g mask="url(#mask12_9825_6985)">
<mask id="mask13_9825_6985" style="mask-type:luminance" maskUnits="userSpaceOnUse" x="16" y="9" width="6" height="4">
<path d="M16.8713 9.55078H21.5906C21.6991 9.55078 21.7871 9.63357 21.7871 9.73562V12.3924C21.7871 12.4946 21.6991 12.5772 21.5906 12.5772H16.8713C16.7627 12.5772 16.6748 12.4946 16.6748 12.3924V9.73562C16.6748 9.63357 16.7627 9.55078 16.8713 9.55078Z" fill="white"/>
</mask>
<g mask="url(#mask13_9825_6985)">
<path d="M16.6748 9.55078H21.778V12.5832H16.6748V9.55078Z" fill="white"/>
</g>
</g>
</svg>
