<svg width="20" height="20" viewBox="0 0 20 20" fill="none" xmlns="http://www.w3.org/2000/svg">
<path d="M2.91663 16.6693C2.58329 16.6693 2.29163 16.5443 2.04163 16.2943C1.79163 16.0443 1.66663 15.7526 1.66663 15.4193V4.58594C1.66663 4.2526 1.79163 3.96094 2.04163 3.71094C2.29163 3.46094 2.58329 3.33594 2.91663 3.33594H17.0833C17.4166 3.33594 17.7083 3.46094 17.9583 3.71094C18.2083 3.96094 18.3333 4.2526 18.3333 4.58594V15.4193C18.3333 15.7526 18.2083 16.0443 17.9583 16.2943C17.7083 16.5443 17.4166 16.6693 17.0833 16.6693H2.91663ZM9.99996 10.3776L2.91663 5.73177V15.4193H17.0833V5.73177L9.99996 10.3776ZM9.99996 9.1276L17 4.58594H3.02079L9.99996 9.1276ZM2.91663 5.73177V4.58594V15.4193V5.73177Z" fill="#616161"/>
</svg>
