<svg width="24" height="24" viewBox="0 0 24 24" fill="none" xmlns="http://www.w3.org/2000/svg">
<path d="M9.5 20C7.96667 20 6.66667 19.4667 5.6 18.4C4.53333 17.3333 4 16.0333 4 14.5C4 12.9667 4.53333 11.6667 5.6 10.6C6.66667 9.53333 7.96667 9 9.5 9C10.1 9 10.6833 9.09583 11.25 9.2875C11.8167 9.47917 12.3417 9.75 12.825 10.1L17.425 5.5H15.25C15.0375 5.5 14.8594 5.42771 14.7156 5.28313C14.5719 5.13853 14.5 4.95936 14.5 4.74563C14.5 4.53188 14.5719 4.35417 14.7156 4.2125C14.8594 4.07083 15.0375 4 15.25 4H19.25C19.4625 4 19.6406 4.07187 19.7844 4.21563C19.9281 4.35938 20 4.5375 20 4.75V8.75C20 8.9625 19.9277 9.14062 19.7831 9.28438C19.6385 9.42812 19.4594 9.5 19.2456 9.5C19.0319 9.5 18.8542 9.42812 18.7125 9.28438C18.5708 9.14062 18.5 8.9625 18.5 8.75V6.575L13.9 11.15C14.25 11.6333 14.5208 12.1625 14.7125 12.7375C14.9042 13.3125 15 13.9 15 14.5C15 16.0333 14.4667 17.3333 13.4 18.4C12.3333 19.4667 11.0333 20 9.5 20ZM9.50505 10.5C8.40168 10.5 7.45833 10.89 6.675 11.67C5.89167 12.4499 5.5 13.3916 5.5 14.495C5.5 15.5983 5.88998 16.5417 6.66995 17.325C7.44992 18.1083 8.39158 18.5 9.49495 18.5C10.5983 18.5 11.5417 18.11 12.325 17.3301C13.1083 16.5501 13.5 15.6084 13.5 14.505C13.5 13.4017 13.11 12.4583 12.3301 11.675C11.5501 10.8917 10.6084 10.5 9.50505 10.5Z" fill="#9E9E9E"/>
</svg>
