<svg width="36" height="36" viewBox="0 0 36 36" fill="none" xmlns="http://www.w3.org/2000/svg">
<circle cx="18" cy="18" r="18" fill="#FAB000" fill-opacity="0.1"/>
<path d="M36 18C36 27.9411 27.9411 36 18 36C8.05887 36 0 27.9411 0 18C0 8.05887 8.05887 0 18 0C27.9411 0 36 8.05887 36 18ZM1.8 18C1.8 26.947 9.05299 34.2 18 34.2C26.947 34.2 34.2 26.947 34.2 18C34.2 9.05299 26.947 1.8 18 1.8C9.05299 1.8 1.8 9.05299 1.8 18Z" fill="#F0CE7C"/>
<path d="M18 0.900001C18 0.402944 18.4032 -0.0023473 18.8997 0.022492C22.144 0.18482 25.2901 1.22266 28.0003 3.03355C30.9603 5.01141 33.2675 7.82263 34.6298 11.1117C35.9922 14.4008 36.3487 18.02 35.6541 21.5116C34.9596 25.0033 33.2453 28.2106 30.7279 30.7279C28.2106 33.2453 25.0033 34.9596 21.5116 35.6541C18.02 36.3487 14.4008 35.9922 11.1117 34.6298C7.82263 33.2675 5.01141 30.9603 3.03355 28.0003C1.22266 25.2901 0.18482 22.144 0.0224919 18.8997C-0.00234732 18.4032 0.402944 18 0.900001 18V18C1.39706 18 1.79739 18.4033 1.82499 18.8996C1.98558 21.7876 2.91711 24.5861 4.53019 27.0002C6.31027 29.6643 8.84037 31.7407 11.8005 32.9668C14.7607 34.193 18.018 34.5138 21.1605 33.8887C24.303 33.2636 27.1895 31.7207 29.4551 29.4551C31.7207 27.1895 33.2636 24.303 33.8887 21.1605C34.5138 18.018 34.193 14.7607 32.9668 11.8005C31.7407 8.84037 29.6643 6.31027 27.0002 4.53019C24.5861 2.91711 21.7876 1.98558 18.8996 1.82499C18.4033 1.79739 18 1.39706 18 0.900001V0.900001Z" fill="#FAB000"/>
<path d="M22.525 21.45L25.35 18.6C25.8833 18.0667 26.2917 17.4583 26.575 16.775C26.8583 16.0917 27 15.375 27 14.625C27 13.0583 26.4542 11.7292 25.3625 10.6375C24.2708 9.54583 22.9417 9 21.375 9C20.625 9 19.9083 9.14167 19.225 9.425C18.5417 9.70833 17.9333 10.1167 17.4 10.65L14.55 13.475L22.525 21.45ZM14.625 27C15.375 27 16.0917 26.8583 16.775 26.575C17.4583 26.2917 18.0667 25.8833 18.6 25.35L21.45 22.525L13.475 14.55L10.65 17.4C10.1167 17.9333 9.70833 18.5417 9.425 19.225C9.14167 19.9083 9 20.625 9 21.375C9 22.9417 9.54583 24.2708 10.6375 25.3625C11.7292 26.4542 13.0583 27 14.625 27Z" fill="#FAB000"/>
</svg>
