<svg width="18" height="18" viewBox="0 0 18 18" fill="none" xmlns="http://www.w3.org/2000/svg">
<path d="M13.525 12.45L16.35 9.6C16.8833 9.06667 17.2917 8.45833 17.575 7.775C17.8583 7.09167 18 6.375 18 5.625C18 4.05833 17.4542 2.72917 16.3625 1.6375C15.2708 0.545833 13.9417 0 12.375 0C11.625 0 10.9083 0.141667 10.225 0.425C9.54167 0.708333 8.93333 1.11667 8.4 1.65L5.55 4.475L13.525 12.45ZM5.625 18C6.375 18 7.09167 17.8583 7.775 17.575C8.45833 17.2917 9.06667 16.8833 9.6 16.35L12.45 13.525L4.475 5.55L1.65 8.4C1.11667 8.93333 0.708333 9.54167 0.425 10.225C0.141667 10.9083 0 11.625 0 12.375C0 13.9417 0.545833 15.2708 1.6375 16.3625C2.72917 17.4542 4.05833 18 5.625 18Z" fill="#FAB000"/>
</svg>
