<svg width="36" height="36" viewBox="0 0 36 36" fill="none" xmlns="http://www.w3.org/2000/svg">
<circle cx="18" cy="18" r="18" fill="#F3F3F3"/>
<path d="M22.525 21.45L25.35 18.6C25.8833 18.0667 26.2917 17.4583 26.575 16.775C26.8583 16.0917 27 15.375 27 14.625C27 13.0583 26.4542 11.7292 25.3625 10.6375C24.2708 9.54583 22.9417 9 21.375 9C20.625 9 19.9083 9.14167 19.225 9.425C18.5417 9.70833 17.9333 10.1167 17.4 10.65L14.55 13.475L22.525 21.45ZM14.625 27C15.375 27 16.0917 26.8583 16.775 26.575C17.4583 26.2917 18.0667 25.8833 18.6 25.35L21.45 22.525L13.475 14.55L10.65 17.4C10.1167 17.9333 9.70833 18.5417 9.425 19.225C9.14167 19.9083 9 20.625 9 21.375C9 22.9417 9.54583 24.2708 10.6375 25.3625C11.7292 26.4542 13.0583 27 14.625 27Z" fill="#313131"/>
</svg>
