<svg width="36" height="36" viewBox="0 0 36 36" fill="none" xmlns="http://www.w3.org/2000/svg">
<circle cx="18" cy="18" r="18" fill="#F3F3F3"/>
<mask id="mask0_4871_10774" style="mask-type:alpha" maskUnits="userSpaceOnUse" x="6" y="6" width="24" height="24">
<rect x="6" y="6" width="24" height="24" fill="#D9D9D9"/>
</mask>
<g mask="url(#mask0_4871_10774)">
<path d="M18 27C15.5 27 13.375 26.125 11.625 24.375C9.875 22.625 9 20.5 9 18C9 15.5 9.875 13.375 11.625 11.625C13.375 9.875 15.5 9 18 9C18.2333 9 18.4625 9.00833 18.6875 9.025C18.9125 9.04167 19.1333 9.06667 19.35 9.1C18.6667 9.58333 18.1208 10.2125 17.7125 10.9875C17.3042 11.7625 17.1 12.6 17.1 13.5C17.1 15 17.625 16.275 18.675 17.325C19.725 18.375 21 18.9 22.5 18.9C23.4167 18.9 24.2583 18.6958 25.025 18.2875C25.7917 17.8792 26.4167 17.3333 26.9 16.65C26.9333 16.8667 26.9583 17.0875 26.975 17.3125C26.9917 17.5375 27 17.7667 27 18C27 20.5 26.125 22.625 24.375 24.375C22.625 26.125 20.5 27 18 27Z" fill="#313131"/>
</g>
</svg>
