<svg width="36" height="36" viewBox="0 0 36 36" fill="none" xmlns="http://www.w3.org/2000/svg">
<circle cx="18" cy="18" r="18" fill="#F3F3F3"/>
<mask id="mask0_9809_6669" style="mask-type:alpha" maskUnits="userSpaceOnUse" x="6" y="6" width="24" height="24">
<rect x="6" y="6" width="24" height="24" fill="#D9D9D9"/>
</mask>
<g mask="url(#mask0_9809_6669)">
<path d="M18 23C16.6167 23 15.4375 22.5125 14.4625 21.5375C13.4875 20.5625 13 19.3833 13 18C13 16.6167 13.4875 15.4375 14.4625 14.4625C15.4375 13.4875 16.6167 13 18 13C19.3833 13 20.5625 13.4875 21.5375 14.4625C22.5125 15.4375 23 16.6167 23 18C23 19.3833 22.5125 20.5625 21.5375 21.5375C20.5625 22.5125 19.3833 23 18 23ZM8 19C7.71667 19 7.47917 18.9042 7.2875 18.7125C7.09583 18.5208 7 18.2833 7 18C7 17.7167 7.09583 17.4792 7.2875 17.2875C7.47917 17.0958 7.71667 17 8 17H10C10.2833 17 10.5208 17.0958 10.7125 17.2875C10.9042 17.4792 11 17.7167 11 18C11 18.2833 10.9042 18.5208 10.7125 18.7125C10.5208 18.9042 10.2833 19 10 19H8ZM26 19C25.7167 19 25.4792 18.9042 25.2875 18.7125C25.0958 18.5208 25 18.2833 25 18C25 17.7167 25.0958 17.4792 25.2875 17.2875C25.4792 17.0958 25.7167 17 26 17H28C28.2833 17 28.5208 17.0958 28.7125 17.2875C28.9042 17.4792 29 17.7167 29 18C29 18.2833 28.9042 18.5208 28.7125 18.7125C28.5208 18.9042 28.2833 19 28 19H26ZM18 11C17.7167 11 17.4792 10.9042 17.2875 10.7125C17.0958 10.5208 17 10.2833 17 10V8C17 7.71667 17.0958 7.47917 17.2875 7.2875C17.4792 7.09583 17.7167 7 18 7C18.2833 7 18.5208 7.09583 18.7125 7.2875C18.9042 7.47917 19 7.71667 19 8V10C19 10.2833 18.9042 10.5208 18.7125 10.7125C18.5208 10.9042 18.2833 11 18 11ZM18 29C17.7167 29 17.4792 28.9042 17.2875 28.7125C17.0958 28.5208 17 28.2833 17 28V26C17 25.7167 17.0958 25.4792 17.2875 25.2875C17.4792 25.0958 17.7167 25 18 25C18.2833 25 18.5208 25.0958 18.7125 25.2875C18.9042 25.4792 19 25.7167 19 26V28C19 28.2833 18.9042 28.5208 18.7125 28.7125C18.5208 28.9042 18.2833 29 18 29ZM11.65 13.05L10.575 12C10.375 11.8167 10.2792 11.5833 10.2875 11.3C10.2958 11.0167 10.3917 10.775 10.575 10.575C10.775 10.375 11.0167 10.275 11.3 10.275C11.5833 10.275 11.8167 10.375 12 10.575L13.05 11.65C13.2333 11.85 13.325 12.0833 13.325 12.35C13.325 12.6167 13.2333 12.85 13.05 13.05C12.8667 13.25 12.6375 13.3458 12.3625 13.3375C12.0875 13.3292 11.85 13.2333 11.65 13.05ZM24 25.425L22.95 24.35C22.7667 24.15 22.675 23.9125 22.675 23.6375C22.675 23.3625 22.7667 23.1333 22.95 22.95C23.1333 22.75 23.3625 22.6542 23.6375 22.6625C23.9125 22.6708 24.15 22.7667 24.35 22.95L25.425 24C25.625 24.1833 25.7208 24.4167 25.7125 24.7C25.7042 24.9833 25.6083 25.225 25.425 25.425C25.225 25.625 24.9833 25.725 24.7 25.725C24.4167 25.725 24.1833 25.625 24 25.425ZM22.95 13.05C22.75 12.8667 22.6542 12.6375 22.6625 12.3625C22.6708 12.0875 22.7667 11.85 22.95 11.65L24 10.575C24.1833 10.375 24.4167 10.2792 24.7 10.2875C24.9833 10.2958 25.225 10.3917 25.425 10.575C25.625 10.775 25.725 11.0167 25.725 11.3C25.725 11.5833 25.625 11.8167 25.425 12L24.35 13.05C24.15 13.2333 23.9167 13.325 23.65 13.325C23.3833 13.325 23.15 13.2333 22.95 13.05ZM10.575 25.425C10.375 25.225 10.275 24.9833 10.275 24.7C10.275 24.4167 10.375 24.1833 10.575 24L11.65 22.95C11.85 22.7667 12.0875 22.675 12.3625 22.675C12.6375 22.675 12.8667 22.7667 13.05 22.95C13.25 23.1333 13.3458 23.3625 13.3375 23.6375C13.3292 23.9125 13.2333 24.15 13.05 24.35L12 25.425C11.8167 25.625 11.5833 25.7208 11.3 25.7125C11.0167 25.7042 10.775 25.6083 10.575 25.425Z" fill="#313131"/>
</g>
</svg>
