<svg width="16" height="16" viewBox="0 0 16 16" fill="none" xmlns="http://www.w3.org/2000/svg">
<g clip-path="url(#clip0_8396_13810)">
<path d="M7.9971 15.2992C7.8546 15.2992 7.73612 15.2513 7.64168 15.1555C7.54723 15.0596 7.50001 14.9409 7.50001 14.7992V14.0492C5.97779 13.8937 4.71112 13.3103 3.70001 12.2992C2.6889 11.2881 2.10557 10.0214 1.95001 8.49922H1.20001C1.05835 8.49922 0.939596 8.45102 0.843762 8.35464C0.747929 8.25823 0.700012 8.13879 0.700012 7.9963C0.700012 7.8538 0.747929 7.73533 0.843762 7.64088C0.939596 7.54644 1.05835 7.49922 1.20001 7.49922H1.95001C2.10557 5.977 2.6889 4.71033 3.70001 3.69922C4.71112 2.68811 5.97779 2.10477 7.50001 1.94922V1.19922C7.50001 1.05755 7.54821 0.938802 7.6446 0.842969C7.74099 0.747135 7.86044 0.699219 8.00293 0.699219C8.14543 0.699219 8.2639 0.747135 8.35835 0.842969C8.45279 0.938802 8.50001 1.05755 8.50001 1.19922V1.94922C10.0222 2.10477 11.2889 2.68811 12.3 3.69922C13.3111 4.71033 13.8945 5.977 14.05 7.49922H14.8C14.9417 7.49922 15.0604 7.54741 15.1563 7.6438C15.2521 7.7402 15.3 7.85965 15.3 8.00213C15.3 8.14463 15.2521 8.26311 15.1563 8.35755C15.0604 8.452 14.9417 8.49922 14.8 8.49922H14.05C13.8945 10.0214 13.3111 11.2881 12.3 12.2992C11.2889 13.3103 10.0222 13.8937 8.50001 14.0492V14.7992C8.50001 14.9409 8.45182 15.0596 8.35543 15.1555C8.25903 15.2513 8.13958 15.2992 7.9971 15.2992ZM8.00001 13.0659C9.3889 13.0659 10.5806 12.5687 11.575 11.5742C12.5695 10.5798 13.0667 9.38811 13.0667 7.99922C13.0667 6.61033 12.5695 5.41866 11.575 4.42422C10.5806 3.42977 9.3889 2.93255 8.00001 2.93255C6.61112 2.93255 5.41946 3.42977 4.42501 4.42422C3.43057 5.41866 2.93335 6.61033 2.93335 7.99922C2.93335 9.38811 3.43057 10.5798 4.42501 11.5742C5.41946 12.5687 6.61112 13.0659 8.00001 13.0659ZM8.00001 10.4992C7.30001 10.4992 6.70835 10.2576 6.22501 9.77422C5.74168 9.29088 5.50001 8.69922 5.50001 7.99922C5.50001 7.29922 5.74168 6.70755 6.22501 6.22422C6.70835 5.74089 7.30001 5.49922 8.00001 5.49922C8.70001 5.49922 9.29168 5.74089 9.77501 6.22422C10.2583 6.70755 10.5 7.29922 10.5 7.99922C10.5 8.69922 10.2583 9.29088 9.77501 9.77422C9.29168 10.2576 8.70001 10.4992 8.00001 10.4992ZM8.00001 9.49922C8.42223 9.49922 8.77779 9.35477 9.06668 9.06588C9.35557 8.777 9.50001 8.42144 9.50001 7.99922C9.50001 7.577 9.35557 7.22144 9.06668 6.93255C8.77779 6.64366 8.42223 6.49922 8.00001 6.49922C7.57779 6.49922 7.22223 6.64366 6.93335 6.93255C6.64446 7.22144 6.50001 7.577 6.50001 7.99922C6.50001 8.42144 6.64446 8.777 6.93335 9.06588C7.22223 9.35477 7.57779 9.49922 8.00001 9.49922Z" fill="#760FB2"/>
</g>
<defs>
<clipPath id="clip0_8396_13810">
<rect width="16" height="16" fill="white"/>
</clipPath>
</defs>
</svg>
