<svg width="36" height="36" viewBox="0 0 36 36" fill="none" xmlns="http://www.w3.org/2000/svg">
<path d="M18.0006 23.8125C18.3752 23.8125 18.7 23.6748 18.975 23.3994C19.25 23.1239 19.3875 22.7989 19.3875 22.4244C19.3875 22.0498 19.2498 21.725 18.9744 21.45C18.6989 21.175 18.3739 21.0375 17.9994 21.0375C17.6248 21.0375 17.3 21.1752 17.025 21.4506C16.75 21.7261 16.6125 22.0511 16.6125 22.4256C16.6125 22.8002 16.7502 23.125 17.0256 23.4C17.3011 23.675 17.6261 23.8125 18.0006 23.8125ZM17.0625 19.1625H18.9375C18.9375 18.7875 18.9438 18.4625 18.9563 18.1875C18.9688 17.9125 19.0375 17.675 19.1625 17.475C19.2625 17.275 19.4 17.0875 19.575 16.9125C19.75 16.7375 20.0625 16.4375 20.5125 16.0125C21.0875 15.5125 21.4938 15.0188 21.7313 14.5312C21.9688 14.0438 22.0875 13.475 22.0875 12.825C22.0875 11.7076 21.7313 10.822 21.0188 10.1682C20.3063 9.5144 19.3419 9.1875 18.1258 9.1875C17.1669 9.1875 16.3 9.44763 15.525 9.96788C14.75 10.4881 14.225 11.178 13.95 12.0375L15.6375 12.7125C15.8375 12.2125 16.1625 11.8 16.6125 11.475C17.0625 11.15 17.5675 10.9875 18.1275 10.9875C18.7675 10.9875 19.275 11.1625 19.65 11.5125C20.025 11.8625 20.2125 12.325 20.2125 12.9C20.2125 13.3351 20.1125 13.7127 19.9125 14.0326C19.7125 14.3525 19.3684 14.7392 18.8802 15.1925C18.4434 15.5892 18.1063 15.9188 17.8688 16.1813C17.6313 16.4438 17.4625 16.6994 17.3625 16.9482C17.2625 17.1744 17.1875 17.4563 17.1375 17.7938C17.0875 18.1313 17.0625 18.5875 17.0625 19.1625ZM18 30.0375C21.325 27.0125 23.7812 24.2688 25.3688 21.8063C26.9563 19.3438 27.75 17.175 27.75 15.3C27.75 12.3553 26.8089 9.94406 24.9266 8.06644C23.0443 6.18881 20.7354 5.25 18 5.25C15.2646 5.25 12.9557 6.18881 11.0735 8.06644C9.19115 9.94406 8.25 12.3553 8.25 15.3C8.25 17.175 9.0625 19.3438 10.6875 21.8063C12.3125 24.2688 14.75 27.0125 18 30.0375ZM18 33C13.975 29.575 10.9688 26.3938 8.98125 23.4563C6.99375 20.5188 6 17.8 6 15.3C6 11.55 7.20625 8.5625 9.61875 6.3375C12.0313 4.1125 14.825 3 18 3C21.175 3 23.9688 4.1125 26.3813 6.3375C28.7938 8.5625 30 11.55 30 15.3C30 17.8 29.0063 20.5188 27.0188 23.4563C25.0312 26.3938 22.025 29.575 18 33Z" fill="#616161"/>
</svg>
