<svg width="48" height="48" viewBox="0 0 48 48" fill="none" xmlns="http://www.w3.org/2000/svg">
<g clip-path="url(#clip0_4026_10370)">
<path d="M31.6415 46.7504C31.3915 46.8348 31.14 46.9167 30.8867 46.992C31.1408 46.9159 31.3915 46.834 31.6415 46.7504Z" fill="#F9EDE0"/>
<path d="M32.8954 46.2902C32.6256 46.3978 32.3558 46.5037 32.0811 46.6014C32.3558 46.5029 32.6264 46.3978 32.8954 46.2902Z" fill="#F9EDE0"/>
<path d="M24 48C37.2548 48 48 37.2548 48 24C48 10.7452 37.2548 0 24 0C10.7452 0 0 10.7452 0 24C0 37.2548 10.7452 48 24 48Z" fill="#E0E0E0"/>
<path d="M22.2606 47.9305C21.9677 47.9098 21.6755 47.8874 21.3867 47.856C21.6764 47.8874 21.9685 47.9098 22.2606 47.9305Z" fill="#F9EDE0"/>
<path d="M18.3364 47.3214C18.0881 47.261 17.8415 47.1964 17.5957 47.1285C17.8415 47.1972 18.0881 47.2618 18.3364 47.3214Z" fill="#F9EDE0"/>
<path d="M20.8902 47.7931C20.6278 47.7592 20.3663 47.7236 20.1064 47.6814C20.3655 47.7236 20.6278 47.7583 20.8902 47.7931Z" fill="#F9EDE0"/>
<path d="M14.7521 46.1511C14.3789 45.9947 14.0098 45.8309 13.6465 45.6571C14.0106 45.8309 14.3797 45.9956 14.7521 46.1511Z" fill="#F9EDE0"/>
<path d="M29.1559 47.4389C28.9068 47.4935 28.6569 47.5432 28.4053 47.5895C28.656 47.5432 28.9068 47.4935 29.1559 47.4389Z" fill="#F9EDE0"/>
<path d="M27.8931 47.6805C27.6332 47.7227 27.3717 47.7583 27.1094 47.7923C27.3709 47.7583 27.6332 47.7236 27.8931 47.6805Z" fill="#F9EDE0"/>
<path d="M34.3478 45.6588C33.9861 45.8317 33.6187 45.9956 33.2471 46.1512C33.6187 45.9956 33.9861 45.8325 34.3478 45.6588Z" fill="#F9EDE0"/>
<path d="M33.2474 46.1512C33.1315 46.2 33.0132 46.243 32.8965 46.2894C33.0123 46.243 33.1307 46.2 33.2474 46.1512Z" fill="#F9EDE0"/>
<path d="M34.3874 45.6439C34.3745 45.6498 34.3606 45.6558 34.3477 45.6617C34.3606 45.6558 34.3745 45.6508 34.3874 45.6439Z" fill="#F9EDE0"/>
<path d="M20.106 47.6805C19.9347 47.6524 19.7642 47.621 19.5938 47.5895C19.7651 47.621 19.9347 47.6532 20.106 47.6805Z" fill="#F9EDE0"/>
<path d="M22.6836 47.9628C22.5421 47.9553 22.4014 47.9404 22.2607 47.9305C22.4023 47.9404 22.5421 47.9553 22.6836 47.9628Z" fill="#F9EDE0"/>
<path d="M15.1038 46.2902C14.9871 46.2438 14.8688 46.2 14.7529 46.152C14.8688 46.2 14.9871 46.243 15.1038 46.2902Z" fill="#F9EDE0"/>
<path d="M16.3574 46.7503C16.2109 46.7007 16.0628 46.6535 15.918 46.6014C16.0628 46.6535 16.2101 46.7007 16.3574 46.7503Z" fill="#F9EDE0"/>
<path d="M27.1089 47.7931C26.9433 47.8146 26.7786 47.8386 26.6123 47.856C26.7786 47.8378 26.9433 47.8146 27.1089 47.7931Z" fill="#F9EDE0"/>
<path d="M29.6627 47.3214C29.4947 47.3619 29.3259 47.4008 29.1562 47.438C29.3259 47.4016 29.4947 47.3627 29.6627 47.3214Z" fill="#F9EDE0"/>
<path d="M17.5964 47.1294C17.4351 47.0847 17.2729 47.04 17.1123 46.992C17.2729 47.04 17.4342 47.0847 17.5964 47.1294Z" fill="#F9EDE0"/>
<path d="M29.4937 25.6502C32.1677 23.8701 33.9312 20.832 33.9312 17.3793C33.9312 11.8949 29.4846 7.44827 24.0002 7.44827C18.5158 7.44827 14.0692 11.8949 14.0692 17.3793C14.0692 20.832 15.8328 23.8701 18.5067 25.6502C18.5067 25.6502 18.5075 25.651 18.5083 25.651C18.5075 25.651 18.5075 25.6502 18.5075 25.6502C12.107 27.5793 7.12324 32.7741 5.51855 39.3095L5.51938 39.3103C5.7809 39.6257 6.05235 39.9335 6.32959 40.2356C6.39662 40.3092 6.46697 40.3796 6.53566 40.4516C6.74917 40.6783 6.96518 40.9018 7.18697 41.1203C7.27883 41.2105 7.37235 41.2974 7.46586 41.3859C7.67111 41.5812 7.87883 41.7741 8.09069 41.9619C8.1958 42.0546 8.30255 42.1465 8.40849 42.2375C8.61621 42.4154 8.82642 42.5901 9.04076 42.7606C9.15331 42.8508 9.26669 42.9393 9.38007 43.0279C9.5969 43.195 9.81704 43.3572 10.0397 43.5161C10.1547 43.5981 10.2681 43.6817 10.3848 43.7619C10.6198 43.9241 10.859 44.0797 11.0998 44.2337C11.2082 44.3023 11.3141 44.3735 11.4234 44.4414C11.7015 44.6127 11.9845 44.7766 12.27 44.9371C12.3453 44.9793 12.419 45.0248 12.4951 45.0662C12.8642 45.2681 13.2391 45.4618 13.6198 45.6447C13.6289 45.6488 13.6388 45.653 13.6479 45.6571C14.0112 45.8309 14.3803 45.9956 14.7536 46.1512C14.8695 46.2 14.9878 46.243 15.1045 46.2894C15.3743 46.397 15.6441 46.5029 15.9188 46.6006C16.0645 46.6527 16.2118 46.6999 16.3583 46.7495C16.6082 46.8339 16.8598 46.9159 17.113 46.9912C17.2736 47.0392 17.435 47.0839 17.5972 47.1286C17.8421 47.1964 18.0888 47.261 18.3379 47.3214C18.5059 47.3619 18.6747 47.4008 18.8443 47.4381C19.0935 47.4927 19.3434 47.5423 19.595 47.5887C19.7654 47.6201 19.9351 47.6524 20.1072 47.6797C20.3671 47.7219 20.6286 47.7575 20.891 47.7915C21.0565 47.813 21.2212 47.837 21.3875 47.8543C21.6772 47.8858 21.9693 47.9081 22.2614 47.9288C22.403 47.9388 22.5428 47.9537 22.6843 47.9611C23.1205 47.9859 23.5583 48 24.0002 48C24.4421 48 24.8799 47.9859 25.3161 47.9628C25.4576 47.9553 25.5983 47.9404 25.739 47.9305C26.0319 47.9098 26.3241 47.8875 26.6129 47.856C26.7792 47.8378 26.9439 47.8146 27.1095 47.7931C27.3718 47.7592 27.6333 47.7236 27.8932 47.6814C28.0645 47.6532 28.235 47.6218 28.4055 47.5903C28.657 47.544 28.9078 47.4943 29.1561 47.4397C29.3257 47.4025 29.4946 47.3636 29.6626 47.323C29.9108 47.2626 30.1574 47.1981 30.4032 47.1302C30.5646 47.0855 30.7268 47.0408 30.8874 46.9928C31.1414 46.9167 31.3922 46.8348 31.6421 46.7512C31.7886 46.7015 31.9368 46.6543 32.0816 46.6022C32.3555 46.5037 32.6261 46.3986 32.8959 46.291C33.0126 46.2447 33.131 46.2008 33.2468 46.1528C33.6184 45.9972 33.9859 45.8342 34.3475 45.6604C34.3583 45.6554 34.3699 45.6505 34.3806 45.6455C34.7613 45.4626 35.1362 45.269 35.5053 45.067C35.5815 45.0257 35.6551 44.9801 35.7304 44.9379C36.0159 44.7774 36.299 44.6135 36.577 44.4422C36.6863 44.3752 36.793 44.304 36.9006 44.2345C37.1415 44.0806 37.3806 43.9241 37.6157 43.7628C37.7315 43.6825 37.8457 43.5997 37.9608 43.517C38.1834 43.3572 38.4035 43.195 38.6203 43.0287C38.7346 42.941 38.8471 42.8516 38.9597 42.7614C39.1732 42.5909 39.3842 42.4163 39.5919 42.2383C39.6987 42.1473 39.8055 42.0555 39.9097 41.9628C40.1216 41.7749 40.3293 41.5821 40.5346 41.3868C40.6272 41.2982 40.7216 41.2105 40.8135 41.1211C41.0352 40.9026 41.2521 40.6792 41.4648 40.4524C41.5326 40.3796 41.603 40.3092 41.6708 40.2364C41.9481 39.9343 42.2195 39.6265 42.481 39.3112L42.4819 39.3103C40.878 32.7741 35.8943 27.5793 29.4937 25.6502Z" fill="#919191"/>
<circle cx="39.6004" cy="39.6" r="7.2" fill="#760FB2"/>
<mask id="mask0_4026_10370" style="mask-type:alpha" maskUnits="userSpaceOnUse" x="34" y="34" width="11" height="11">
<rect x="34.2002" y="34.2" width="10.8" height="10.8" fill="#D9D9D9"/>
</mask>
<g mask="url(#mask0_4026_10370)">
<path d="M39.1502 40.05H36.4502V39.15H39.1502V36.45H40.0502V39.15H42.7502V40.05H40.0502V42.75H39.1502V40.05Z" fill="white"/>
</g>
</g>
<defs>
<clipPath id="clip0_4026_10370">
<rect width="48" height="48" fill="white"/>
</clipPath>
</defs>
</svg>
