<svg width="28" height="28" viewBox="0 0 28 28" fill="none" xmlns="http://www.w3.org/2000/svg">
<g clip-path="url(#clip0_4026_10541)">
<path d="M18.4579 27.271C18.3121 27.3203 18.1653 27.3681 18.0176 27.412C18.1658 27.3676 18.3121 27.3198 18.4579 27.271Z" fill="#F9EDE0"/>
<path d="M19.1889 27.0026C19.0315 27.0654 18.8741 27.1272 18.7139 27.1841C18.8741 27.1267 19.032 27.0654 19.1889 27.0026Z" fill="#F9EDE0"/>
<path d="M14 28C21.732 28 28 21.732 28 14C28 6.26801 21.732 0 14 0C6.26801 0 0 6.26801 0 14C0 21.732 6.26801 28 14 28Z" fill="#E0E0E0"/>
<path d="M12.9854 27.9594C12.8145 27.9474 12.6441 27.9343 12.4756 27.916C12.6446 27.9343 12.815 27.9474 12.9854 27.9594Z" fill="#F9EDE0"/>
<path d="M10.6957 27.6041C10.5509 27.5689 10.4071 27.5312 10.2637 27.4916C10.4071 27.5317 10.5509 27.5694 10.6957 27.6041Z" fill="#F9EDE0"/>
<path d="M12.1857 27.8793C12.0327 27.8595 11.8801 27.8387 11.7285 27.8141C11.8796 27.8387 12.0327 27.859 12.1857 27.8793Z" fill="#F9EDE0"/>
<path d="M8.60493 26.9215C8.3872 26.8303 8.17189 26.7347 7.95996 26.6333C8.17237 26.7347 8.38769 26.8307 8.60493 26.9215Z" fill="#F9EDE0"/>
<path d="M17.0072 27.6727C16.8619 27.7045 16.7161 27.7335 16.5693 27.7605C16.7156 27.7335 16.8619 27.7045 17.0072 27.6727Z" fill="#F9EDE0"/>
<path d="M16.2707 27.8136C16.1191 27.8382 15.9665 27.859 15.8135 27.8788C15.966 27.859 16.1191 27.8387 16.2707 27.8136Z" fill="#F9EDE0"/>
<path d="M20.0356 26.6343C19.8247 26.7352 19.6103 26.8308 19.3936 26.9215C19.6103 26.8308 19.8247 26.7357 20.0356 26.6343Z" fill="#F9EDE0"/>
<path d="M19.3941 26.9215C19.3266 26.95 19.2575 26.9751 19.1895 27.0021C19.257 26.9751 19.3261 26.95 19.3941 26.9215Z" fill="#F9EDE0"/>
<path d="M20.0593 26.6256C20.0518 26.6291 20.0437 26.6325 20.0361 26.636C20.0437 26.6325 20.0518 26.6296 20.0593 26.6256Z" fill="#F9EDE0"/>
<path d="M11.7285 27.8136C11.6286 27.7972 11.5291 27.7789 11.4297 27.7605C11.5296 27.7789 11.6286 27.7977 11.7285 27.8136Z" fill="#F9EDE0"/>
<path d="M13.232 27.9783C13.1495 27.9739 13.0674 27.9652 12.9854 27.9594C13.0679 27.9652 13.1495 27.9739 13.232 27.9783Z" fill="#F9EDE0"/>
<path d="M8.81016 27.0026C8.74209 26.9756 8.67305 26.95 8.60547 26.922C8.67305 26.95 8.74209 26.9751 8.81016 27.0026Z" fill="#F9EDE0"/>
<path d="M9.5415 27.271C9.45605 27.242 9.36964 27.2145 9.28516 27.1841C9.36964 27.2145 9.45557 27.242 9.5415 27.271Z" fill="#F9EDE0"/>
<path d="M15.8131 27.8793C15.7165 27.8919 15.6205 27.9059 15.5234 27.916C15.6205 27.9054 15.7165 27.8919 15.8131 27.8793Z" fill="#F9EDE0"/>
<path d="M17.3033 27.6041C17.2053 27.6278 17.1068 27.6505 17.0078 27.6722C17.1068 27.651 17.2053 27.6283 17.3033 27.6041Z" fill="#F9EDE0"/>
<path d="M10.2648 27.4921C10.1707 27.4661 10.0761 27.44 9.98242 27.412C10.0761 27.44 10.1702 27.4661 10.2648 27.4921Z" fill="#F9EDE0"/>
<path d="M17.2043 14.9626C18.7641 13.9242 19.7928 12.152 19.7928 10.1379C19.7928 6.93868 17.199 4.34482 13.9997 4.34482C10.8005 4.34482 8.20661 6.93868 8.20661 10.1379C8.20661 12.152 9.23537 13.9242 10.7952 14.9626C10.7952 14.9626 10.7956 14.9631 10.7961 14.9631C10.7956 14.9631 10.7956 14.9626 10.7956 14.9626C7.06199 16.0879 4.15482 19.1182 3.21875 22.9305L3.21923 22.931C3.37178 23.115 3.53013 23.2945 3.69185 23.4708C3.73096 23.5137 3.77199 23.5548 3.81206 23.5968C3.93661 23.729 4.06261 23.8594 4.19199 23.9868C4.24558 24.0394 4.30013 24.0901 4.35468 24.1418C4.47441 24.2557 4.59558 24.3682 4.71916 24.4778C4.78047 24.5319 4.84275 24.5854 4.90454 24.6385C5.02572 24.7423 5.14834 24.8442 5.27337 24.9436C5.33903 24.9963 5.40516 25.0479 5.4713 25.0996C5.59778 25.1971 5.7262 25.2917 5.85606 25.3844C5.92316 25.4322 5.9893 25.481 6.05737 25.5278C6.19447 25.6224 6.33399 25.7132 6.47447 25.803C6.53772 25.843 6.59951 25.8845 6.66323 25.9241C6.82544 26.0241 6.99054 26.1196 7.15709 26.2133C7.20103 26.2379 7.24399 26.2645 7.2884 26.2886C7.50372 26.4064 7.72241 26.5194 7.94447 26.6261C7.94978 26.6285 7.95558 26.6309 7.96089 26.6333C8.17282 26.7347 8.38813 26.8308 8.60585 26.9215C8.67344 26.95 8.74247 26.9751 8.81054 27.0021C8.96792 27.0649 9.1253 27.1267 9.28558 27.1836C9.37054 27.2141 9.45647 27.2416 9.54192 27.2705C9.68772 27.3198 9.83447 27.3676 9.9822 27.4115C10.0759 27.4395 10.17 27.4656 10.2646 27.4916C10.4075 27.5312 10.5514 27.5689 10.6967 27.6041C10.7947 27.6278 10.8932 27.6505 10.9921 27.6722C11.1374 27.7041 11.2832 27.733 11.43 27.7601C11.5294 27.7784 11.6284 27.7972 11.7288 27.8132C11.8804 27.8378 12.033 27.8585 12.186 27.8783C12.2825 27.8909 12.3786 27.9049 12.4756 27.915C12.6446 27.9334 12.815 27.9464 12.9854 27.9585C13.068 27.9643 13.1496 27.973 13.2321 27.9773C13.4865 27.9918 13.7419 28 13.9997 28C14.2575 28 14.5129 27.9918 14.7673 27.9783C14.8499 27.9739 14.9319 27.9652 15.014 27.9594C15.1849 27.9474 15.3553 27.9343 15.5238 27.916C15.6208 27.9054 15.7169 27.8919 15.8134 27.8793C15.9665 27.8595 16.119 27.8388 16.2706 27.8141C16.3705 27.7977 16.47 27.7794 16.5694 27.761C16.7162 27.734 16.8625 27.705 17.0073 27.6732C17.1063 27.6514 17.2048 27.6288 17.3027 27.6051C17.4476 27.5699 17.5914 27.5322 17.7348 27.4926C17.829 27.4665 17.9236 27.4405 18.0172 27.4125C18.1654 27.3681 18.3117 27.3203 18.4575 27.2715C18.543 27.2425 18.6294 27.215 18.7139 27.1846C18.8736 27.1272 19.0315 27.0659 19.1889 27.0031C19.257 26.9761 19.326 26.9505 19.3936 26.9225C19.6103 26.8317 19.8247 26.7366 20.0356 26.6352C20.0419 26.6323 20.0487 26.6294 20.055 26.6265C20.277 26.5199 20.4957 26.4069 20.711 26.2891C20.7554 26.265 20.7984 26.2384 20.8423 26.2138C21.0089 26.1201 21.174 26.0245 21.3362 25.9246C21.3999 25.8855 21.4622 25.844 21.525 25.8034C21.6654 25.7136 21.805 25.6224 21.9421 25.5283C22.0096 25.4814 22.0763 25.4332 22.1434 25.3849C22.2732 25.2917 22.4016 25.1971 22.5281 25.1001C22.5947 25.0489 22.6604 24.9967 22.7261 24.9441C22.8506 24.8447 22.9737 24.7428 23.0949 24.639C23.1572 24.5859 23.2194 24.5323 23.2803 24.4783C23.4039 24.3687 23.525 24.2562 23.6448 24.1423C23.6988 24.0906 23.7539 24.0394 23.8074 23.9873C23.9368 23.8599 24.0633 23.7295 24.1874 23.5972C24.227 23.5548 24.268 23.5137 24.3076 23.4712C24.4693 23.295 24.6276 23.1154 24.7802 22.9315L24.7807 22.931C23.8451 19.1182 20.9379 16.0879 17.2043 14.9626Z" fill="#919191"/>
</g>
<defs>
<clipPath id="clip0_4026_10541">
<rect width="28" height="28" fill="white"/>
</clipPath>
</defs>
</svg>
