<svg width="28" height="28" viewBox="0 0 28 28" fill="none" xmlns="http://www.w3.org/2000/svg">
<g clip-path="url(#clip0_8396_13412)">
<path d="M10.2793 12.794C10.9257 12.794 11.4497 12.27 11.4497 11.6236C11.4497 10.9771 10.9257 10.4531 10.2793 10.4531C9.6329 10.4531 9.10889 10.9771 9.10889 11.6236C9.10889 12.27 9.6329 12.794 10.2793 12.794Z" fill="#605AE0"/>
<path d="M17.7149 17.544C18.3613 17.544 18.8853 17.02 18.8853 16.3736C18.8853 15.7271 18.3613 15.2031 17.7149 15.2031C17.0685 15.2031 16.5444 15.7271 16.5444 16.3736C16.5444 17.02 17.0685 17.544 17.7149 17.544Z" fill="#605AE0"/>
<path d="M27.3652 15.5462L26.9406 14.9667C26.4816 14.3356 26.4702 13.4808 26.9234 12.8382L27.3365 12.253C27.9676 11.3579 27.675 10.1129 26.7054 9.59081L26.0743 9.2523C25.3858 8.88511 25.0071 8.1163 25.1391 7.34175L25.2596 6.63605C25.4432 5.55742 24.6342 4.55912 23.5384 4.51322L22.8212 4.48453C22.0409 4.45011 21.3639 3.92227 21.1459 3.17067L20.9451 2.48218C20.641 1.4265 19.482 0.881453 18.4722 1.31749L17.8124 1.59863C17.0953 1.90845 16.2576 1.72485 15.7355 1.13964L15.2593 0.606058C14.5307 -0.208651 13.2512 -0.202913 12.5283 0.629008L12.0578 1.16832C11.5415 1.75927 10.7096 1.95434 9.98665 1.656L9.32111 1.38061C8.30559 0.961776 7.15812 1.52978 6.86551 2.58546L6.67618 3.27968C6.46963 4.03702 5.80409 4.57633 5.02381 4.61649L4.30663 4.65665C3.21079 4.71977 2.41903 5.72955 2.61984 6.80817L2.7518 7.51387C2.89524 8.28268 2.52804 9.05723 1.84529 9.4359L1.21992 9.78588C0.261776 10.3195 -0.0136189 11.5702 0.634706 12.4538L1.05927 13.0332C1.51826 13.6644 1.52974 14.5192 1.07648 15.1618L0.663393 15.747C0.0322802 16.6421 0.324887 17.8871 1.29451 18.4092L1.92562 18.7477C2.6141 19.1149 2.99277 19.8837 2.86081 20.6582L2.74033 21.3639C2.55673 22.4426 3.3657 23.4409 4.46154 23.4868L5.17872 23.5154C5.959 23.5499 6.63601 24.0777 6.85403 24.8293L7.05484 25.5178C7.35892 26.5735 8.51788 27.1185 9.52766 26.6825L10.1875 26.4014C10.9046 26.0915 11.7423 26.2751 12.2644 26.8603L12.7406 27.3939C13.475 28.2086 14.7544 28.2029 15.4716 27.371L15.9421 26.8317C16.4584 26.2407 17.2903 26.0456 18.0133 26.344L18.6788 26.6194C19.6943 27.0382 20.8418 26.4702 21.1344 25.4145L21.3237 24.7203C21.5303 23.963 22.1958 23.4236 22.9761 23.3835L23.6933 23.3433C24.7891 23.2802 25.5809 22.2704 25.3801 21.1918L25.2481 20.4861C25.1047 19.7173 25.4719 18.9427 26.1546 18.5641L26.78 18.2141C27.7381 17.6863 28.0135 16.4355 27.3652 15.5462ZM7.45072 11.6218C7.45072 10.0613 8.71295 8.79905 10.2735 8.79905C11.8341 8.79905 13.0963 10.0613 13.0963 11.6218C13.0963 13.1824 11.8341 14.4446 10.2735 14.4446C8.71295 14.4446 7.45072 13.1767 7.45072 11.6218ZM10.8186 18.9026C10.5776 19.1952 10.1416 19.2354 9.84895 18.9944C9.55634 18.7534 9.51618 18.3174 9.75715 18.0248L17.1641 9.10313C17.4051 8.81052 17.8411 8.77036 18.1337 9.01133C18.4263 9.2523 18.4665 9.68834 18.2255 9.98095L10.8186 18.9026ZM17.7149 19.1952C16.1543 19.1952 14.8921 17.933 14.8921 16.3724C14.8921 14.8118 16.1543 13.5496 17.7149 13.5496C19.2755 13.5496 20.5377 14.8118 20.5377 16.3724C20.5377 17.933 19.2755 19.1952 17.7149 19.1952Z" fill="#605AE0"/>
</g>
<defs>
<clipPath id="clip0_8396_13412">
<rect width="28" height="28" fill="white"/>
</clipPath>
</defs>
</svg>
