<svg width="24" height="24" viewBox="0 0 24 24" fill="none" xmlns="http://www.w3.org/2000/svg">
<path d="M12 21C10.3333 21 8.91667 20.4167 7.75 19.25C6.58333 18.0833 6 16.6667 6 15C6 13.45 6.50417 12.1167 7.5125 11C8.52083 9.88333 9.76667 9.23333 11.25 9.05V3H12.75V9.05C14.25 9.23333 15.5 9.88333 16.5 11C17.5 12.1167 18 13.45 18 15C18 16.6667 17.4167 18.0833 16.25 19.25C15.0833 20.4167 13.6667 21 12 21ZM12 19.5C13.1333 19.5 14.1083 19.1417 14.925 18.425C15.7417 17.7083 16.2417 16.8167 16.425 15.75H7.575C7.75833 16.8167 8.2625 17.7083 9.0875 18.425C9.9125 19.1417 10.8833 19.5 12 19.5ZM7.55 14.25H16.45C16.2667 13.1667 15.7625 12.2708 14.9375 11.5625C14.1125 10.8542 13.1333 10.5 12 10.5C10.8833 10.5 9.90833 10.8542 9.075 11.5625C8.24167 12.2708 7.73333 13.1667 7.55 14.25Z" fill="#919191"/>
</svg>
