<svg width="28" height="28" viewBox="0 0 28 28" fill="none" xmlns="http://www.w3.org/2000/svg">
<path d="M14 17.2109C14.9994 17.2109 15.9006 16.9776 16.7037 16.5109C17.5068 16.0443 18.1514 15.422 18.6375 14.6443C17.9764 14.1387 17.2549 13.7595 16.4729 13.5068C15.6909 13.254 14.8645 13.1276 13.9937 13.1276C13.1229 13.1276 12.2986 13.254 11.5208 13.5068C10.7431 13.7595 10.0236 14.1387 9.3625 14.6443C9.84861 15.422 10.4932 16.0443 11.2963 16.5109C12.0994 16.9776 13.0006 17.2109 14 17.2109ZM14.0026 11.3776C14.5648 11.3776 15.0451 11.1774 15.4438 10.7771C15.8424 10.3768 16.0417 9.89552 16.0417 9.33334C16.0417 8.77118 15.8415 8.2908 15.4412 7.89219C15.0408 7.49358 14.5596 7.29427 13.9974 7.29427C13.4352 7.29427 12.9549 7.49444 12.5563 7.89478C12.1576 8.29511 11.9583 8.77636 11.9583 9.33853C11.9583 9.90069 12.1585 10.3811 12.5588 10.7797C12.9592 11.1783 13.4404 11.3776 14.0026 11.3776ZM14 23.3651C16.5861 21.0123 18.4965 18.8783 19.7313 16.963C20.966 15.0477 21.5833 13.3609 21.5833 11.9026C21.5833 9.61224 20.8513 7.73688 19.3873 6.2765C17.9233 4.81613 16.1276 4.08594 14 4.08594C11.8724 4.08594 10.0767 4.81613 8.61268 6.2765C7.14867 7.73688 6.41667 9.61224 6.41667 11.9026C6.41667 13.3609 7.04861 15.0477 8.3125 16.963C9.57639 18.8783 11.4722 21.0123 14 23.3651ZM14 25.6693C10.8694 23.0054 8.53125 20.5311 6.98542 18.2464C5.43958 15.9616 4.66667 13.847 4.66667 11.9026C4.66667 8.98594 5.60486 6.66233 7.48125 4.93177C9.35764 3.20122 11.5306 2.33594 14 2.33594C16.4694 2.33594 18.6424 3.20122 20.5188 4.93177C22.3951 6.66233 23.3333 8.98594 23.3333 11.9026C23.3333 13.847 22.5604 15.9616 21.0146 18.2464C19.4688 20.5311 17.1306 23.0054 14 25.6693Z" fill="#616161"/>
</svg>
