<svg width="14" height="22" viewBox="0 0 14 22" fill="none" xmlns="http://www.w3.org/2000/svg">
<path d="M0.500079 20.8067C0.500079 18.4836 0.977003 16.6381 1.93085 15.2702C2.8847 13.9023 4.18919 12.4785 5.8443 10.9991C4.18277 9.51957 2.87509 8.09586 1.92125 6.72791C0.967403 5.35997 0.490479 3.51447 0.490479 1.19138V0.941382C0.490479 0.728565 0.56227 0.550366 0.705853 0.406783C0.849437 0.263199 1.02764 0.191406 1.24045 0.191406C1.45327 0.191406 1.63147 0.263199 1.77505 0.406783C1.91864 0.550366 1.99043 0.728565 1.99043 0.941382V1.19138C1.99043 1.45165 1.9978 1.69781 2.01255 1.92986C2.0273 2.16191 2.05263 2.39012 2.08853 2.61448H11.902C11.9379 2.39012 11.9632 2.16191 11.9779 1.92986C11.9927 1.69781 12.0001 1.45165 12.0001 1.19138V0.941382C12.0001 0.728565 12.0718 0.550366 12.2154 0.406783C12.359 0.263199 12.5372 0.191406 12.75 0.191406C12.9628 0.191406 13.141 0.263199 13.2846 0.406783C13.4282 0.550366 13.5 0.728565 13.5 0.941382V1.19138C13.5 3.51447 13.0231 5.35997 12.0693 6.72791C11.1154 8.09586 9.81092 9.51957 8.1558 10.9991C9.81092 12.4721 11.1154 13.8943 12.0693 15.2654C13.0231 16.6365 13.5 18.4836 13.5 20.8067V21.0567C13.5 21.2695 13.4282 21.4477 13.2846 21.5913C13.141 21.7349 12.9628 21.8067 12.75 21.8067C12.5372 21.8067 12.359 21.7349 12.2154 21.5913C12.0718 21.4477 12.0001 21.2695 12.0001 21.0567V20.8067C12.0001 20.5465 11.9927 20.3003 11.9779 20.0683C11.9632 19.8362 11.9379 19.608 11.902 19.3836H2.09813C2.06223 19.608 2.03691 19.8362 2.02218 20.0683C2.00743 20.3003 2.00005 20.5465 2.00005 20.8068V21.0568C2.00005 21.2696 1.92826 21.4477 1.78468 21.5913C1.6411 21.7349 1.4629 21.8067 1.25008 21.8067C1.03726 21.8067 0.859062 21.7349 0.715479 21.5913C0.571879 21.4477 0.500079 21.2695 0.500079 21.0567V20.8067ZM3.5943 6.49908H10.3962C10.6577 6.13755 10.8885 5.76479 11.0885 5.38081C11.2885 4.99682 11.4584 4.57471 11.5981 4.11446H2.39235C2.5385 4.56446 2.70838 4.98241 2.90198 5.36831C3.09558 5.75421 3.32635 6.13113 3.5943 6.49908ZM7.00005 10.0164C7.39109 9.66895 7.76577 9.32792 8.1241 8.99331C8.48244 8.65869 8.8193 8.32727 9.13468 7.99906H4.8558C5.17119 8.32727 5.50965 8.65869 5.8712 8.99331C6.23274 9.32792 6.60902 9.66895 7.00005 10.0164ZM4.86543 13.9991H9.13468C8.8193 13.6708 8.48244 13.3394 8.1241 13.0048C7.76577 12.6702 7.39109 12.3292 7.00005 11.9817C6.60902 12.3292 6.23434 12.6702 5.876 13.0048C5.51767 13.3394 5.18081 13.6708 4.86543 13.9991ZM2.40198 17.8837H11.5981C11.452 17.4337 11.2821 17.0157 11.0885 16.6298C10.8949 16.2439 10.6642 15.867 10.3962 15.499H3.6039C3.33595 15.867 3.10358 16.2413 2.90678 16.6221C2.70998 17.0029 2.54171 17.4234 2.40198 17.8837Z" fill="#313131"/>
</svg>
