<svg width="24" height="24" viewBox="0 0 24 24" fill="none" xmlns="http://www.w3.org/2000/svg">
<path d="M2.74563 6.325C2.53187 6.325 2.35417 6.25313 2.2125 6.10938C2.07083 5.96563 2 5.7875 2 5.575V2.75C2 2.5375 2.07188 2.35938 2.21563 2.21563C2.35938 2.07188 2.5375 2 2.75 2H5.575C5.7875 2 5.96563 2.07229 6.10938 2.21687C6.25313 2.36147 6.325 2.54064 6.325 2.75437C6.325 2.96812 6.25313 3.14583 6.10938 3.2875C5.96563 3.42917 5.7875 3.5 5.575 3.5H3.5V5.575C3.5 5.7875 3.42771 5.96563 3.28313 6.10938C3.13853 6.25313 2.95936 6.325 2.74563 6.325ZM2.75 22C2.5375 22 2.35938 21.9281 2.21563 21.7844C2.07188 21.6406 2 21.4625 2 21.25V18.425C2 18.2125 2.07229 18.0344 2.21688 17.8906C2.36148 17.7469 2.54064 17.675 2.75438 17.675C2.96813 17.675 3.14583 17.7469 3.2875 17.8906C3.42917 18.0344 3.5 18.2125 3.5 18.425V20.5H5.575C5.7875 20.5 5.96563 20.5723 6.10938 20.7169C6.25313 20.8615 6.325 21.0406 6.325 21.2544C6.325 21.4681 6.25313 21.6458 6.10938 21.7875C5.96563 21.9292 5.7875 22 5.575 22H2.75ZM18.425 22C18.2125 22 18.0344 21.9277 17.8906 21.7831C17.7469 21.6385 17.675 21.4594 17.675 21.2456C17.675 21.0319 17.7469 20.8542 17.8906 20.7125C18.0344 20.5708 18.2125 20.5 18.425 20.5H20.5V18.425C20.5 18.2125 20.5723 18.0344 20.7169 17.8906C20.8615 17.7469 21.0406 17.675 21.2544 17.675C21.4681 17.675 21.6458 17.7469 21.7875 17.8906C21.9292 18.0344 22 18.2125 22 18.425V21.25C22 21.4625 21.9281 21.6406 21.7844 21.7844C21.6406 21.9281 21.4625 22 21.25 22H18.425ZM21.2456 6.325C21.0319 6.325 20.8542 6.25313 20.7125 6.10938C20.5708 5.96563 20.5 5.7875 20.5 5.575V3.5H18.425C18.2125 3.5 18.0344 3.42771 17.8906 3.28313C17.7469 3.13853 17.675 2.95936 17.675 2.74563C17.675 2.53188 17.7469 2.35417 17.8906 2.2125C18.0344 2.07083 18.2125 2 18.425 2H21.25C21.4625 2 21.6406 2.07188 21.7844 2.21563C21.9281 2.35938 22 2.5375 22 2.75V5.575C22 5.7875 21.9277 5.96563 21.7831 6.10938C21.6385 6.25313 21.4594 6.325 21.2456 6.325ZM17.7 17.725H19.275V19.3H17.7V17.725ZM17.7 14.575H19.275V16.15H17.7V14.575ZM16.125 16.15H17.7V17.725H16.125V16.15ZM14.55 17.725H16.125V19.3H14.55V17.725ZM12.975 16.15H14.55V17.725H12.975V16.15ZM16.125 13H17.7V14.575H16.125V13ZM14.55 14.575H16.125V16.15H14.55V14.575ZM12.975 13H14.55V14.575H12.975V13ZM19.275 4.7V11H12.975V4.7H19.275ZM11 13V19.3H4.7V13H11ZM11 4.7V11H4.7V4.7H11ZM9.75 18.05V14.25H5.95V18.05H9.75ZM9.75 9.75V5.95H5.95V9.75H9.75ZM18.025 9.75V5.95H14.225V9.75H18.025Z" fill="#760FB2"/>
</svg>
