<svg width="20" height="20" viewBox="0 0 20 20" fill="none" xmlns="http://www.w3.org/2000/svg">
<path d="M3.95866 17.5C3.31977 17.5 2.7781 17.2778 2.33366 16.8333C1.88921 16.3889 1.66699 15.8472 1.66699 15.2083V11.5833C1.66699 11.5139 1.67394 11.441 1.68783 11.3646C1.70171 11.2882 1.72255 11.2153 1.75033 11.1458L3.91699 5.54166C4.08366 5.11111 4.36144 4.7743 4.75033 4.53125C5.13921 4.28819 5.56283 4.16666 6.02116 4.16666C6.60449 4.16666 7.10102 4.37153 7.51074 4.78125C7.92046 5.19097 8.12533 5.6875 8.12533 6.27083V7.54166L6.50033 9.16666C6.37533 9.29166 6.3163 9.4375 6.32324 9.60416C6.33019 9.77083 6.39616 9.91666 6.52116 10.0417C6.64616 10.1667 6.79546 10.2292 6.96908 10.2292C7.14269 10.2292 7.29199 10.1667 7.41699 10.0417L9.37533 8.08333V2.29166C9.37533 2.11111 9.43435 1.9618 9.55241 1.84375C9.67046 1.72569 9.81977 1.66666 10.0003 1.66666C10.1809 1.66666 10.3302 1.72569 10.4482 1.84375C10.5663 1.9618 10.6253 2.11111 10.6253 2.29166V8.08333L12.6045 10.0625C12.7295 10.1875 12.8788 10.2465 13.0524 10.2396C13.226 10.2326 13.3753 10.1667 13.5003 10.0417C13.6253 9.91666 13.6878 9.76736 13.6878 9.59375C13.6878 9.42014 13.6253 9.27083 13.5003 9.14583L11.8753 7.54166V6.27083C11.8753 5.6875 12.0802 5.19097 12.4899 4.78125C12.8996 4.37153 13.3962 4.16666 13.9795 4.16666C14.4378 4.16666 14.8614 4.28819 15.2503 4.53125C15.6392 4.7743 15.917 5.11111 16.0837 5.54166L18.2503 11.1458C18.2781 11.2153 18.2989 11.2882 18.3128 11.3646C18.3267 11.441 18.3337 11.5139 18.3337 11.5833V15.2083C18.3337 15.8472 18.1114 16.3889 17.667 16.8333C17.2225 17.2778 16.6809 17.5 16.042 17.5H13.1253C12.4864 17.5 11.9448 17.2778 11.5003 16.8333C11.0559 16.3889 10.8337 15.8472 10.8337 15.2083V13.8333C10.8337 13.8056 10.8371 13.7778 10.8441 13.75C10.851 13.7222 10.8545 13.6944 10.8545 13.6667L11.2712 10.5L10.0003 9.20833L8.70866 10.5L9.14616 13.6667C9.14616 13.6944 9.14963 13.7222 9.15658 13.75C9.16352 13.7778 9.16699 13.8056 9.16699 13.8333V15.2083C9.16699 15.8472 8.94477 16.3889 8.50033 16.8333C8.05588 17.2778 7.51421 17.5 6.87533 17.5H3.95866Z" fill="#FF3333"/>
</svg>
