<svg width="36" height="36" viewBox="0 0 36 36" fill="none" xmlns="http://www.w3.org/2000/svg">
<circle cx="18" cy="18" r="18" fill="#F3F3F3"/>
<mask id="mask0_9701_6671" style="mask-type:alpha" maskUnits="userSpaceOnUse" x="6" y="6" width="24" height="24">
<rect x="6" y="6" width="24" height="24" fill="#D9D9D9"/>
</mask>
<g mask="url(#mask0_9701_6671)">
<path d="M11.0007 27C10.1507 27 9.54651 26.6208 9.18817 25.8625C8.82984 25.1042 8.91734 24.4 9.45067 23.75L15.0007 17V11H14.0007C13.7173 11 13.4798 10.9042 13.2882 10.7125C13.0965 10.5208 13.0007 10.2833 13.0007 10C13.0007 9.71667 13.0965 9.47917 13.2882 9.2875C13.4798 9.09583 13.7173 9 14.0007 9H22.0007C22.284 9 22.5215 9.09583 22.7132 9.2875C22.9048 9.47917 23.0007 9.71667 23.0007 10C23.0007 10.2833 22.9048 10.5208 22.7132 10.7125C22.5215 10.9042 22.284 11 22.0007 11H21.0007V17L26.5507 23.75C27.084 24.4 27.1715 25.1042 26.8132 25.8625C26.4548 26.6208 25.8507 27 25.0007 27H11.0007Z" fill="#313131"/>
</g>
</svg>
