<svg width="36" height="36" viewBox="0 0 36 36" fill="none" xmlns="http://www.w3.org/2000/svg">
<circle cx="18" cy="18" r="18" fill="#F3F3F3"/>
<mask id="mask0_9701_6669" style="mask-type:alpha" maskUnits="userSpaceOnUse" x="6" y="6" width="24" height="24">
<rect x="6" y="6" width="24" height="24" fill="#D9D9D9"/>
</mask>
<g mask="url(#mask0_9701_6669)">
<path d="M20.5 24C19.8 24 19.2083 23.7583 18.725 23.275C18.2417 22.7917 18 22.2 18 21.5C18 20.8 18.2417 20.2083 18.725 19.725C19.2083 19.2417 19.8 19 20.5 19C21.2 19 21.7917 19.2417 22.275 19.725C22.7583 20.2083 23 20.8 23 21.5C23 22.2 22.7583 22.7917 22.275 23.275C21.7917 23.7583 21.2 24 20.5 24ZM11 28C10.45 28 9.97917 27.8042 9.5875 27.4125C9.19583 27.0208 9 26.55 9 26V12C9 11.45 9.19583 10.9792 9.5875 10.5875C9.97917 10.1958 10.45 10 11 10H12V9C12 8.71667 12.0958 8.47917 12.2875 8.2875C12.4792 8.09583 12.7167 8 13 8C13.2833 8 13.5208 8.09583 13.7125 8.2875C13.9042 8.47917 14 8.71667 14 9V10H22V9C22 8.71667 22.0958 8.47917 22.2875 8.2875C22.4792 8.09583 22.7167 8 23 8C23.2833 8 23.5208 8.09583 23.7125 8.2875C23.9042 8.47917 24 8.71667 24 9V10H25C25.55 10 26.0208 10.1958 26.4125 10.5875C26.8042 10.9792 27 11.45 27 12V26C27 26.55 26.8042 27.0208 26.4125 27.4125C26.0208 27.8042 25.55 28 25 28H11ZM11 26H25V16H11V26Z" fill="#313131"/>
</g>
</svg>
