<svg width="24" height="24" viewBox="0 0 24 24" fill="none" xmlns="http://www.w3.org/2000/svg">
<mask id="mask0_8473_7202" style="mask-type:alpha" maskUnits="userSpaceOnUse" x="0" y="0" width="24" height="24">
<rect width="24" height="24" fill="#D9D9D9"/>
</mask>
<g mask="url(#mask0_8473_7202)">
<path d="M5.00067 21C4.15067 21 3.54651 20.6208 3.18817 19.8625C2.82984 19.1042 2.91734 18.4 3.45067 17.75L9.00067 11V5H8.00067C7.71734 5 7.47984 4.90417 7.28817 4.7125C7.09651 4.52083 7.00067 4.28333 7.00067 4C7.00067 3.71667 7.09651 3.47917 7.28817 3.2875C7.47984 3.09583 7.71734 3 8.00067 3H16.0007C16.284 3 16.5215 3.09583 16.7132 3.2875C16.9048 3.47917 17.0007 3.71667 17.0007 4C17.0007 4.28333 16.9048 4.52083 16.7132 4.7125C16.5215 4.90417 16.284 5 16.0007 5H15.0007V11L20.5507 17.75C21.084 18.4 21.1715 19.1042 20.8132 19.8625C20.4548 20.6208 19.8507 21 19.0007 21H5.00067Z" fill="#313131"/>
</g>
</svg>
