<svg width="20" height="20" viewBox="0 0 20 20" fill="none" xmlns="http://www.w3.org/2000/svg">
<path d="M16.125 17.0208L11.1042 12C10.6875 12.3611 10.2017 12.6424 9.64669 12.8437C9.0917 13.0451 8.50114 13.1458 7.875 13.1458C6.37275 13.1458 5.10135 12.625 4.06081 11.5833C3.02027 10.5417 2.5 9.28471 2.5 7.81249C2.5 6.34027 3.02083 5.08332 4.0625 4.04166C5.10417 2.99999 6.36458 2.47916 7.84375 2.47916C9.32292 2.47916 10.5799 2.99999 11.6146 4.04166C12.6493 5.08332 13.1667 6.34131 13.1667 7.81562C13.1667 8.41076 13.0694 8.9861 12.875 9.54166C12.6806 10.0972 12.3889 10.618 12 11.1042L17.0625 16.125C17.1875 16.2422 17.25 16.3861 17.25 16.5567C17.25 16.7272 17.1812 16.8813 17.0435 17.019C16.9173 17.1452 16.7623 17.2083 16.5787 17.2083C16.3951 17.2083 16.2438 17.1458 16.125 17.0208ZM7.85417 11.8958C8.98264 11.8958 9.94184 11.4965 10.7318 10.6979C11.5217 9.8993 11.9167 8.93749 11.9167 7.81249C11.9167 6.68749 11.5217 5.72568 10.7318 4.92707C9.94184 4.12846 8.98264 3.72916 7.85417 3.72916C6.71413 3.72916 5.74508 4.12846 4.94704 4.92707C4.14901 5.72568 3.75 6.68749 3.75 7.81249C3.75 8.93749 4.14901 9.8993 4.94704 10.6979C5.74508 11.4965 6.71413 11.8958 7.85417 11.8958Z" fill="#919191"/>
</svg>
