<svg width="38" height="38" viewBox="0 0 38 38" fill="none" xmlns="http://www.w3.org/2000/svg">
<circle cx="19" cy="19" r="19" fill="#760FB2"/>
<mask id="mask0_10816_7246" style="mask-type:alpha" maskUnits="userSpaceOnUse" x="7" y="7" width="24" height="24">
<rect x="7" y="7" width="24" height="24" fill="#D9D9D9"/>
</mask>
<g mask="url(#mask0_10816_7246)">
<path d="M11.4 26.4242C11.0667 26.5576 10.75 26.5284 10.45 26.3367C10.15 26.1451 10 25.8659 10 25.4992V20.9992L18 18.9992L10 16.9992V12.4992C10 12.1326 10.15 11.8534 10.45 11.6617C10.75 11.4701 11.0667 11.4409 11.4 11.5742L26.8 18.0742C27.2167 18.2576 27.425 18.5659 27.425 18.9992C27.425 19.4326 27.2167 19.7409 26.8 19.9242L11.4 26.4242Z" fill="white"/>
</g>
</svg>
