<svg width="28" height="28" viewBox="0 0 28 28" fill="none" xmlns="http://www.w3.org/2000/svg">
<circle cx="14" cy="14" r="14" fill="#F3F3F3"/>
<mask id="mask0_9825_6984" style="mask-type:alpha" maskUnits="userSpaceOnUse" x="6" y="6" width="16" height="16">
<rect x="6" y="6" width="16" height="16" fill="#D9D9D9"/>
</mask>
<g mask="url(#mask0_9825_6984)">
<path d="M14 14C14.5556 14 15.0278 13.8056 15.4167 13.4167C15.8056 13.0278 16 12.5556 16 12C16 11.4444 15.8056 10.9722 15.4167 10.5833C15.0278 10.1944 14.5556 10 14 10C13.4444 10 12.9722 10.1944 12.5833 10.5833C12.1944 10.9722 12 11.4444 12 12C12 12.5556 12.1944 13.0278 12.5833 13.4167C12.9722 13.8056 13.4444 14 14 14ZM13 12.3333C12.9111 12.3333 12.8333 12.3 12.7667 12.2333C12.7 12.1667 12.6667 12.0889 12.6667 12C12.6667 11.9111 12.7 11.8333 12.7667 11.7667C12.8333 11.7 12.9111 11.6667 13 11.6667C13.0889 11.6667 13.1667 11.7 13.2333 11.7667C13.3 11.8333 13.3333 11.9111 13.3333 12C13.3333 12.0889 13.3 12.1667 13.2333 12.2333C13.1667 12.3 13.0889 12.3333 13 12.3333ZM14 12.3333C13.9111 12.3333 13.8333 12.3 13.7667 12.2333C13.7 12.1667 13.6667 12.0889 13.6667 12C13.6667 11.9111 13.7 11.8333 13.7667 11.7667C13.8333 11.7 13.9111 11.6667 14 11.6667C14.0889 11.6667 14.1667 11.7 14.2333 11.7667C14.3 11.8333 14.3333 11.9111 14.3333 12C14.3333 12.0889 14.3 12.1667 14.2333 12.2333C14.1667 12.3 14.0889 12.3333 14 12.3333ZM15 12.3333C14.9111 12.3333 14.8333 12.3 14.7667 12.2333C14.7 12.1667 14.6667 12.0889 14.6667 12C14.6667 11.9111 14.7 11.8333 14.7667 11.7667C14.8333 11.7 14.9111 11.6667 15 11.6667C15.0889 11.6667 15.1667 11.7 15.2333 11.7667C15.3 11.8333 15.3333 11.9111 15.3333 12C15.3333 12.0889 15.3 12.1667 15.2333 12.2333C15.1667 12.3 15.0889 12.3333 15 12.3333ZM9.33333 20C8.96667 20 8.65278 19.8694 8.39167 19.6083C8.13056 19.3472 8 19.0333 8 18.6667V9.33333C8 8.96667 8.13056 8.65278 8.39167 8.39167C8.65278 8.13056 8.96667 8 9.33333 8H18.6667C19.0333 8 19.3472 8.13056 19.6083 8.39167C19.8694 8.65278 20 8.96667 20 9.33333V18.6667C20 19.0333 19.8694 19.3472 19.6083 19.6083C19.3472 19.8694 19.0333 20 18.6667 20H9.33333Z" fill="#616161"/>
</g>
</svg>
