<svg width="24" height="24" viewBox="0 0 24 24" fill="none" xmlns="http://www.w3.org/2000/svg">
<path d="M22.7423 4.63154C22.4078 4.29704 22.0816 4.16279 21.7407 4.22617C20.8272 4.39117 20.1357 5.88742 20.1286 5.90242C20.1031 5.95829 20.0517 5.99842 19.9913 6.00929C19.931 6.01979 19.8691 6.00104 19.8256 5.95717C19.4787 5.61029 19.0306 5.45054 18.5956 5.52254C18.1302 5.59792 17.732 5.92342 17.4743 6.43904C16.9853 7.41629 17.4796 8.93204 17.4845 8.94704L17.4537 8.95717C17.564 9.02429 17.6682 9.10304 17.7612 9.19604L18.1775 9.61229C18.2705 9.70529 18.3488 9.80917 18.416 9.91942L18.4261 9.88942C18.4415 9.89429 19.9576 10.3885 20.9348 9.89954C21.4505 9.64154 21.776 9.24329 21.8513 8.77792C21.9218 8.34329 21.7632 7.89517 21.4163 7.54829C21.3728 7.50479 21.3537 7.44292 21.3646 7.38254C21.3755 7.32217 21.4152 7.27079 21.4715 7.24529C21.4865 7.23817 22.9827 6.54667 23.1481 5.63279C23.2096 5.29304 23.0768 4.96567 22.7423 4.63154ZM21.947 5.69204L18.7651 8.87392C18.7283 8.91067 18.6803 8.92867 18.6323 8.92867C18.5843 8.92867 18.5363 8.91029 18.4996 8.87392C18.4265 8.80079 18.4265 8.68192 18.4996 8.60879L21.6815 5.42692C21.7546 5.35379 21.8735 5.35379 21.9466 5.42692C22.0197 5.50004 22.0201 5.61854 21.947 5.69204Z" fill="#313131"/>
<path d="M20.8518 11.3657C20.8166 11.32 20.8038 11.2611 20.8181 11.2049C20.9066 10.8531 20.8814 10.576 20.7562 10.3701C20.4633 10.4579 20.1539 10.4927 19.8562 10.4927C19.3507 10.4927 18.8827 10.4001 18.5954 10.3281C18.6742 10.6034 18.6836 10.8985 18.6131 11.1831L18.5081 11.6069C18.3524 12.2249 17.9954 12.784 17.5023 13.1815L15.9558 14.4381H21.3284C21.9614 14.1156 22.3053 13.7924 22.2948 13.5254C22.2832 13.2314 21.8471 12.9918 21.6802 12.9243C21.6318 12.9048 21.5936 12.8657 21.5748 12.8166C21.5564 12.7679 21.5591 12.7135 21.5823 12.6666C21.7229 12.3858 21.8576 11.998 21.7031 11.746C21.5178 11.4441 21.0048 11.4381 20.9996 11.4381C20.9418 11.4377 20.8874 11.4111 20.8518 11.3657ZM20.3339 12.5432L19.5839 12.9182C19.5569 12.9317 19.5284 12.9381 19.4999 12.9381C19.4309 12.9381 19.3649 12.8999 19.3319 12.8346C19.2854 12.742 19.3233 12.6295 19.4159 12.583L20.1659 12.208C20.2589 12.1611 20.3711 12.1997 20.4176 12.292C20.4641 12.3842 20.4266 12.4967 20.3339 12.5432Z" fill="#313131"/>
<path d="M8.3622 11.1848C8.25195 10.1809 8.53995 9.25463 8.71433 8.8125H7.68945C7.7082 9.72637 7.85858 10.6298 7.96545 11.1675C8.09708 11.187 8.22983 11.1926 8.3622 11.1848Z" fill="#313131"/>
<path d="M13.064 13.4391C13.016 13.4391 12.968 13.4208 12.9312 13.3844L12.3211 12.7743L10.9692 14.4385H15.3612L17.2666 12.8905C17.6971 12.5433 18.0087 12.0554 18.1445 11.5165L18.2491 11.0935C18.3567 10.6604 18.2277 10.195 17.9124 9.88002L17.4961 9.46377C17.1807 9.14839 16.7157 9.01977 16.2826 9.12702L15.8589 9.23202C15.4299 9.33964 15.0361 9.56352 14.7166 9.86689L15.5829 10.7328C15.656 10.8059 15.656 10.9248 15.5829 10.9979C15.5461 11.0346 15.4981 11.0526 15.4501 11.0526C15.4021 11.0526 15.3541 11.0343 15.3174 10.9979L14.4601 10.1406L13.5095 11.311L13.9917 11.7933C14.0649 11.8664 14.0649 11.9853 13.9917 12.0584C13.955 12.0951 13.907 12.1131 13.859 12.1131C13.811 12.1131 13.763 12.0948 13.7262 12.0584L13.2714 11.6035L12.5581 12.4814L13.1956 13.1193C13.2687 13.1924 13.2687 13.3113 13.1956 13.3844C13.16 13.4208 13.112 13.4391 13.064 13.4391Z" fill="#313131"/>
<path d="M12.8975 11.4683L14.1946 9.8715C14.5921 9.37912 15.1512 9.02175 15.7681 8.8665L16.1922 8.7615C16.4772 8.69138 16.7723 8.70075 17.0476 8.7795C16.9163 8.25525 16.7138 7.12238 17.1387 6.27225C17.3318 5.886 17.5947 5.5875 17.9056 5.3925C17.9198 4.91138 17.7237 4.49662 17.354 4.24575C16.8676 3.91612 16.1761 3.933 15.4587 4.29262C15.4006 4.32187 15.3316 4.31775 15.2765 4.28475C15.2213 4.25062 15.1876 4.19025 15.1872 4.12538C15.1872 4.05638 15.1613 2.4375 13.5001 2.4375C11.8317 2.4375 11.8126 4.056 11.8126 4.125C11.8126 4.18988 11.7788 4.25025 11.7237 4.28475C11.6686 4.3185 11.5996 4.32187 11.5415 4.29262C10.6381 3.84075 9.77259 3.94087 9.33571 4.54688C8.94009 5.09588 8.95546 6.06525 9.88284 6.99225C10.649 7.75875 11.2617 8.96925 11.7065 10.5855C12.1553 10.7081 12.587 10.9699 12.8975 11.4683ZM14.4575 6.291L14.8325 5.541C14.879 5.44875 14.9915 5.4105 15.0841 5.457C15.1767 5.5035 15.2142 5.616 15.1681 5.70862L14.7931 6.45862C14.7597 6.52425 14.6937 6.5625 14.6251 6.5625C14.597 6.5625 14.5685 6.55613 14.5415 6.54263C14.4485 6.49613 14.411 6.38362 14.4575 6.291ZM11.1661 5.45738C11.2591 5.41088 11.3712 5.44913 11.4177 5.54138L12.1677 7.04138C12.2142 7.134 12.1763 7.2465 12.0837 7.293C12.0571 7.30613 12.0286 7.3125 12.0001 7.3125C11.9311 7.3125 11.8651 7.27425 11.8321 7.209L11.0821 5.709C11.036 5.61637 11.0735 5.50388 11.1661 5.45738Z" fill="#313131"/>
<path d="M17.5647 3.93563C17.9881 4.22287 18.2412 4.68937 18.2769 5.21887C18.3609 5.19112 18.4467 5.1675 18.5352 5.15325C18.7509 5.11837 18.9669 5.13225 19.1772 5.18062C19.6947 4.23487 19.3475 3.49013 19.3314 3.4575C19.3014 3.39488 19.3081 3.31875 19.3501 3.2625C19.6284 2.89087 20.2801 1.78575 19.9595 1.14562C19.7656 0.758625 19.2327 0.5625 18.3751 0.5625C16.982 0.5625 16.4881 0.888 16.3197 1.161C16.133 1.46325 16.2912 1.788 16.2931 1.79137C16.3179 1.84125 16.3194 1.89975 16.2969 1.95075C16.2744 2.00213 16.2305 2.04037 16.1765 2.05537C15.6725 2.199 15.2915 2.4135 15.0264 2.68687C15.3631 3.0735 15.4899 3.55012 15.536 3.84637C16.2924 3.53737 17.021 3.56662 17.5647 3.93563ZM17.4432 2.95463L17.8182 1.45463C17.8434 1.35375 17.9442 1.29338 18.0455 1.31813C18.146 1.34325 18.2071 1.44525 18.182 1.54537L17.807 3.04538C17.7856 3.13088 17.7095 3.1875 17.6251 3.1875C17.6101 3.1875 17.5947 3.18562 17.5794 3.18187C17.4792 3.15675 17.4181 3.05475 17.4432 2.95463Z" fill="#313131"/>
<path d="M21.3978 14.8125H2.65905C2.50043 14.8125 2.3538 14.8763 2.24618 14.9921C2.1393 15.1069 2.08643 15.2565 2.09768 15.4133C2.22518 17.1986 2.8158 21.5452 5.54018 23.3497C5.6268 23.4071 5.7333 23.4375 5.84768 23.4375H18.2099C18.3243 23.4375 18.4304 23.4071 18.5171 23.3497C21.2411 21.5452 21.8317 17.199 21.9596 15.4136C21.9708 15.2565 21.9179 15.1069 21.8111 14.9918C21.7031 14.8763 21.5564 14.8125 21.3978 14.8125Z" fill="#313131"/>
<path d="M10.4858 14.4367L12.644 11.7799C11.858 10.3095 9.90083 11.0182 9.81571 11.0497L9.25621 11.3306C8.62658 11.6441 7.87433 11.6445 7.24396 11.3306L6.66608 11.0419C6.66308 11.0419 5.36633 10.5724 4.45508 11.1244C3.96121 11.4236 3.66008 11.9779 3.56108 12.7729C3.48608 13.3691 3.48683 13.9264 3.55546 14.4371L10.4858 14.4367Z" fill="#313131"/>
</svg>
