<svg width="24" height="24" viewBox="0 0 24 24" fill="none" xmlns="http://www.w3.org/2000/svg">
<g clip-path="url(#clip0_10261_6868)">
<path d="M21.0656 10.25C20.9906 10.2313 20.9297 10.1797 20.8922 10.1141C19.6547 7.64844 16.3078 7.65313 15.0703 10.1188C15.0375 10.1844 14.9719 10.2359 14.8969 10.2547C13.9453 10.4891 13.2375 11.4406 13.1391 12.5656H22.8234C22.725 11.4359 22.0172 10.4844 21.0656 10.25ZM15.1453 11.5109C14.7844 11.5016 14.7844 10.9625 15.1453 10.9578C15.5109 10.9625 15.5109 11.5016 15.1453 11.5109ZM16.6312 10.3203C16.3969 10.5969 15.975 10.2453 16.2 9.96875C16.4344 9.6875 16.8609 10.0438 16.6312 10.3203ZM18.1641 11.3047C17.9297 11.5813 17.5078 11.2297 17.7328 10.9531C17.9672 10.6719 18.3937 11.0234 18.1641 11.3047ZM18.4312 9.47656C18.2016 9.75313 17.775 9.40625 18 9.125C18.2391 8.84844 18.6562 9.19063 18.4312 9.47656ZM19.5656 10.6156C19.2 10.6109 19.2 10.0672 19.5656 10.0625C19.9312 10.0719 19.9266 10.6109 19.5656 10.6156ZM21.225 11.5109C20.8594 11.5063 20.8594 10.9625 21.225 10.9578C21.5859 10.9625 21.5859 11.5016 21.225 11.5109ZM23.9531 13.4187C23.9437 13.5359 23.8969 13.625 23.8453 13.6813C23.5453 13.7188 23.3812 13.9156 23.2547 14.0609C23.2547 14.1125 23.1 14.225 23.0578 14.2438C22.8797 14.3188 22.7297 14.1688 22.6312 14.0375C22.4719 13.8406 22.2656 13.6906 22.0031 13.6719C21.6375 13.6344 21.375 13.8922 21.1687 14.1547C20.8687 14.4406 20.6906 14.0703 20.4891 13.8828C20.0578 13.4797 19.5 13.7 19.1906 14.1266C19.125 14.2016 19.0406 14.2719 18.9375 14.2672C18.8016 14.2672 18.7078 14.1406 18.6234 14.0375C18.2812 13.5406 17.5875 13.5594 17.25 14.0469C17.1375 14.1828 16.9781 14.3422 16.7953 14.2156C16.65 14.0938 16.5562 13.9203 16.3969 13.8125C15.9937 13.4938 15.4406 13.7375 15.2391 14.0563C15.1125 14.2063 15.0562 14.2625 14.9391 14.2625C14.8266 14.2625 14.7703 14.2109 14.6437 14.0609C14.5031 13.8922 14.3109 13.6672 13.9359 13.6672C13.5656 13.6672 13.3734 13.8969 13.2328 14.0609C13.1344 14.1828 13.0266 14.3 12.8719 14.2531C12.5859 14.1172 12.4875 13.7141 12.0469 13.6766C11.925 13.5641 11.9016 13.2266 12.0422 13.0906H23.8453C23.9203 13.175 23.9578 13.2922 23.9531 13.4187ZM2.42812 22.8266H20.6812V23.0328C20.6812 23.2063 20.5359 23.3469 20.3672 23.3469H2.74687C2.57344 23.3469 2.42812 23.2063 2.42812 23.0328V22.8266ZM20.5031 20.4359H22.9828C22.9828 21.4625 22.1437 22.3016 21.1172 22.3016H1.9125C0.885937 22.2969 0.046875 21.4625 0.046875 20.4359C5.59687 20.4313 14.9578 20.4406 20.5031 20.4359ZM4.37812 18.4156C4.54687 18.9172 4.69687 19.4141 4.95 19.8875C4.57031 19.9016 4.2 19.9344 3.90937 19.8547C3.33281 19.6297 4.06406 18.3875 4.29375 18.0594C4.32187 18.1766 4.34531 18.2984 4.37812 18.4156ZM5.23125 19.25C4.95937 18.6172 4.725 17.9188 4.72031 17.2297C4.98281 16.5734 5.70937 16.1844 6.23906 15.7484C6.34219 17.1547 6.81094 18.575 7.71094 19.6719C6.88125 19.7328 6.26719 19.7891 5.53594 19.8406C5.47969 19.8453 5.26406 19.3203 5.23125 19.25ZM15.8578 19.2828C15.0609 19.4984 14.25 19.3672 13.4203 19.4188C13.4672 18.3875 13.8281 17.3516 14.5125 16.5688C14.9625 16.9625 16.4906 18.7297 15.8578 19.2828ZM12.8484 15.1719C13.1016 15.2984 13.3453 15.4391 13.5891 15.5844C13.6875 15.6453 14.2359 15.9313 14.2078 16.1C13.4016 17.0234 12.9328 18.1625 12.8906 19.4234C12.3469 19.4375 11.6672 19.4516 10.8609 19.4844C10.7391 18.3313 11.0625 16.1328 12.4734 14.9891C12.6 15.05 12.7219 15.1063 12.8484 15.1719ZM12.0937 14.6094C11.9672 14.5625 11.3812 15.4016 11.3062 15.5141C10.4812 16.6859 10.2937 18.1109 10.3312 19.5078C9.86719 19.5359 9.38437 19.55 8.91562 19.5875C8.71875 19.6063 8.46094 19.6766 8.29219 19.5359C7.50937 18.7766 7.12969 17.6609 6.88125 16.6203C6.76406 16.0906 6.5625 15.2891 7.125 14.9422C8.65312 14.1172 10.4625 13.9813 12.0937 14.6094ZM20.4984 19.9063C20.85 19.9016 21.1687 19.6391 21.3 19.2547L22.7812 14.7828C22.6031 14.7359 22.4437 14.6281 22.3172 14.4969C22.1953 14.3375 22.0031 14.0797 21.7875 14.2672C21.6469 14.3797 21.5578 14.5438 21.4125 14.6516C21.0891 14.9 20.6156 14.8297 20.3531 14.525C20.1047 14.2297 19.9031 14.0328 19.6219 14.4406C19.3734 14.8063 18.7922 14.9281 18.4687 14.6375C18.3187 14.525 18.2109 14.3469 18.0891 14.2484C17.9109 14.1453 17.8078 14.2109 17.6484 14.4078C17.4141 14.7781 16.8187 14.9703 16.4297 14.6047C16.2562 14.4734 16.1719 14.2109 15.9516 14.2063C15.8344 14.2063 15.7781 14.2578 15.6516 14.4125C15.2906 14.9328 14.6062 14.9375 14.2453 14.4125C13.8187 13.8359 13.6547 14.6328 13.2094 14.7641C13.8141 15.0828 14.5266 15.3969 14.775 16.0813C15.0281 16.3344 15.2766 16.5875 15.4969 16.8641L15.3844 16.1469C15.3328 15.8047 15.8484 15.7203 15.9094 16.0625L16.2094 17.9422C16.7062 18.8703 16.7297 19.9016 15.4125 19.9063H20.4984ZM20.0578 16.0625C20.1141 15.725 20.6344 15.8047 20.5828 16.1469L20.0859 19.2406C20.025 19.5828 19.5141 19.5031 19.5656 19.1563L20.0578 16.0625ZM18.2437 19.1984C18.2391 19.5453 17.7187 19.5453 17.7141 19.1984V15.4391C17.7141 15.0922 18.2437 15.0922 18.2437 15.4391V19.1984ZM0.609375 13.7891C0.173437 11.3703 -0.0421875 8.87656 0.0890625 6.425H9.74531C9.89531 8.93281 9.65156 11.3703 9.23906 13.7188C8.41406 13.8125 7.62187 14.0656 6.87187 14.4734C6.58594 14.6281 6.48281 14.9375 6.23437 15.1016C5.53594 15.5891 4.83281 16.1656 4.3125 16.85C4.26562 16.925 4.23281 17.0047 4.20937 17.0891C4.19062 17.1594 4.21406 17.2859 4.1625 17.3375C3.62812 18.0594 2.99062 18.9688 3.23437 19.9063H2.625C2.53125 19.9063 2.22656 19.0391 2.18437 18.9406C1.44844 17.2953 0.942187 15.5563 0.609375 13.7891ZM1.78125 3.9125C1.11562 3.30781 1.11562 2.27656 1.78125 1.67188C1.98281 1.45156 2.14219 1.27813 2.14219 0.907813C2.14219 0.7625 2.25937 0.640625 2.40937 0.640625C2.55937 0.640625 2.67656 0.757812 2.67656 0.907813C2.67656 1.47969 2.4 1.78438 2.175 2.02813C1.97344 2.24844 1.81406 2.42188 1.81406 2.7875C1.81406 3.15313 1.97344 3.32656 2.175 3.55156C2.39531 3.8 2.67187 4.1 2.67187 4.67656C2.67187 5.02344 2.14219 5.02344 2.14219 4.67656C2.14219 4.30625 1.98281 4.13281 1.78125 3.9125ZM4.21875 3.9125C3.55312 3.30781 3.55312 2.27656 4.21875 1.67188C4.42031 1.45156 4.57969 1.27813 4.57969 0.907813C4.57969 0.7625 4.69687 0.640625 4.84687 0.640625C4.99219 0.640625 5.11406 0.757812 5.11406 0.907813C5.11406 1.47969 4.8375 1.78438 4.6125 2.02813C4.41094 2.24844 4.25156 2.42188 4.25156 2.7875C4.25156 3.15313 4.41094 3.32656 4.6125 3.55156C4.8375 3.79531 5.11406 4.1 5.11406 4.67188C5.11406 5.01875 4.58437 5.01875 4.58437 4.67188C4.57969 4.30625 4.42031 4.13281 4.21875 3.9125ZM6.65625 3.9125C5.99062 3.30781 5.99062 2.27656 6.65625 1.67188C6.85781 1.45156 7.01719 1.27813 7.01719 0.907813C7.01719 0.7625 7.13437 0.640625 7.28437 0.640625C7.42969 0.640625 7.55156 0.757812 7.55156 0.907813C7.55156 1.47969 7.275 1.78438 7.05 2.02813C6.84844 2.24844 6.68906 2.42188 6.68906 2.7875C6.68906 3.15313 6.84844 3.32656 7.05 3.55156C7.275 3.79531 7.55156 4.1 7.55156 4.67188C7.55156 5.01875 7.02187 5.01875 7.02187 4.67188C7.01719 4.30625 6.85781 4.13281 6.65625 3.9125Z" fill="#313131"/>
</g>
<defs>
<clipPath id="clip0_10261_6868">
<rect width="24" height="24" fill="white"/>
</clipPath>
</defs>
</svg>
