<svg width="27" height="27" viewBox="0 0 22 22" fill="none" xmlns="http://www.w3.org/2000/svg">
<g clip-path="url(#clip0_7771_11525)">
<path d="M9.64784 15.1695L16.1333 8.68411L15.0791 7.65286L9.64784 13.0841L6.89784 10.3341L5.86659 11.3654L9.64784 15.1695ZM10.9999 20.1654C9.74714 20.1654 8.56311 19.9247 7.44784 19.4435C6.33256 18.9622 5.3586 18.3053 4.52596 17.4727C3.69332 16.64 3.03638 15.6661 2.55513 14.5508C2.07388 13.4355 1.83325 12.2515 1.83325 10.9987C1.83325 9.73064 2.07388 8.53898 2.55513 7.4237C3.03638 6.30842 3.69332 5.33828 4.52596 4.51328C5.3586 3.68828 6.33256 3.03516 7.44784 2.55391C8.56311 2.07266 9.74714 1.83203 10.9999 1.83203C12.268 1.83203 13.4596 2.07266 14.5749 2.55391C15.6902 3.03516 16.6603 3.68828 17.4853 4.51328C18.3103 5.33828 18.9635 6.30842 19.4447 7.4237C19.926 8.53898 20.1666 9.73064 20.1666 10.9987C20.1666 12.2515 19.926 13.4355 19.4447 14.5508C18.9635 15.6661 18.3103 16.64 17.4853 17.4727C16.6603 18.3053 15.6902 18.9622 14.5749 19.4435C13.4596 19.9247 12.268 20.1654 10.9999 20.1654Z" fill="#E4BFFF"/>
<g clip-path="url(#clip1_7771_11525)">
<path d="M9.64784 15.1695L16.1333 8.68411L15.0791 7.65286L9.64784 13.0841L6.89784 10.3341L5.86659 11.3654L9.64784 15.1695ZM10.9999 20.1654C9.74714 20.1654 8.56311 19.9247 7.44784 19.4435C6.33256 18.9622 5.3586 18.3053 4.52596 17.4727C3.69332 16.64 3.03638 15.6661 2.55513 14.5508C2.07388 13.4355 1.83325 12.2515 1.83325 10.9987C1.83325 9.73064 2.07388 8.53898 2.55513 7.4237C3.03638 6.30842 3.69332 5.33828 4.52596 4.51328C5.3586 3.68828 6.33256 3.03516 7.44784 2.55391C8.56311 2.07266 9.74714 1.83203 10.9999 1.83203C12.268 1.83203 13.4596 2.07266 14.5749 2.55391C15.6902 3.03516 16.6603 3.68828 17.4853 4.51328C18.3103 5.33828 18.9635 6.30842 19.4447 7.4237C19.926 8.53898 20.1666 9.73064 20.1666 10.9987C20.1666 12.2515 19.926 13.4355 19.4447 14.5508C18.9635 15.6661 18.3103 16.64 17.4853 17.4727C16.6603 18.3053 15.6902 18.9622 14.5749 19.4435C13.4596 19.9247 12.268 20.1654 10.9999 20.1654Z" fill="#E4BFFF"/>
<path d="M9.64784 15.1695L16.1333 8.68411L15.0791 7.65286L9.64784 13.0841L6.89784 10.3341L5.86659 11.3654L9.64784 15.1695ZM10.9999 20.1654C9.74714 20.1654 8.56311 19.9247 7.44784 19.4435C6.33256 18.9622 5.3586 18.3053 4.52596 17.4727C3.69332 16.64 3.03638 15.6661 2.55513 14.5508C2.07388 13.4355 1.83325 12.2515 1.83325 10.9987C1.83325 9.73064 2.07388 8.53898 2.55513 7.4237C3.03638 6.30842 3.69332 5.33828 4.52596 4.51328C5.3586 3.68828 6.33256 3.03516 7.44784 2.55391C8.56311 2.07266 9.74714 1.83203 10.9999 1.83203C12.268 1.83203 13.4596 2.07266 14.5749 2.55391C15.6902 3.03516 16.6603 3.68828 17.4853 4.51328C18.3103 5.33828 18.9635 6.30842 19.4447 7.4237C19.926 8.53898 20.1666 9.73064 20.1666 10.9987C20.1666 12.2515 19.926 13.4355 19.4447 14.5508C18.9635 15.6661 18.3103 16.64 17.4853 17.4727C16.6603 18.3053 15.6902 18.9622 14.5749 19.4435C13.4596 19.9247 12.268 20.1654 10.9999 20.1654Z" fill="#10B010"/>
</g>
</g>
<defs>
<clipPath id="clip0_7771_11525">
<rect width="22" height="22" fill="white"/>
</clipPath>
<clipPath id="clip1_7771_11525">
<rect width="22" height="22" fill="white"/>
</clipPath>
</defs>
</svg>
