<svg width="20" height="20" viewBox="0 0 20 20" fill="none" xmlns="http://www.w3.org/2000/svg">
<path d="M9.99999 18.3346C8.8611 18.3346 7.78471 18.1159 6.77082 17.6784C5.75693 17.2409 4.87152 16.6437 4.11457 15.8867C3.35763 15.1298 2.76041 14.2444 2.32291 13.2305C1.88541 12.2166 1.66666 11.1402 1.66666 10.0013C1.66666 8.84852 1.88541 7.76519 2.32291 6.7513C2.76041 5.73741 3.35763 4.85547 4.11457 4.10547C4.87152 3.35547 5.75693 2.76172 6.77082 2.32422C7.78471 1.88672 8.8611 1.66797 9.99999 1.66797C11.1528 1.66797 12.2361 1.88672 13.25 2.32422C14.2639 2.76172 15.1458 3.35547 15.8958 4.10547C16.6458 4.85547 17.2396 5.73741 17.6771 6.7513C18.1146 7.76519 18.3333 8.84852 18.3333 10.0013C18.3333 11.1402 18.1146 12.2166 17.6771 13.2305C17.2396 14.2444 16.6458 15.1298 15.8958 15.8867C15.1458 16.6437 14.2639 17.2409 13.25 17.6784C12.2361 18.1159 11.1528 18.3346 9.99999 18.3346ZM9.99999 17.0846C11.9722 17.0846 13.6458 16.3937 15.0208 15.0117C16.3958 13.6298 17.0833 11.9596 17.0833 10.0013C17.0833 8.02908 16.3958 6.35547 15.0208 4.98047C13.6458 3.60547 11.9722 2.91797 9.99999 2.91797C8.04166 2.91797 6.37152 3.60547 4.98957 4.98047C3.60763 6.35547 2.91666 8.02908 2.91666 10.0013C2.91666 11.9596 3.60763 13.6298 4.98957 15.0117C6.37152 16.3937 8.04166 17.0846 9.99999 17.0846Z" fill="#616161"/>
</svg>
