<svg width="25" height="20" viewBox="0 0 20 15" fill="none" xmlns="http://www.w3.org/2000/svg">
<path d="M2.28975 14.875C1.8882 14.875 1.54506 14.732 1.26034 14.4461C0.975613 14.1601 0.833252 13.8164 0.833252 13.4148C0.833252 13.0133 0.975571 12.6701 1.26021 12.3854C1.54485 12.1007 1.88702 11.9583 2.28673 11.9583C2.35941 11.9583 2.43047 11.9618 2.49992 11.9688C2.56936 11.9757 2.65964 11.9931 2.77075 12.0208L6.93742 7.85417C6.90964 7.74306 6.89228 7.65278 6.88534 7.58333C6.87839 7.51389 6.87492 7.44283 6.87492 7.37015C6.87492 6.97044 7.0179 6.62826 7.30386 6.34363C7.5898 6.05899 7.93355 5.91667 8.33511 5.91667C8.73665 5.91667 9.07978 6.05996 9.3645 6.34654C9.64923 6.63313 9.79159 6.97764 9.79159 7.38008C9.79159 7.40447 9.77075 7.5625 9.72909 7.85417L12.0208 10.1458C12.1319 10.1181 12.2221 10.1007 12.2916 10.0938C12.361 10.0868 12.4305 10.0833 12.4999 10.0833C12.5694 10.0833 12.6388 10.0868 12.7083 10.0938C12.7777 10.1007 12.868 10.1181 12.9791 10.1458L16.3124 6.8125C16.2846 6.70139 16.2673 6.61111 16.2603 6.54167C16.2534 6.47222 16.2499 6.40116 16.2499 6.32848C16.2499 5.92877 16.3929 5.5866 16.6789 5.30196C16.9648 5.01732 17.3086 4.875 17.7101 4.875C18.1117 4.875 18.4548 5.01798 18.7395 5.30394C19.0242 5.58988 19.1666 5.93363 19.1666 6.33519C19.1666 6.73673 19.0243 7.07986 18.7396 7.36458C18.455 7.64931 18.1128 7.79167 17.7131 7.79167C17.6404 7.79167 17.5694 7.78819 17.4999 7.78125C17.4305 7.77431 17.3402 7.75694 17.2291 7.72917L13.8958 11.0625C13.9235 11.1736 13.9409 11.2639 13.9478 11.3333C13.9548 11.4028 13.9583 11.4738 13.9583 11.5465C13.9583 11.9462 13.8153 12.2884 13.5293 12.573C13.2434 12.8577 12.8996 13 12.4981 13C12.0965 13 11.7534 12.8577 11.4687 12.573C11.1839 12.2884 11.0416 11.9462 11.0416 11.5465C11.0416 11.4738 11.0451 11.4028 11.052 11.3333C11.0589 11.2639 11.0763 11.1736 11.1041 11.0625L8.81242 8.77083C8.70131 8.79861 8.61103 8.81597 8.54159 8.82292C8.47214 8.82986 8.40096 8.83333 8.32804 8.83333C8.30374 8.83333 8.14575 8.8125 7.85409 8.77083L3.68742 12.9375C3.7152 13.0486 3.73256 13.1389 3.7395 13.2083C3.74645 13.2778 3.74992 13.3488 3.74992 13.4215C3.74992 13.8212 3.60694 14.1634 3.32098 14.448C3.03504 14.7327 2.69129 14.875 2.28975 14.875ZM3.33325 5.66667L2.91131 4.75527L1.99992 4.33333L2.91131 3.9114L3.33325 3L3.75519 3.9114L4.66659 4.33333L3.75519 4.75527L3.33325 5.66667ZM12.4999 4.60417L11.86 3.22327L10.4791 2.58333L11.86 1.9434L12.4999 0.5625L13.1399 1.9434L14.5208 2.58333L13.1399 3.22327L12.4999 4.60417Z" fill="#760FB2"/>
</svg>
