<svg width="17" height="21" viewBox="0 0 17 21" fill="none" xmlns="http://www.w3.org/2000/svg">
<mask id="mask0_3747_8003" style="mask-type:alpha" maskUnits="userSpaceOnUse" x="0" y="0" width="21" height="21">
<rect x="0.822266" y="0.138672" width="20" height="20" fill="#D9D9D9"/>
</mask>
<g mask="url(#mask0_3747_8003)">
<path d="M5.57227 7.11737C6.2806 6.74237 7.01324 6.45765 7.77018 6.26321C8.52713 6.06876 9.30143 5.97154 10.0931 5.97154C10.5098 5.97154 10.923 5.99932 11.3327 6.05487C11.7424 6.11043 12.1487 6.19376 12.5514 6.30487C13.2459 6.49932 13.7771 6.63126 14.1452 6.70071C14.5132 6.77015 14.9056 6.80487 15.3223 6.80487H16.0931L16.4473 3.47154H5.17643L5.57227 7.11737ZM6.6556 18.4715C6.22504 18.4715 5.85004 18.3326 5.5306 18.0549C5.21115 17.7771 5.0306 17.4229 4.98893 16.9924L3.32227 1.80487H18.3223L16.6556 16.9924C16.6139 17.4229 16.4334 17.7771 16.1139 18.0549C15.7945 18.3326 15.4195 18.4715 14.9889 18.4715H6.6556Z" fill="#1BB333"/>
</g>
</svg>
